<svg width="64" height="64" viewBox="0 0 64 64" fill="none" xmlns="http://www.w3.org/2000/svg">
  <!-- Background -->
  <rect x="4" y="8" width="56" height="48" rx="4" fill="url(#aether-gradient)" stroke="#059669" stroke-width="2"/>
  
  <!-- Terminal Header -->
  <rect x="4" y="8" width="56" height="8" rx="4" fill="#065f46"/>
  <rect x="4" y="12" width="56" height="4" fill="#059669"/>
  
  <!-- Terminal Controls -->
  <circle cx="12" cy="12" r="1.5" fill="#ef4444"/>
  <circle cx="18" cy="12" r="1.5" fill="#f59e0b"/>
  <circle cx="24" cy="12" r="1.5" fill="#10b981"/>
  
  <!-- Command Lines -->
  <rect x="10" y="22" width="4" height="2" fill="#ffffff" opacity="0.9"/>
  <rect x="16" y="22" width="20" height="2" fill="#10b981" opacity="0.8"/>
  <rect x="38" y="22" width="12" height="2" fill="#ffffff" opacity="0.6"/>
  
  <rect x="10" y="28" width="4" height="2" fill="#ffffff" opacity="0.9"/>
  <rect x="16" y="28" width="16" height="2" fill="#3b82f6" opacity="0.8"/>
  <rect x="34" y="28" width="8" height="2" fill="#ffffff" opacity="0.6"/>
  
  <rect x="10" y="34" width="4" height="2" fill="#ffffff" opacity="0.9"/>
  <rect x="16" y="34" width="24" height="2" fill="#8b5cf6" opacity="0.8"/>
  
  <!-- AI Indicator -->
  <circle cx="48" cy="40" r="6" fill="url(#ai-glow)" opacity="0.8"/>
  <path d="M45 40 L48 37 L51 40 L48 43 Z" fill="#ffffff"/>
  
  <!-- Cursor -->
  <rect x="10" y="46" width="2" height="6" fill="#ffffff">
    <animate attributeName="opacity" values="1;0;1" dur="1s" repeatCount="indefinite"/>
  </rect>
  
  <!-- Command Prompt -->
  <rect x="10" y="46" width="4" height="2" fill="#10b981" opacity="0.9"/>
  <rect x="16" y="46" width="12" height="2" fill="#ffffff" opacity="0.7"/>
  
  <!-- Gradient Definitions -->
  <defs>
    <linearGradient id="aether-gradient" x1="0%" y1="0%" x2="100%" y2="100%">
      <stop offset="0%" style="stop-color:#064e3b;stop-opacity:1" />
      <stop offset="50%" style="stop-color:#065f46;stop-opacity:1" />
      <stop offset="100%" style="stop-color:#047857;stop-opacity:1" />
    </linearGradient>
    <radialGradient id="ai-glow" cx="50%" cy="50%" r="50%">
      <stop offset="0%" style="stop-color:#10b981;stop-opacity:1" />
      <stop offset="100%" style="stop-color:#059669;stop-opacity:0.6" />
    </radialGradient>
  </defs>
</svg>
