<svg width="64" height="64" viewBox="0 0 64 64" fill="none" xmlns="http://www.w3.org/2000/svg">
  <!-- Background Circle -->
  <circle cx="32" cy="32" r="30" fill="url(#code-gradient)" stroke="#059669" stroke-width="2"/>
  
  <!-- Code Brackets -->
  <path d="M18 20 L14 24 L14 40 L18 44" stroke="#ffffff" stroke-width="3" stroke-linecap="round" stroke-linejoin="round" fill="none"/>
  <path d="M46 20 L50 24 L50 40 L46 44" stroke="#ffffff" stroke-width="3" stroke-linecap="round" stroke-linejoin="round" fill="none"/>
  
  <!-- Code Lines -->
  <line x1="22" y1="22" x2="38" y2="22" stroke="#ffffff" stroke-width="2" opacity="0.8"/>
  <line x1="22" y1="28" x2="42" y2="28" stroke="#ffffff" stroke-width="2" opacity="0.8"/>
  <line x1="22" y1="34" x2="35" y2="34" stroke="#ffffff" stroke-width="2" opacity="0.8"/>
  <line x1="22" y1="40" x2="40" y2="40" stroke="#ffffff" stroke-width="2" opacity="0.8"/>
  
  <!-- AI Brain/Neural Symbol -->
  <circle cx="32" cy="32" r="8" fill="none" stroke="#ffffff" stroke-width="2" opacity="0.9"/>
  <circle cx="28" cy="28" r="1.5" fill="#ffffff"/>
  <circle cx="36" cy="28" r="1.5" fill="#ffffff"/>
  <circle cx="32" cy="36" r="1.5" fill="#ffffff"/>
  <path d="M28 28 L32 36 L36 28" stroke="#ffffff" stroke-width="1.5" fill="none" opacity="0.7"/>
  
  <!-- Checkmark for Quality -->
  <path d="M40 14 L44 18 L52 10" stroke="#ffffff" stroke-width="2.5" stroke-linecap="round" stroke-linejoin="round" fill="none"/>
  
  <!-- Gradient Definition -->
  <defs>
    <linearGradient id="code-gradient" x1="0%" y1="0%" x2="100%" y2="100%">
      <stop offset="0%" style="stop-color:#10b981;stop-opacity:1" />
      <stop offset="50%" style="stop-color:#059669;stop-opacity:1" />
      <stop offset="100%" style="stop-color:#047857;stop-opacity:1" />
    </linearGradient>
  </defs>
</svg>
