<svg width="64" height="64" viewBox="0 0 64 64" fill="none" xmlns="http://www.w3.org/2000/svg">
  <!-- Background Circle -->
  <circle cx="32" cy="32" r="30" fill="url(#cloud-gradient)" stroke="#7c3aed" stroke-width="2"/>
  
  <!-- Cloud Infrastructure -->
  <path d="M16 36 C16 32 19 28 24 28 C25 24 28 22 32 22 C36 22 39 24 40 28 C45 28 48 32 48 36 C48 40 45 44 40 44 L24 44 C19 44 16 40 16 36 Z" 
        fill="none" stroke="#ffffff" stroke-width="2"/>
  
  <!-- AI Nodes in Cloud -->
  <circle cx="24" cy="34" r="2.5" fill="#ffffff" opacity="0.9"/>
  <circle cx="32" cy="30" r="3" fill="#ffffff"/>
  <circle cx="40" cy="34" r="2.5" fill="#ffffff" opacity="0.9"/>
  <circle cx="28" cy="38" r="2" fill="#ffffff" opacity="0.8"/>
  <circle cx="36" cy="38" r="2" fill="#ffffff" opacity="0.8"/>
  
  <!-- Neural Connections -->
  <path d="M24 34 L32 30 M32 30 L40 34 M32 30 L28 38 M32 30 L36 38 M24 34 L28 38 M40 34 L36 38" 
        stroke="#ffffff" stroke-width="1.5" opacity="0.6"/>
  
  <!-- Architecture Layers -->
  <rect x="12" y="48" width="10" height="4" fill="#ffffff" opacity="0.8" rx="1"/>
  <rect x="27" y="48" width="10" height="4" fill="#ffffff" opacity="0.8" rx="1"/>
  <rect x="42" y="48" width="10" height="4" fill="#ffffff" opacity="0.8" rx="1"/>
  
  <!-- Connection Lines to Cloud -->
  <line x1="17" y1="48" x2="20" y2="44" stroke="#ffffff" stroke-width="1.5" opacity="0.7"/>
  <line x1="32" y1="48" x2="32" y2="44" stroke="#ffffff" stroke-width="1.5" opacity="0.7"/>
  <line x1="47" y1="48" x2="44" y2="44" stroke="#ffffff" stroke-width="1.5" opacity="0.7"/>
  
  <!-- AI Symbol -->
  <text x="32" y="20" text-anchor="middle" fill="#ffffff" font-family="Arial, sans-serif" font-size="8" font-weight="bold">AI</text>
  
  <!-- Optimization Arrows -->
  <path d="M8 24 L12 20 L8 16" stroke="#ffffff" stroke-width="2" fill="none" opacity="0.8"/>
  <path d="M56 24 L52 20 L56 16" stroke="#ffffff" stroke-width="2" fill="none" opacity="0.8"/>
  
  <!-- Gradient Definition -->
  <defs>
    <linearGradient id="cloud-gradient" x1="0%" y1="0%" x2="100%" y2="100%">
      <stop offset="0%" style="stop-color:#8b5cf6;stop-opacity:1" />
      <stop offset="50%" style="stop-color:#7c3aed;stop-opacity:1" />
      <stop offset="100%" style="stop-color:#6d28d9;stop-opacity:1" />
    </linearGradient>
  </defs>
</svg>
