<svg width="64" height="64" viewBox="0 0 64 64" fill="none" xmlns="http://www.w3.org/2000/svg">
  <!-- Background Circle -->
  <circle cx="32" cy="32" r="30" fill="url(#cost-gradient)" stroke="#f59e0b" stroke-width="2"/>
  
  <!-- Dollar Sign Base -->
  <path d="M32 12 L32 52 M24 18 C24 16 27 14 32 14 C37 14 40 16 40 20 C40 24 37 26 32 26 L32 26 C27 26 24 28 24 32 C24 36 27 38 32 38 C37 38 40 40 40 44 C40 48 37 50 32 50" 
        stroke="#ffffff" stroke-width="3" stroke-linecap="round" fill="none"/>
  
  <!-- AI Neural Optimization Nodes -->
  <circle cx="20" cy="20" r="2" fill="#ffffff" opacity="0.9"/>
  <circle cx="44" cy="20" r="2" fill="#ffffff" opacity="0.9"/>
  <circle cx="16" cy="32" r="2" fill="#ffffff" opacity="0.9"/>
  <circle cx="48" cy="32" r="2" fill="#ffffff" opacity="0.9"/>
  <circle cx="20" cy="44" r="2" fill="#ffffff" opacity="0.9"/>
  <circle cx="44" cy="44" r="2" fill="#ffffff" opacity="0.9"/>
  
  <!-- Optimization Connections -->
  <path d="M20 20 L32 26 M44 20 L32 26 M16 32 L32 32 M32 32 L48 32 M20 44 L32 38 M44 44 L32 38" 
        stroke="#ffffff" stroke-width="1.5" opacity="0.5"/>
  
  <!-- Cost Reduction Arrows -->
  <path d="M52 16 L56 12 L60 16 M56 12 L56 20" stroke="#ffffff" stroke-width="2" fill="none" opacity="0.8"/>
  <path d="M4 48 L8 44 L12 48 M8 44 L8 52" stroke="#ffffff" stroke-width="2" fill="none" opacity="0.8"/>
  
  <!-- Savings Indicator -->
  <circle cx="50" cy="50" r="6" fill="#ffffff" opacity="0.9"/>
  <path d="M47 50 L49 52 L53 46" stroke="#f59e0b" stroke-width="2" stroke-linecap="round" stroke-linejoin="round"/>
  
  <!-- Analytics Chart -->
  <path d="M8 24 L12 20 L16 22 L20 18" stroke="#ffffff" stroke-width="2" fill="none" opacity="0.8"/>
  
  <!-- Gradient Definition -->
  <defs>
    <linearGradient id="cost-gradient" x1="0%" y1="0%" x2="100%" y2="100%">
      <stop offset="0%" style="stop-color:#fbbf24;stop-opacity:1" />
      <stop offset="50%" style="stop-color:#f59e0b;stop-opacity:1" />
      <stop offset="100%" style="stop-color:#d97706;stop-opacity:1" />
    </linearGradient>
  </defs>
</svg>
