<svg width="64" height="64" viewBox="0 0 64 64" fill="none" xmlns="http://www.w3.org/2000/svg">
  <!-- Background Circle -->
  <circle cx="32" cy="32" r="30" fill="url(#security-gradient)" stroke="#dc2626" stroke-width="2"/>
  
  <!-- Shield Shape -->
  <path d="M32 8 L44 16 L44 32 C44 40 38 46 32 50 C26 46 20 40 20 32 L20 16 L32 8 Z" 
        fill="none" stroke="#ffffff" stroke-width="2.5"/>
  
  <!-- AI Neural Network in Shield -->
  <circle cx="28" cy="24" r="2" fill="#ffffff" opacity="0.9"/>
  <circle cx="36" cy="24" r="2" fill="#ffffff" opacity="0.9"/>
  <circle cx="24" cy="32" r="2" fill="#ffffff" opacity="0.9"/>
  <circle cx="32" cy="32" r="2.5" fill="#ffffff"/>
  <circle cx="40" cy="32" r="2" fill="#ffffff" opacity="0.9"/>
  <circle cx="28" cy="40" r="2" fill="#ffffff" opacity="0.9"/>
  <circle cx="36" cy="40" r="2" fill="#ffffff" opacity="0.9"/>
  
  <!-- Neural Connections -->
  <path d="M28 24 L32 32 M36 24 L32 32 M24 32 L32 32 M32 32 L40 32 M32 32 L28 40 M32 32 L36 40" 
        stroke="#ffffff" stroke-width="1.5" opacity="0.6"/>
  
  <!-- Security Scan Lines -->
  <path d="M16 20 L22 20 M16 26 L22 26 M16 32 L22 32" stroke="#ffffff" stroke-width="2" opacity="0.8"/>
  <path d="M42 20 L48 20 M42 26 L48 26 M42 32 L48 32" stroke="#ffffff" stroke-width="2" opacity="0.8"/>
  
  <!-- Lock Symbol -->
  <rect x="30" y="44" width="4" height="6" fill="#ffffff" rx="1"/>
  <path d="M28 44 L28 42 C28 40.9 29.1 40 30.2 40 L33.8 40 C34.9 40 36 40.9 36 42 L36 44" 
        stroke="#ffffff" stroke-width="1.5" fill="none"/>
  
  <!-- Gradient Definition -->
  <defs>
    <linearGradient id="security-gradient" x1="0%" y1="0%" x2="100%" y2="100%">
      <stop offset="0%" style="stop-color:#ef4444;stop-opacity:1" />
      <stop offset="50%" style="stop-color:#dc2626;stop-opacity:1" />
      <stop offset="100%" style="stop-color:#b91c1c;stop-opacity:1" />
    </linearGradient>
  </defs>
</svg>
