<svg width="64" height="64" viewBox="0 0 64 64" fill="none" xmlns="http://www.w3.org/2000/svg">
  <!-- Background Circle -->
  <circle cx="32" cy="32" r="30" fill="url(#workflow-gradient)" stroke="#8b5cf6" stroke-width="2"/>
  
  <!-- Workflow Nodes -->
  <circle cx="16" cy="20" r="4" fill="#ffffff" opacity="0.9"/>
  <circle cx="32" cy="16" r="4" fill="#ffffff"/>
  <circle cx="48" cy="20" r="4" fill="#ffffff" opacity="0.9"/>
  <circle cx="20" cy="36" r="4" fill="#ffffff" opacity="0.9"/>
  <circle cx="44" cy="36" r="4" fill="#ffffff" opacity="0.9"/>
  <circle cx="32" cy="48" r="4" fill="#ffffff" opacity="0.9"/>
  
  <!-- AI Brain Center -->
  <circle cx="32" cy="32" r="6" fill="none" stroke="#ffffff" stroke-width="2"/>
  <circle cx="29" cy="30" r="1" fill="#ffffff"/>
  <circle cx="35" cy="30" r="1" fill="#ffffff"/>
  <circle cx="32" cy="35" r="1" fill="#ffffff"/>
  <path d="M29 30 L32 35 L35 30" stroke="#ffffff" stroke-width="1" fill="none"/>
  
  <!-- Workflow Arrows -->
  <path d="M20 20 L28 20 M28 18 L32 16 L28 14" stroke="#ffffff" stroke-width="2" fill="none" opacity="0.8"/>
  <path d="M36 18 L44 20 M42 18 L48 20 L42 22" stroke="#ffffff" stroke-width="2" fill="none" opacity="0.8"/>
  <path d="M18 24 L22 32 M20 30 L20 36 L22 34" stroke="#ffffff" stroke-width="2" fill="none" opacity="0.8"/>
  <path d="M46 24 L42 32 M44 30 L44 36 L42 34" stroke="#ffffff" stroke-width="2" fill="none" opacity="0.8"/>
  <path d="M24 38 L28 44 M26 42 L32 48 L28 46" stroke="#ffffff" stroke-width="2" fill="none" opacity="0.8"/>
  <path d="M40 38 L36 44 M38 42 L32 48 L36 46" stroke="#ffffff" stroke-width="2" fill="none" opacity="0.8"/>
  
  <!-- Natural Language Input -->
  <rect x="8" y="52" width="12" height="6" fill="#ffffff" opacity="0.8" rx="2"/>
  <text x="14" y="57" text-anchor="middle" fill="#8b5cf6" font-family="Arial, sans-serif" font-size="6" font-weight="bold">NLP</text>
  
  <!-- Automation Output -->
  <rect x="44" y="52" width="12" height="6" fill="#ffffff" opacity="0.8" rx="2"/>
  <path d="M48 54 L50 56 L52 54 M48 58 L50 56 L52 58" stroke="#8b5cf6" stroke-width="1.5" fill="none"/>
  
  <!-- Connection Lines -->
  <line x1="14" y1="52" x2="26" y2="46" stroke="#ffffff" stroke-width="1.5" opacity="0.6"/>
  <line x1="38" y1="46" x2="50" y2="52" stroke="#ffffff" stroke-width="1.5" opacity="0.6"/>
  
  <!-- Gradient Definition -->
  <defs>
    <linearGradient id="workflow-gradient" x1="0%" y1="0%" x2="100%" y2="100%">
      <stop offset="0%" style="stop-color:#a78bfa;stop-opacity:1" />
      <stop offset="50%" style="stop-color:#8b5cf6;stop-opacity:1" />
      <stop offset="100%" style="stop-color:#7c3aed;stop-opacity:1" />
    </linearGradient>
  </defs>
</svg>
