<svg width="64" height="64" viewBox="0 0 64 64" fill="none" xmlns="http://www.w3.org/2000/svg">
  <!-- Background Circle -->
  <circle cx="32" cy="32" r="30" fill="url(#suite-gradient)" stroke="#581c87" stroke-width="2"/>
  
  <!-- Central Analytics Hub -->
  <circle cx="32" cy="32" r="10" fill="#ffffff" fill-opacity="0.95" stroke="#7c3aed" stroke-width="2"/>
  <circle cx="32" cy="32" r="6" fill="url(#hub-gradient)" stroke="#6d28d9" stroke-width="1"/>
  <circle cx="32" cy="32" r="3" fill="#ffffff"/>
  <text x="32" y="33" text-anchor="middle" fill="#6d28d9" font-family="Arial, sans-serif" font-size="5" font-weight="bold">A</text>
  
  <!-- Data Sources -->
  <circle cx="12" cy="16" r="4" fill="url(#data1-gradient)" stroke="#3b82f6" stroke-width="1.5"/>
  <circle cx="20" cy="8" r="4" fill="url(#data2-gradient)" stroke="#10b981" stroke-width="1.5"/>
  <circle cx="44" cy="8" r="4" fill="url(#data3-gradient)" stroke="#f59e0b" stroke-width="1.5"/>
  <circle cx="52" cy="16" r="4" fill="url(#data4-gradient)" stroke="#ef4444" stroke-width="1.5"/>
  
  <!-- Data Connection Lines -->
  <path d="M16 16 L22 32 M24 8 L28 22 M40 8 L36 22 M48 16 L42 32" stroke="#7c3aed" stroke-width="2" opacity="0.6"/>
  
  <!-- BI Dashboard -->
  <rect x="8" y="32" width="12" height="8" rx="2" fill="url(#bi-gradient)" stroke="#3b82f6" stroke-width="1"/>
  <path d="M10 35 L12 33 L14 34 L16 32 L18 33" stroke="#ffffff" stroke-width="1.5" stroke-linecap="round" fill="none"/>
  <circle cx="10" cy="35" r="0.5" fill="#ffffff"/>
  <circle cx="12" cy="33" r="0.5" fill="#ffffff"/>
  <circle cx="14" cy="34" r="0.5" fill="#ffffff"/>
  <circle cx="16" cy="32" r="0.5" fill="#ffffff"/>
  <circle cx="18" cy="33" r="0.5" fill="#ffffff"/>
  
  <!-- Predictive Analytics -->
  <rect x="44" y="32" width="12" height="8" rx="2" fill="url(#predictive-gradient)" stroke="#8b5cf6" stroke-width="1"/>
  <path d="M46 36 L48 35 L50 36 L52 34 L54 35" stroke="#ffffff" stroke-width="1.5" stroke-linecap="round" fill="none"/>
  <path d="M50 36 L52 34 L54 35 L56 33" stroke="#c4b5fd" stroke-width="1.2" stroke-linecap="round" fill="none" stroke-dasharray="2,2"/>
  
  <!-- Real-time Insights -->
  <rect x="16" y="48" width="32" height="8" rx="3" fill="url(#insights-gradient)" stroke="#10b981" stroke-width="1"/>
  <path d="M20 52 L24 50 L28 51 L32 49 L36 50 L40 48 L44 49" stroke="#ffffff" stroke-width="2" stroke-linecap="round" fill="none"/>
  <circle cx="20" cy="52" r="0.8" fill="#ffffff"/>
  <circle cx="24" cy="50" r="0.8" fill="#ffffff"/>
  <circle cx="28" cy="51" r="0.8" fill="#ffffff"/>
  <circle cx="32" cy="49" r="0.8" fill="#ffffff"/>
  <circle cx="36" cy="50" r="0.8" fill="#ffffff"/>
  <circle cx="40" cy="48" r="0.8" fill="#ffffff"/>
  <circle cx="44" cy="49" r="0.8" fill="#ffffff"/>
  
  <!-- AI Decision Support -->
  <circle cx="8" cy="48" r="4" fill="url(#ai-gradient)" stroke="#7c3aed" stroke-width="1.5"/>
  <path d="M6 46 L10 50 M10 46 L6 50" stroke="#ffffff" stroke-width="1.5"/>
  <circle cx="8" cy="48" r="1" fill="#ffffff"/>
  <text x="8" y="48.5" text-anchor="middle" fill="#7c3aed" font-family="Arial, sans-serif" font-size="3" font-weight="bold">AI</text>
  
  <!-- Reporting Engine -->
  <circle cx="56" cy="48" r="4" fill="url(#reporting-gradient)" stroke="#059669" stroke-width="1.5"/>
  <rect x="54" y="46" width="4" height="4" rx="0.5" fill="#ffffff" opacity="0.9"/>
  <path d="M55 47 L57 47 M55 49 L57 49" stroke="#059669" stroke-width="0.8"/>
  <circle cx="56.5" cy="48" r="0.3" fill="#059669"/>
  
  <!-- Data Visualization -->
  <rect x="8" y="8" width="8" height="8" rx="2" fill="url(#viz-gradient)" stroke="#f59e0b" stroke-width="1"/>
  <path d="M10 12 L12 10 L14 11 L16 9" stroke="#ffffff" stroke-width="1.5" stroke-linecap="round" fill="none"/>
  <circle cx="10" cy="12" r="0.5" fill="#ffffff"/>
  <circle cx="12" cy="10" r="0.5" fill="#ffffff"/>
  <circle cx="14" cy="11" r="0.5" fill="#ffffff"/>
  <circle cx="16" cy="9" r="0.5" fill="#ffffff"/>
  
  <!-- KPI Monitoring -->
  <rect x="48" y="8" width="8" height="8" rx="2" fill="url(#kpi-gradient)" stroke="#dc2626" stroke-width="1"/>
  <circle cx="52" cy="10" r="1.5" fill="#ffffff" opacity="0.9"/>
  <text x="52" y="10.5" text-anchor="middle" fill="#dc2626" font-family="Arial, sans-serif" font-size="4" font-weight="bold">%</text>
  <path d="M50 13 L54 13" stroke="#ffffff" stroke-width="1"/>
  
  <!-- Data Integration -->
  <circle cx="32" cy="8" r="4" fill="url(#integration-gradient)" stroke="#22c55e" stroke-width="1.5"/>
  <path d="M30 6 L34 10 L30 10 L34 6" stroke="#ffffff" stroke-width="1.5" stroke-linecap="round" fill="none"/>
  <circle cx="32" cy="8" r="1" fill="#ffffff"/>
  
  <!-- Performance Metrics -->
  <circle cx="8" cy="16" r="3" fill="url(#perf-gradient)" stroke="#3b82f6" stroke-width="1"/>
  <path d="M8 13 A3 3 0 0 1 11 16" stroke="#ffffff" stroke-width="1.5" fill="none"/>
  <circle cx="8" cy="16" r="1" fill="#ffffff"/>
  
  <!-- Alerts System -->
  <circle cx="56" cy="16" r="3" fill="url(#alert-gradient)" stroke="#ef4444" stroke-width="1"/>
  <text x="56" y="17" text-anchor="middle" fill="#ffffff" font-family="Arial, sans-serif" font-size="4" font-weight="bold">!</text>
  <circle cx="58" cy="14" r="0.5" fill="#ef4444"/>
  
  <!-- Data Security -->
  <circle cx="32" cy="56" r="4" fill="url(#security-gradient)" stroke="#6b7280" stroke-width="1.5"/>
  <rect x="30.5" y="55" width="3" height="2" rx="0.5" fill="#ffffff"/>
  <path d="M31.5 55 L31.5 54 C31.5 53.5 32 53 32.5 53 C33 53 33.5 53.5 33.5 54 L33.5 55" stroke="#6b7280" stroke-width="1" fill="none"/>
  
  <!-- Central Data Flow -->
  <path d="M32 22 L32 8 M32 42 L32 56" stroke="#7c3aed" stroke-width="2" opacity="0.4" stroke-dasharray="3,3"/>
  
  <!-- Gradient Definitions -->
  <defs>
    <linearGradient id="suite-gradient" x1="0%" y1="0%" x2="100%" y2="100%">
      <stop offset="0%" style="stop-color:#a78bfa;stop-opacity:1" />
      <stop offset="50%" style="stop-color:#8b5cf6;stop-opacity:1" />
      <stop offset="100%" style="stop-color:#7c3aed;stop-opacity:1" />
    </linearGradient>
    <linearGradient id="hub-gradient" x1="0%" y1="0%" x2="100%" y2="100%">
      <stop offset="0%" style="stop-color:#ddd6fe;stop-opacity:1" />
      <stop offset="100%" style="stop-color:#8b5cf6;stop-opacity:1" />
    </linearGradient>
    <linearGradient id="data1-gradient" x1="0%" y1="0%" x2="100%" y2="100%">
      <stop offset="0%" style="stop-color:#60a5fa;stop-opacity:1" />
      <stop offset="100%" style="stop-color:#3b82f6;stop-opacity:1" />
    </linearGradient>
    <linearGradient id="data2-gradient" x1="0%" y1="0%" x2="100%" y2="100%">
      <stop offset="0%" style="stop-color:#34d399;stop-opacity:1" />
      <stop offset="100%" style="stop-color:#10b981;stop-opacity:1" />
    </linearGradient>
    <linearGradient id="data3-gradient" x1="0%" y1="0%" x2="100%" y2="100%">
      <stop offset="0%" style="stop-color:#fbbf24;stop-opacity:1" />
      <stop offset="100%" style="stop-color:#f59e0b;stop-opacity:1" />
    </linearGradient>
    <linearGradient id="data4-gradient" x1="0%" y1="0%" x2="100%" y2="100%">
      <stop offset="0%" style="stop-color:#f87171;stop-opacity:1" />
      <stop offset="100%" style="stop-color:#ef4444;stop-opacity:1" />
    </linearGradient>
    <linearGradient id="bi-gradient" x1="0%" y1="0%" x2="100%" y2="100%">
      <stop offset="0%" style="stop-color:#93c5fd;stop-opacity:1" />
      <stop offset="100%" style="stop-color:#3b82f6;stop-opacity:1" />
    </linearGradient>
    <linearGradient id="predictive-gradient" x1="0%" y1="0%" x2="100%" y2="100%">
      <stop offset="0%" style="stop-color:#ddd6fe;stop-opacity:1" />
      <stop offset="100%" style="stop-color:#8b5cf6;stop-opacity:1" />
    </linearGradient>
    <linearGradient id="insights-gradient" x1="0%" y1="0%" x2="100%" y2="100%">
      <stop offset="0%" style="stop-color:#6ee7b7;stop-opacity:1" />
      <stop offset="100%" style="stop-color:#10b981;stop-opacity:1" />
    </linearGradient>
    <linearGradient id="ai-gradient" x1="0%" y1="0%" x2="100%" y2="100%">
      <stop offset="0%" style="stop-color:#c4b5fd;stop-opacity:1" />
      <stop offset="100%" style="stop-color:#7c3aed;stop-opacity:1" />
    </linearGradient>
    <linearGradient id="reporting-gradient" x1="0%" y1="0%" x2="100%" y2="100%">
      <stop offset="0%" style="stop-color:#34d399;stop-opacity:1" />
      <stop offset="100%" style="stop-color:#059669;stop-opacity:1" />
    </linearGradient>
    <linearGradient id="viz-gradient" x1="0%" y1="0%" x2="100%" y2="100%">
      <stop offset="0%" style="stop-color:#fed7aa;stop-opacity:1" />
      <stop offset="100%" style="stop-color:#f59e0b;stop-opacity:1" />
    </linearGradient>
    <linearGradient id="kpi-gradient" x1="0%" y1="0%" x2="100%" y2="100%">
      <stop offset="0%" style="stop-color:#fca5a5;stop-opacity:1" />
      <stop offset="100%" style="stop-color:#dc2626;stop-opacity:1" />
    </linearGradient>
    <linearGradient id="integration-gradient" x1="0%" y1="0%" x2="100%" y2="100%">
      <stop offset="0%" style="stop-color:#4ade80;stop-opacity:1" />
      <stop offset="100%" style="stop-color:#22c55e;stop-opacity:1" />
    </linearGradient>
    <linearGradient id="perf-gradient" x1="0%" y1="0%" x2="100%" y2="100%">
      <stop offset="0%" style="stop-color:#93c5fd;stop-opacity:1" />
      <stop offset="100%" style="stop-color:#3b82f6;stop-opacity:1" />
    </linearGradient>
    <linearGradient id="alert-gradient" x1="0%" y1="0%" x2="100%" y2="100%">
      <stop offset="0%" style="stop-color:#f87171;stop-opacity:1" />
      <stop offset="100%" style="stop-color:#ef4444;stop-opacity:1" />
    </linearGradient>
    <linearGradient id="security-gradient" x1="0%" y1="0%" x2="100%" y2="100%">
      <stop offset="0%" style="stop-color:#9ca3af;stop-opacity:1" />
      <stop offset="100%" style="stop-color:#6b7280;stop-opacity:1" />
    </linearGradient>
  </defs>
</svg>