<svg width="64" height="64" viewBox="0 0 64 64" fill="none" xmlns="http://www.w3.org/2000/svg">
  <!-- Background Circle -->
  <circle cx="32" cy="32" r="30" fill="url(#augmentos-gradient)" stroke="#1e40af" stroke-width="2"/>
  
  <!-- Browser Window Frame -->
  <rect x="8" y="16" width="48" height="36" rx="4" fill="#ffffff" stroke="#1e40af" stroke-width="2"/>
  
  <!-- Browser Top Bar -->
  <rect x="8" y="16" width="48" height="8" rx="4" fill="url(#browser-gradient)" stroke="#1e40af" stroke-width="2"/>
  <circle cx="14" cy="20" r="1.5" fill="#ef4444"/>
  <circle cx="18" cy="20" r="1.5" fill="#f59e0b"/>
  <circle cx="22" cy="20" r="1.5" fill="#22c55e"/>
  
  <!-- Address Bar -->
  <rect x="28" y="18" width="24" height="4" rx="2" fill="#f3f4f6" stroke="#9ca3af" stroke-width="0.5"/>
  <text x="40" y="21" text-anchor="middle" fill="#6b7280" font-family="Arial, sans-serif" font-size="3" font-weight="normal">augmentos.ai</text>
  
  <!-- AI Brain Center -->
  <circle cx="32" cy="36" r="8" fill="url(#ai-gradient)" stroke="#3b82f6" stroke-width="2"/>
  <circle cx="32" cy="36" r="5" fill="none" stroke="#ffffff" stroke-width="1.5"/>
  
  <!-- AI Eyes -->
  <circle cx="29" cy="34" r="1" fill="#ffffff"/>
  <circle cx="35" cy="34" r="1" fill="#ffffff"/>
  
  <!-- AI Neural Network -->
  <path d="M29 34 L32 38 L35 34" stroke="#ffffff" stroke-width="1.5" fill="none"/>
  <circle cx="32" cy="38" r="0.8" fill="#ffffff"/>
  
  <!-- Natural Language Input -->
  <rect x="12" y="46" width="16" height="4" rx="2" fill="url(#input-gradient)" stroke="#10b981" stroke-width="1"/>
  <text x="20" y="48.5" text-anchor="middle" fill="#ffffff" font-family="Arial, sans-serif" font-size="3" font-weight="bold">Say it</text>
  
  <!-- Automation Output -->
  <rect x="36" y="46" width="16" height="4" rx="2" fill="url(#output-gradient)" stroke="#8b5cf6" stroke-width="1"/>
  <text x="44" y="48.5" text-anchor="middle" fill="#ffffff" font-family="Arial, sans-serif" font-size="3" font-weight="bold">Done!</text>
  
  <!-- Privacy Shield -->
  <path d="M48 28 L52 26 L52 32 L48 34 Z" fill="url(#privacy-gradient)" stroke="#ef4444" stroke-width="1"/>
  <text x="50" y="30.5" text-anchor="middle" fill="#ffffff" font-family="Arial, sans-serif" font-size="2.5" font-weight="bold">🔒</text>
  
  <!-- Connection Lines -->
  <path d="M28 48 L24 44 M40 44 L36 48" stroke="#3b82f6" stroke-width="2" opacity="0.7"/>
  
  <!-- Enterprise Badge -->
  <rect x="8" y="8" width="20" height="6" rx="2" fill="url(#enterprise-gradient)" stroke="#1f2937" stroke-width="1"/>
  <text x="18" y="11.5" text-anchor="middle" fill="#ffffff" font-family="Arial, sans-serif" font-size="3" font-weight="bold">ENTERPRISE</text>
  
  <!-- Gradient Definitions -->
  <defs>
    <linearGradient id="augmentos-gradient" x1="0%" y1="0%" x2="100%" y2="100%">
      <stop offset="0%" style="stop-color:#dbeafe;stop-opacity:1" />
      <stop offset="50%" style="stop-color:#93c5fd;stop-opacity:1" />
      <stop offset="100%" style="stop-color:#3b82f6;stop-opacity:1" />
    </linearGradient>
    <linearGradient id="browser-gradient" x1="0%" y1="0%" x2="100%" y2="100%">
      <stop offset="0%" style="stop-color:#f3f4f6;stop-opacity:1" />
      <stop offset="100%" style="stop-color:#e5e7eb;stop-opacity:1" />
    </linearGradient>
    <linearGradient id="ai-gradient" x1="0%" y1="0%" x2="100%" y2="100%">
      <stop offset="0%" style="stop-color:#60a5fa;stop-opacity:1" />
      <stop offset="100%" style="stop-color:#3b82f6;stop-opacity:1" />
    </linearGradient>
    <linearGradient id="input-gradient" x1="0%" y1="0%" x2="100%" y2="100%">
      <stop offset="0%" style="stop-color:#34d399;stop-opacity:1" />
      <stop offset="100%" style="stop-color:#10b981;stop-opacity:1" />
    </linearGradient>
    <linearGradient id="output-gradient" x1="0%" y1="0%" x2="100%" y2="100%">
      <stop offset="0%" style="stop-color:#a78bfa;stop-opacity:1" />
      <stop offset="100%" style="stop-color:#8b5cf6;stop-opacity:1" />
    </linearGradient>
    <linearGradient id="privacy-gradient" x1="0%" y1="0%" x2="100%" y2="100%">
      <stop offset="0%" style="stop-color:#f87171;stop-opacity:1" />
      <stop offset="100%" style="stop-color:#ef4444;stop-opacity:1" />
    </linearGradient>
    <linearGradient id="enterprise-gradient" x1="0%" y1="0%" x2="100%" y2="100%">
      <stop offset="0%" style="stop-color:#4b5563;stop-opacity:1" />
      <stop offset="100%" style="stop-color:#1f2937;stop-opacity:1" />
    </linearGradient>
  </defs>
</svg>
