<svg width="64" height="64" viewBox="0 0 64 64" fill="none" xmlns="http://www.w3.org/2000/svg">
  <!-- Background Circle -->
  <circle cx="32" cy="32" r="30" fill="url(#govern-gradient)" stroke="#7c2d12" stroke-width="2"/>
  
  <!-- Governance Shield -->
  <path d="M32 12 L44 18 L44 32 C44 40 38 46 32 50 C26 46 20 40 20 32 L20 18 L32 12 Z" fill="#ffffff" fill-opacity="0.95" stroke="#ea580c" stroke-width="2"/>
  
  <!-- Cloud Center -->
  <path d="M26 34 C26 30 28 28 32 28 C34 26 36 26 38 28 C40 28 42 30 42 32 C42 34 40 34 38 34 L26 34 Z" fill="url(#cloud-gradient)" stroke="#dc2626" stroke-width="1"/>
  
  <!-- Policy Engine -->
  <circle cx="16" cy="16" r="4" fill="url(#policy-gradient)" stroke="#3b82f6" stroke-width="1.5"/>
  <text x="16" y="17" text-anchor="middle" fill="#ffffff" font-family="Arial, sans-serif" font-size="3" font-weight="bold">POL</text>
  
  <!-- Compliance -->
  <circle cx="48" cy="16" r="4" fill="url(#compliance-gradient)" stroke="#10b981" stroke-width="1.5"/>
  <text x="48" y="17" text-anchor="middle" fill="#ffffff" font-family="Arial, sans-serif" font-size="3" font-weight="bold">COMP</text>
  
  <!-- Audit -->
  <circle cx="16" cy="48" r="4" fill="url(#audit-gradient)" stroke="#f59e0b" stroke-width="1.5"/>
  <text x="16" y="49" text-anchor="middle" fill="#ffffff" font-family="Arial, sans-serif" font-size="3" font-weight="bold">AUDIT</text>
  
  <!-- Risk Management -->
  <circle cx="48" cy="48" r="4" fill="url(#risk-gradient)" stroke="#7c3aed" stroke-width="1.5"/>
  <text x="48" y="49" text-anchor="middle" fill="#ffffff" font-family="Arial, sans-serif" font-size="3" font-weight="bold">RISK</text>
  
  <!-- Cloud Governance -->
  <rect x="20" y="8" width="24" height="6" rx="2" fill="url(#cloud-gov-gradient)" stroke="#ea580c" stroke-width="1"/>
  <text x="32" y="12" text-anchor="middle" fill="#ffffff" font-family="Arial, sans-serif" font-size="4" font-weight="bold">CLOUD GOV</text>
  
  <!-- Control Framework -->
  <rect x="20" y="50" width="24" height="6" rx="2" fill="url(#control-gradient)" stroke="#059669" stroke-width="1"/>
  <text x="32" y="54" text-anchor="middle" fill="#ffffff" font-family="Arial, sans-serif" font-size="4" font-weight="bold">CONTROL</text>
  
  <!-- Governance Lines -->
  <path d="M20 16 L26 32 M38 32 L44 16 M20 48 L26 32 M38 32 L44 48" stroke="#ea580c" stroke-width="1.5" opacity="0.6"/>
  
  <!-- Security Badge -->
  <circle cx="8" cy="32" r="3" fill="url(#security-gradient)" stroke="#22c55e" stroke-width="1"/>
  <text x="8" y="33" text-anchor="middle" fill="#ffffff" font-family="Arial, sans-serif" font-size="3" font-weight="bold">🔒</text>
  
  <!-- Monitoring -->
  <circle cx="56" cy="32" r="3" fill="url(#monitor-gradient)" stroke="#ef4444" stroke-width="1"/>
  <text x="56" y="33" text-anchor="middle" fill="#ffffff" font-family="Arial, sans-serif" font-size="3" font-weight="bold">👁</text>
  
  <!-- Gradient Definitions -->
  <defs>
    <linearGradient id="govern-gradient" x1="0%" y1="0%" x2="100%" y2="100%">
      <stop offset="0%" style="stop-color:#fdba74;stop-opacity:1" />
      <stop offset="50%" style="stop-color:#ea580c;stop-opacity:1" />
      <stop offset="100%" style="stop-color:#dc2626;stop-opacity:1" />
    </linearGradient>
    <linearGradient id="cloud-gradient" x1="0%" y1="0%" x2="100%" y2="100%">
      <stop offset="0%" style="stop-color:#fed7aa;stop-opacity:1" />
      <stop offset="100%" style="stop-color:#ea580c;stop-opacity:1" />
    </linearGradient>
    <linearGradient id="policy-gradient" x1="0%" y1="0%" x2="100%" y2="100%">
      <stop offset="0%" style="stop-color:#60a5fa;stop-opacity:1" />
      <stop offset="100%" style="stop-color:#3b82f6;stop-opacity:1" />
    </linearGradient>
    <linearGradient id="compliance-gradient" x1="0%" y1="0%" x2="100%" y2="100%">
      <stop offset="0%" style="stop-color:#34d399;stop-opacity:1" />
      <stop offset="100%" style="stop-color:#10b981;stop-opacity:1" />
    </linearGradient>
    <linearGradient id="audit-gradient" x1="0%" y1="0%" x2="100%" y2="100%">
      <stop offset="0%" style="stop-color:#fbbf24;stop-opacity:1" />
      <stop offset="100%" style="stop-color:#f59e0b;stop-opacity:1" />
    </linearGradient>
    <linearGradient id="risk-gradient" x1="0%" y1="0%" x2="100%" y2="100%">
      <stop offset="0%" style="stop-color:#a78bfa;stop-opacity:1" />
      <stop offset="100%" style="stop-color:#7c3aed;stop-opacity:1" />
    </linearGradient>
    <linearGradient id="cloud-gov-gradient" x1="0%" y1="0%" x2="100%" y2="100%">
      <stop offset="0%" style="stop-color:#fed7aa;stop-opacity:1" />
      <stop offset="100%" style="stop-color:#ea580c;stop-opacity:1" />
    </linearGradient>
    <linearGradient id="control-gradient" x1="0%" y1="0%" x2="100%" y2="100%">
      <stop offset="0%" style="stop-color:#34d399;stop-opacity:1" />
      <stop offset="100%" style="stop-color:#059669;stop-opacity:1" />
    </linearGradient>
    <linearGradient id="security-gradient" x1="0%" y1="0%" x2="100%" y2="100%">
      <stop offset="0%" style="stop-color:#4ade80;stop-opacity:1" />
      <stop offset="100%" style="stop-color:#22c55e;stop-opacity:1" />
    </linearGradient>
    <linearGradient id="monitor-gradient" x1="0%" y1="0%" x2="100%" y2="100%">
      <stop offset="0%" style="stop-color:#f87171;stop-opacity:1" />
      <stop offset="100%" style="stop-color:#ef4444;stop-opacity:1" />
    </linearGradient>
  </defs>
</svg>