<svg width="64" height="64" viewBox="0 0 64 64" fill="none" xmlns="http://www.w3.org/2000/svg">
  <!-- Background Circle -->
  <circle cx="32" cy="32" r="30" fill="url(#container-gradient)" stroke="#0c4a6e" stroke-width="2"/>
  
  <!-- Container Hub -->
  <rect x="24" y="24" width="16" height="16" rx="3" fill="#ffffff" fill-opacity="0.95" stroke="#0ea5e9" stroke-width="2"/>
  <circle cx="32" cy="32" r="4" fill="url(#hub-gradient)" stroke="#0284c7" stroke-width="1"/>
  <text x="32" y="34" text-anchor="middle" fill="#ffffff" font-family="Arial, sans-serif" font-size="3" font-weight="bold">K8S</text>
  
  <!-- Container Pods -->
  <rect x="8" y="16" width="8" height="6" rx="1" fill="url(#pod1-gradient)" stroke="#10b981" stroke-width="1"/>
  <circle cx="10" cy="18" r="0.5" fill="#ffffff"/>
  <circle cx="12" cy="18" r="0.5" fill="#ffffff"/>
  <circle cx="14" cy="18" r="0.5" fill="#ffffff"/>
  
  <rect x="48" y="16" width="8" height="6" rx="1" fill="url(#pod2-gradient)" stroke="#f59e0b" stroke-width="1"/>
  <circle cx="50" cy="18" r="0.5" fill="#ffffff"/>
  <circle cx="52" cy="18" r="0.5" fill="#ffffff"/>
  <circle cx="54" cy="18" r="0.5" fill="#ffffff"/>
  
  <rect x="8" y="42" width="8" height="6" rx="1" fill="url(#pod3-gradient)" stroke="#7c3aed" stroke-width="1"/>
  <circle cx="10" cy="44" r="0.5" fill="#ffffff"/>
  <circle cx="12" cy="44" r="0.5" fill="#ffffff"/>
  <circle cx="14" cy="44" r="0.5" fill="#ffffff"/>
  
  <rect x="48" y="42" width="8" height="6" rx="1" fill="url(#pod4-gradient)" stroke="#ef4444" stroke-width="1"/>
  <circle cx="50" cy="44" r="0.5" fill="#ffffff"/>
  <circle cx="52" cy="44" r="0.5" fill="#ffffff"/>
  <circle cx="54" cy="44" r="0.5" fill="#ffffff"/>
  
  <!-- Kubernetes -->
  <rect x="20" y="8" width="24" height="6" rx="2" fill="url(#k8s-gradient)" stroke="#0ea5e9" stroke-width="1"/>
  <text x="32" y="12" text-anchor="middle" fill="#ffffff" font-family="Arial, sans-serif" font-size="4" font-weight="bold">KUBERNETES</text>
  
  <!-- Microservices -->
  <rect x="20" y="50" width="24" height="6" rx="2" fill="url(#micro-gradient)" stroke="#059669" stroke-width="1"/>
  <text x="32" y="54" text-anchor="middle" fill="#ffffff" font-family="Arial, sans-serif" font-size="4" font-weight="bold">MICROSERVICES</text>
  
  <!-- Orchestration Lines -->
  <path d="M16 19 L24 32 M40 32 L48 19 M16 45 L24 32 M40 32 L48 45" stroke="#0ea5e9" stroke-width="1.5" opacity="0.6"/>
  
  <!-- Docker -->
  <circle cx="8" cy="32" r="3" fill="url(#docker-gradient)" stroke="#22c55e" stroke-width="1"/>
  <text x="8" y="33" text-anchor="middle" fill="#ffffff" font-family="Arial, sans-serif" font-size="3" font-weight="bold">🐳</text>
  
  <!-- Scaling -->
  <circle cx="56" cy="32" r="3" fill="url(#scale-gradient)" stroke="#f59e0b" stroke-width="1"/>
  <text x="56" y="33" text-anchor="middle" fill="#ffffff" font-family="Arial, sans-serif" font-size="3" font-weight="bold">∞</text>
  
  <!-- Gradient Definitions -->
  <defs>
    <linearGradient id="container-gradient" x1="0%" y1="0%" x2="100%" y2="100%">
      <stop offset="0%" style="stop-color:#38bdf8;stop-opacity:1" />
      <stop offset="50%" style="stop-color:#0ea5e9;stop-opacity:1" />
      <stop offset="100%" style="stop-color:#0284c7;stop-opacity:1" />
    </linearGradient>
    <linearGradient id="hub-gradient" x1="0%" y1="0%" x2="100%" y2="100%">
      <stop offset="0%" style="stop-color:#7dd3fc;stop-opacity:1" />
      <stop offset="100%" style="stop-color:#0ea5e9;stop-opacity:1" />
    </linearGradient>
    <linearGradient id="pod1-gradient" x1="0%" y1="0%" x2="100%" y2="100%">
      <stop offset="0%" style="stop-color:#34d399;stop-opacity:1" />
      <stop offset="100%" style="stop-color:#10b981;stop-opacity:1" />
    </linearGradient>
    <linearGradient id="pod2-gradient" x1="0%" y1="0%" x2="100%" y2="100%">
      <stop offset="0%" style="stop-color:#fbbf24;stop-opacity:1" />
      <stop offset="100%" style="stop-color:#f59e0b;stop-opacity:1" />
    </linearGradient>
    <linearGradient id="pod3-gradient" x1="0%" y1="0%" x2="100%" y2="100%">
      <stop offset="0%" style="stop-color:#a78bfa;stop-opacity:1" />
      <stop offset="100%" style="stop-color:#7c3aed;stop-opacity:1" />
    </linearGradient>
    <linearGradient id="pod4-gradient" x1="0%" y1="0%" x2="100%" y2="100%">
      <stop offset="0%" style="stop-color:#f87171;stop-opacity:1" />
      <stop offset="100%" style="stop-color:#ef4444;stop-opacity:1" />
    </linearGradient>
    <linearGradient id="k8s-gradient" x1="0%" y1="0%" x2="100%" y2="100%">
      <stop offset="0%" style="stop-color:#7dd3fc;stop-opacity:1" />
      <stop offset="100%" style="stop-color:#0ea5e9;stop-opacity:1" />
    </linearGradient>
    <linearGradient id="micro-gradient" x1="0%" y1="0%" x2="100%" y2="100%">
      <stop offset="0%" style="stop-color:#34d399;stop-opacity:1" />
      <stop offset="100%" style="stop-color:#059669;stop-opacity:1" />
    </linearGradient>
    <linearGradient id="docker-gradient" x1="0%" y1="0%" x2="100%" y2="100%">
      <stop offset="0%" style="stop-color:#4ade80;stop-opacity:1" />
      <stop offset="100%" style="stop-color:#22c55e;stop-opacity:1" />
    </linearGradient>
    <linearGradient id="scale-gradient" x1="0%" y1="0%" x2="100%" y2="100%">
      <stop offset="0%" style="stop-color:#fbbf24;stop-opacity:1" />
      <stop offset="100%" style="stop-color:#f59e0b;stop-opacity:1" />
    </linearGradient>
  </defs>
</svg>