<svg width="64" height="64" viewBox="0 0 64 64" fill="none" xmlns="http://www.w3.org/2000/svg">
  <!-- Background Circle -->
  <circle cx="32" cy="32" r="30" fill="url(#guard-gradient)" stroke="#065f46" stroke-width="2"/>
  
  <!-- Data Guard Shield -->
  <path d="M32 12 L44 18 L44 32 C44 40 38 46 32 50 C26 46 20 40 20 32 L20 18 L32 12 Z" fill="#ffffff" fill-opacity="0.95" stroke="#10b981" stroke-width="2"/>
  
  <!-- Data Core -->
  <circle cx="32" cy="32" r="6" fill="url(#data-gradient)" stroke="#059669" stroke-width="1"/>
  <rect x="29" y="29" width="6" height="6" rx="1" fill="#ffffff" opacity="0.9"/>
  <path d="M30 31 L34 31 M30 33 L34 33" stroke="#059669" stroke-width="0.8"/>
  
  <!-- Backup Systems -->
  <circle cx="16" cy="16" r="4" fill="url(#backup-gradient)" stroke="#3b82f6" stroke-width="1.5"/>
  <text x="16" y="17" text-anchor="middle" fill="#ffffff" font-family="Arial, sans-serif" font-size="3" font-weight="bold">BAK</text>
  
  <!-- Encryption -->
  <circle cx="48" cy="16" r="4" fill="url(#encrypt-gradient)" stroke="#7c3aed" stroke-width="1.5"/>
  <text x="48" y="17" text-anchor="middle" fill="#ffffff" font-family="Arial, sans-serif" font-size="3" font-weight="bold">ENC</text>
  
  <!-- Monitoring -->
  <circle cx="16" cy="48" r="4" fill="url(#monitor-gradient)" stroke="#f59e0b" stroke-width="1.5"/>
  <text x="16" y="49" text-anchor="middle" fill="#ffffff" font-family="Arial, sans-serif" font-size="3" font-weight="bold">MON</text>
  
  <!-- Recovery -->
  <circle cx="48" cy="48" r="4" fill="url(#recovery-gradient)" stroke="#ef4444" stroke-width="1.5"/>
  <text x="48" y="49" text-anchor="middle" fill="#ffffff" font-family="Arial, sans-serif" font-size="3" font-weight="bold">REC</text>
  
  <!-- Data Protection -->
  <rect x="20" y="8" width="24" height="6" rx="2" fill="url(#protection-gradient)" stroke="#10b981" stroke-width="1"/>
  <text x="32" y="12" text-anchor="middle" fill="#ffffff" font-family="Arial, sans-serif" font-size="4" font-weight="bold">DATA GUARD</text>
  
  <!-- Security -->
  <rect x="20" y="50" width="24" height="6" rx="2" fill="url(#security-gradient)" stroke="#059669" stroke-width="1"/>
  <text x="32" y="54" text-anchor="middle" fill="#ffffff" font-family="Arial, sans-serif" font-size="4" font-weight="bold">SECURE</text>
  
  <!-- Connection Lines -->
  <path d="M20 16 L26 32 M38 32 L44 16 M20 48 L26 32 M38 32 L44 48" stroke="#10b981" stroke-width="1.5" opacity="0.6"/>
  
  <!-- Access Control -->
  <circle cx="8" cy="32" r="3" fill="url(#access-gradient)" stroke="#22c55e" stroke-width="1"/>
  <text x="8" y="33" text-anchor="middle" fill="#ffffff" font-family="Arial, sans-serif" font-size="3" font-weight="bold">🔐</text>
  
  <!-- Real-time Protection -->
  <circle cx="56" cy="32" r="3" fill="url(#realtime-gradient)" stroke="#16a34a" stroke-width="1"/>
  <text x="56" y="33" text-anchor="middle" fill="#ffffff" font-family="Arial, sans-serif" font-size="3" font-weight="bold">⚡</text>
  
  <!-- Gradient Definitions -->
  <defs>
    <linearGradient id="guard-gradient" x1="0%" y1="0%" x2="100%" y2="100%">
      <stop offset="0%" style="stop-color:#34d399;stop-opacity:1" />
      <stop offset="50%" style="stop-color:#10b981;stop-opacity:1" />
      <stop offset="100%" style="stop-color:#059669;stop-opacity:1" />
    </linearGradient>
    <linearGradient id="data-gradient" x1="0%" y1="0%" x2="100%" y2="100%">
      <stop offset="0%" style="stop-color:#6ee7b7;stop-opacity:1" />
      <stop offset="100%" style="stop-color:#10b981;stop-opacity:1" />
    </linearGradient>
    <linearGradient id="backup-gradient" x1="0%" y1="0%" x2="100%" y2="100%">
      <stop offset="0%" style="stop-color:#60a5fa;stop-opacity:1" />
      <stop offset="100%" style="stop-color:#3b82f6;stop-opacity:1" />
    </linearGradient>
    <linearGradient id="encrypt-gradient" x1="0%" y1="0%" x2="100%" y2="100%">
      <stop offset="0%" style="stop-color:#a78bfa;stop-opacity:1" />
      <stop offset="100%" style="stop-color:#7c3aed;stop-opacity:1" />
    </linearGradient>
    <linearGradient id="monitor-gradient" x1="0%" y1="0%" x2="100%" y2="100%">
      <stop offset="0%" style="stop-color:#fbbf24;stop-opacity:1" />
      <stop offset="100%" style="stop-color:#f59e0b;stop-opacity:1" />
    </linearGradient>
    <linearGradient id="recovery-gradient" x1="0%" y1="0%" x2="100%" y2="100%">
      <stop offset="0%" style="stop-color:#f87171;stop-opacity:1" />
      <stop offset="100%" style="stop-color:#ef4444;stop-opacity:1" />
    </linearGradient>
    <linearGradient id="protection-gradient" x1="0%" y1="0%" x2="100%" y2="100%">
      <stop offset="0%" style="stop-color:#6ee7b7;stop-opacity:1" />
      <stop offset="100%" style="stop-color:#10b981;stop-opacity:1" />
    </linearGradient>
    <linearGradient id="security-gradient" x1="0%" y1="0%" x2="100%" y2="100%">
      <stop offset="0%" style="stop-color:#34d399;stop-opacity:1" />
      <stop offset="100%" style="stop-color:#059669;stop-opacity:1" />
    </linearGradient>
    <linearGradient id="access-gradient" x1="0%" y1="0%" x2="100%" y2="100%">
      <stop offset="0%" style="stop-color:#4ade80;stop-opacity:1" />
      <stop offset="100%" style="stop-color:#22c55e;stop-opacity:1" />
    </linearGradient>
    <linearGradient id="realtime-gradient" x1="0%" y1="0%" x2="100%" y2="100%">
      <stop offset="0%" style="stop-color:#22c55e;stop-opacity:1" />
      <stop offset="100%" style="stop-color:#16a34a;stop-opacity:1" />
    </linearGradient>
  </defs>
</svg>