<svg width="64" height="64" viewBox="0 0 64 64" fill="none" xmlns="http://www.w3.org/2000/svg">
  <!-- Background Circle -->
  <circle cx="32" cy="32" r="30" fill="url(#performance-gradient)" stroke="#581c87" stroke-width="2"/>
  
  <!-- Main Dashboard -->
  <rect x="12" y="16" width="40" height="32" rx="4" fill="#ffffff" fill-opacity="0.95" stroke="#7c3aed" stroke-width="1.5"/>
  
  <!-- Header -->
  <rect x="12" y="16" width="40" height="6" rx="4" fill="url(#header-gradient)"/>
  <rect x="12" y="18" width="40" height="4" fill="#6d28d9"/>
  
  <!-- KPI Gauges -->
  <circle cx="22" cy="28" r="6" fill="url(#gauge1-gradient)" stroke="#7c3aed" stroke-width="1.5"/>
  <circle cx="42" cy="28" r="6" fill="url(#gauge2-gradient)" stroke="#a855f7" stroke-width="1.5"/>
  
  <!-- Gauge Indicators -->
  <path d="M22 22 A6 6 0 0 1 28 28" stroke="#ffffff" stroke-width="2" fill="none"/>
  <path d="M42 22 A6 6 0 0 1 48 28" stroke="#ffffff" stroke-width="2" fill="none"/>
  <circle cx="22" cy="28" r="2" fill="#ffffff"/>
  <circle cx="42" cy="28" r="2" fill="#ffffff"/>
  
  <!-- Performance Chart -->
  <rect x="16" y="38" width="32" height="8" rx="2" fill="url(#chart-gradient)" stroke="#8b5cf6" stroke-width="1"/>
  
  <!-- Chart Lines -->
  <path d="M18 44 L22 40 L26 42 L30 38 L34 40 L38 36 L42 38 L46 34" stroke="#ffffff" stroke-width="2" stroke-linecap="round" fill="none"/>
  <circle cx="18" cy="44" r="1" fill="#ffffff"/>
  <circle cx="22" cy="40" r="1" fill="#ffffff"/>
  <circle cx="26" cy="42" r="1" fill="#ffffff"/>
  <circle cx="30" cy="38" r="1" fill="#ffffff"/>
  <circle cx="34" cy="40" r="1" fill="#ffffff"/>
  <circle cx="38" cy="36" r="1" fill="#ffffff"/>
  <circle cx="42" cy="38" r="1" fill="#ffffff"/>
  <circle cx="46" cy="34" r="1" fill="#ffffff"/>
  
  <!-- Strategic Planning Board -->
  <rect x="50" y="20" width="8" height="16" rx="2" fill="url(#planning-gradient)" stroke="#7c3aed" stroke-width="1"/>
  
  <!-- Planning Items -->
  <rect x="51" y="22" width="6" height="2" rx="0.5" fill="#ffffff" opacity="0.9"/>
  <rect x="51" y="25" width="6" height="2" rx="0.5" fill="#ffffff" opacity="0.9"/>
  <rect x="51" y="28" width="6" height="2" rx="0.5" fill="#ffffff" opacity="0.9"/>
  <rect x="51" y="31" width="6" height="2" rx="0.5" fill="#ffffff" opacity="0.9"/>
  <rect x="51" y="34" width="6" height="2" rx="0.5" fill="#ffffff" opacity="0.9"/>
  
  <!-- Budget Analytics -->
  <circle cx="8" cy="32" r="4" fill="url(#budget-gradient)" stroke="#7c3aed" stroke-width="1.5"/>
  <path d="M6 30 L8 32 L10 30 M6 34 L10 34" stroke="#ffffff" stroke-width="1" stroke-linecap="round"/>
  <text x="8" y="33" text-anchor="middle" fill="#ffffff" font-family="Arial, sans-serif" font-size="6" font-weight="bold">$</text>
  
  <!-- Forecasting Crystal Ball -->
  <circle cx="8" cy="48" r="4" fill="url(#forecast-gradient)" stroke="#a855f7" stroke-width="1.5"/>
  <circle cx="8" cy="48" r="2" fill="#ffffff" opacity="0.3"/>
  <path d="M6 46 L10 50 M10 46 L6 50" stroke="#ffffff" stroke-width="1" opacity="0.7"/>
  
  <!-- Performance Targets -->
  <circle cx="56" cy="44" r="4" fill="url(#target-gradient)" stroke="#7c3aed" stroke-width="1.5"/>
  <circle cx="56" cy="44" r="3" fill="none" stroke="#ffffff" stroke-width="1"/>
  <circle cx="56" cy="44" r="2" fill="none" stroke="#ffffff" stroke-width="1"/>
  <circle cx="56" cy="44" r="1" fill="#ffffff"/>
  
  <!-- Analytics Connections -->
  <path d="M16 28 L50 28 M22 34 L42 34 M32 22 L32 38" stroke="#7c3aed" stroke-width="1" opacity="0.5" stroke-dasharray="2,2"/>
  
  <!-- Growth Arrow -->
  <path d="M28 10 L32 6 L36 10 M32 6 L32 14" stroke="#8b5cf6" stroke-width="2" stroke-linecap="round"/>
  
  <!-- Excellence Badge -->
  <circle cx="32" cy="54" r="4" fill="url(#excellence-gradient)" stroke="#7c3aed" stroke-width="1.5"/>
  <path d="M30 52 L31 54 L34 54 L32 56 L33 58 L30 56 L29 58 L30 56 L28 54 L31 54 Z" fill="#ffffff"/>
  
  <!-- Gradient Definitions -->
  <defs>
    <linearGradient id="performance-gradient" x1="0%" y1="0%" x2="100%" y2="100%">
      <stop offset="0%" style="stop-color:#8b5cf6;stop-opacity:1" />
      <stop offset="50%" style="stop-color:#7c3aed;stop-opacity:1" />
      <stop offset="100%" style="stop-color:#6d28d9;stop-opacity:1" />
    </linearGradient>
    <linearGradient id="header-gradient" x1="0%" y1="0%" x2="100%" y2="0%">
      <stop offset="0%" style="stop-color:#6d28d9;stop-opacity:1" />
      <stop offset="100%" style="stop-color:#7c3aed;stop-opacity:1" />
    </linearGradient>
    <linearGradient id="gauge1-gradient" x1="0%" y1="0%" x2="100%" y2="100%">
      <stop offset="0%" style="stop-color:#c4b5fd;stop-opacity:1" />
      <stop offset="100%" style="stop-color:#7c3aed;stop-opacity:1" />
    </linearGradient>
    <linearGradient id="gauge2-gradient" x1="0%" y1="0%" x2="100%" y2="100%">
      <stop offset="0%" style="stop-color:#ddd6fe;stop-opacity:1" />
      <stop offset="100%" style="stop-color:#a855f7;stop-opacity:1" />
    </linearGradient>
    <linearGradient id="chart-gradient" x1="0%" y1="0%" x2="100%" y2="100%">
      <stop offset="0%" style="stop-color:#c4b5fd;stop-opacity:0.9" />
      <stop offset="100%" style="stop-color:#8b5cf6;stop-opacity:0.9" />
    </linearGradient>
    <linearGradient id="planning-gradient" x1="0%" y1="0%" x2="100%" y2="100%">
      <stop offset="0%" style="stop-color:#a78bfa;stop-opacity:1" />
      <stop offset="100%" style="stop-color:#7c3aed;stop-opacity:1" />
    </linearGradient>
    <linearGradient id="budget-gradient" x1="0%" y1="0%" x2="100%" y2="100%">
      <stop offset="0%" style="stop-color:#a78bfa;stop-opacity:1" />
      <stop offset="100%" style="stop-color:#7c3aed;stop-opacity:1" />
    </linearGradient>
    <linearGradient id="forecast-gradient" x1="0%" y1="0%" x2="100%" y2="100%">
      <stop offset="0%" style="stop-color:#c4b5fd;stop-opacity:1" />
      <stop offset="100%" style="stop-color:#a855f7;stop-opacity:1" />
    </linearGradient>
    <linearGradient id="target-gradient" x1="0%" y1="0%" x2="100%" y2="100%">
      <stop offset="0%" style="stop-color:#a78bfa;stop-opacity:1" />
      <stop offset="100%" style="stop-color:#7c3aed;stop-opacity:1" />
    </linearGradient>
    <linearGradient id="excellence-gradient" x1="0%" y1="0%" x2="100%" y2="100%">
      <stop offset="0%" style="stop-color:#ddd6fe;stop-opacity:1" />
      <stop offset="100%" style="stop-color:#8b5cf6;stop-opacity:1" />
    </linearGradient>
  </defs>
</svg>