<svg width="64" height="64" viewBox="0 0 64 64" fill="none" xmlns="http://www.w3.org/2000/svg">
  <!-- Background Circle -->
  <circle cx="32" cy="32" r="30" fill="url(#erp-gradient)" stroke="#1e40af" stroke-width="2"/>
  
  <!-- Main Dashboard Rectangle -->
  <rect x="12" y="16" width="40" height="32" rx="6" fill="#ffffff" fill-opacity="0.95" stroke="#3b82f6" stroke-width="1.5"/>
  
  <!-- Header Bar -->
  <rect x="12" y="16" width="40" height="8" rx="6" fill="url(#header-gradient)"/>
  <rect x="12" y="20" width="40" height="4" fill="#1e40af"/>
  
  <!-- Dashboard Grid -->
  <rect x="16" y="28" width="12" height="8" rx="2" fill="url(#widget1-gradient)" stroke="#3b82f6" stroke-width="1"/>
  <rect x="32" y="28" width="12" height="8" rx="2" fill="url(#widget2-gradient)" stroke="#059669" stroke-width="1"/>
  <rect x="48" y="28" width="8" height="8" rx="2" fill="url(#widget3-gradient)" stroke="#dc2626" stroke-width="1"/>
  
  <!-- Chart Elements -->
  <path d="M18 34 L22 30 L26 32 L30 28" stroke="#ffffff" stroke-width="2" stroke-linecap="round" fill="none"/>
  <circle cx="18" cy="34" r="1.5" fill="#ffffff"/>
  <circle cx="22" cy="30" r="1.5" fill="#ffffff"/>
  <circle cx="26" cy="32" r="1.5" fill="#ffffff"/>
  <circle cx="30" cy="28" r="1.5" fill="#ffffff"/>
  
  <!-- Bar Chart in second widget -->
  <rect x="34" y="32" width="2" height="3" fill="#ffffff" opacity="0.9"/>
  <rect x="37" y="30" width="2" height="5" fill="#ffffff" opacity="0.9"/>
  <rect x="40" y="29" width="2" height="6" fill="#ffffff" opacity="0.9"/>
  
  <!-- Performance indicators -->
  <circle cx="52" cy="32" r="2" fill="#ffffff"/>
  <path d="M50.5 32 L52 30.5 L53.5 32" stroke="#dc2626" stroke-width="1.2" stroke-linecap="round" fill="none"/>
  
  <!-- Bottom Section Modules -->
  <rect x="16" y="40" width="8" height="6" rx="2" fill="url(#module1-gradient)" stroke="#7c3aed" stroke-width="1"/>
  <rect x="26" y="40" width="8" height="6" rx="2" fill="url(#module2-gradient)" stroke="#f59e0b" stroke-width="1"/>
  <rect x="36" y="40" width="8" height="6" rx="2" fill="url(#module3-gradient)" stroke="#10b981" stroke-width="1"/>
  <rect x="46" y="40" width="8" height="6" rx="2" fill="url(#module4-gradient)" stroke="#ef4444" stroke-width="1"/>
  
  <!-- Module Icons -->
  <circle cx="20" cy="43" r="1" fill="#ffffff"/>
  <circle cx="30" cy="43" r="1" fill="#ffffff"/>
  <circle cx="40" cy="43" r="1" fill="#ffffff"/>
  <circle cx="50" cy="43" r="1" fill="#ffffff"/>
  
  <!-- Connection Lines -->
  <path d="M20 38 L20 40 M30 38 L30 40 M40 38 L40 40 M50 38 L50 40" stroke="#3b82f6" stroke-width="1" opacity="0.6"/>
  
  <!-- Gradient Definitions -->
  <defs>
    <linearGradient id="erp-gradient" x1="0%" y1="0%" x2="100%" y2="100%">
      <stop offset="0%" style="stop-color:#3b82f6;stop-opacity:1" />
      <stop offset="50%" style="stop-color:#1e40af;stop-opacity:1" />
      <stop offset="100%" style="stop-color:#1e3a8a;stop-opacity:1" />
    </linearGradient>
    <linearGradient id="header-gradient" x1="0%" y1="0%" x2="100%" y2="0%">
      <stop offset="0%" style="stop-color:#1e40af;stop-opacity:1" />
      <stop offset="100%" style="stop-color:#3b82f6;stop-opacity:1" />
    </linearGradient>
    <linearGradient id="widget1-gradient" x1="0%" y1="0%" x2="100%" y2="100%">
      <stop offset="0%" style="stop-color:#60a5fa;stop-opacity:1" />
      <stop offset="100%" style="stop-color:#3b82f6;stop-opacity:1" />
    </linearGradient>
    <linearGradient id="widget2-gradient" x1="0%" y1="0%" x2="100%" y2="100%">
      <stop offset="0%" style="stop-color:#34d399;stop-opacity:1" />
      <stop offset="100%" style="stop-color:#059669;stop-opacity:1" />
    </linearGradient>
    <linearGradient id="widget3-gradient" x1="0%" y1="0%" x2="100%" y2="100%">
      <stop offset="0%" style="stop-color:#f87171;stop-opacity:1" />
      <stop offset="100%" style="stop-color:#dc2626;stop-opacity:1" />
    </linearGradient>
    <linearGradient id="module1-gradient" x1="0%" y1="0%" x2="100%" y2="100%">
      <stop offset="0%" style="stop-color:#a78bfa;stop-opacity:1" />
      <stop offset="100%" style="stop-color:#7c3aed;stop-opacity:1" />
    </linearGradient>
    <linearGradient id="module2-gradient" x1="0%" y1="0%" x2="100%" y2="100%">
      <stop offset="0%" style="stop-color:#fbbf24;stop-opacity:1" />
      <stop offset="100%" style="stop-color:#f59e0b;stop-opacity:1" />
    </linearGradient>
    <linearGradient id="module3-gradient" x1="0%" y1="0%" x2="100%" y2="100%">
      <stop offset="0%" style="stop-color:#34d399;stop-opacity:1" />
      <stop offset="100%" style="stop-color:#10b981;stop-opacity:1" />
    </linearGradient>
    <linearGradient id="module4-gradient" x1="0%" y1="0%" x2="100%" y2="100%">
      <stop offset="0%" style="stop-color:#f87171;stop-opacity:1" />
      <stop offset="100%" style="stop-color:#ef4444;stop-opacity:1" />
    </linearGradient>
  </defs>
</svg>