<svg width="64" height="64" viewBox="0 0 64 64" fill="none" xmlns="http://www.w3.org/2000/svg">
  <!-- Background Circle -->
  <circle cx="32" cy="32" r="30" fill="url(#finance-ai-gradient)" stroke="#065f46" stroke-width="2"/>
  
  <!-- AI Finance Core -->
  <circle cx="32" cy="32" r="8" fill="#ffffff" fill-opacity="0.95" stroke="#10b981" stroke-width="2"/>
  <circle cx="32" cy="32" r="5" fill="url(#ai-finance-gradient)" stroke="#059669" stroke-width="1"/>
  <text x="32" y="31" text-anchor="middle" fill="#ffffff" font-family="Arial, sans-serif" font-size="3" font-weight="bold">AI</text>
  <text x="32" y="35" text-anchor="middle" fill="#ffffff" font-family="Arial, sans-serif" font-size="4" font-weight="bold">$</text>
  
  <!-- Receipt Scanner -->
  <rect x="8" y="16" width="8" height="8" rx="2" fill="url(#receipt-gradient)" stroke="#3b82f6" stroke-width="1.5"/>
  <path d="M10 18 L14 18 M10 20 L14 20 M10 22 L12 22" stroke="#ffffff" stroke-width="0.8"/>
  <circle cx="13" cy="22" r="0.5" fill="#ffffff"/>
  
  <!-- Budget Management -->
  <rect x="48" y="16" width="8" height="8" rx="2" fill="url(#budget-gradient)" stroke="#7c3aed" stroke-width="1.5"/>
  <path d="M50 19 L52 17 L54 18 L56 16" stroke="#ffffff" stroke-width="1.2" stroke-linecap="round" fill="none"/>
  <circle cx="50" cy="19" r="0.5" fill="#ffffff"/>
  <circle cx="52" cy="17" r="0.5" fill="#ffffff"/>
  <circle cx="54" cy="18" r="0.5" fill="#ffffff"/>
  <circle cx="56" cy="16" r="0.5" fill="#ffffff"/>
  
  <!-- Expense Tracking -->
  <rect x="8" y="40" width="8" height="8" rx="2" fill="url(#expense-gradient)" stroke="#f59e0b" stroke-width="1.5"/>
  <circle cx="10" cy="42" r="0.8" fill="#ffffff"/>
  <circle cx="12" cy="44" r="0.8" fill="#ffffff"/>
  <circle cx="14" cy="46" r="0.8" fill="#ffffff"/>
  <path d="M9 44 L15 44" stroke="#ffffff" stroke-width="1"/>
  
  <!-- Insights Engine -->
  <rect x="48" y="40" width="8" height="8" rx="2" fill="url(#insights-gradient)" stroke="#ef4444" stroke-width="1.5"/>
  <path d="M50 44 L52 42 L54 43 L56 41" stroke="#ffffff" stroke-width="1.2" stroke-linecap="round" fill="none"/>
  <path d="M52 42 L54 43 L56 41 L58 42" stroke="#fca5a5" stroke-width="1" stroke-linecap="round" fill="none" stroke-dasharray="1,1"/>
  
  <!-- Personal Finance Assistant -->
  <rect x="20" y="8" width="24" height="6" rx="2" fill="url(#assistant-gradient)" stroke="#10b981" stroke-width="1"/>
  <text x="32" y="12" text-anchor="middle" fill="#ffffff" font-family="Arial, sans-serif" font-size="4" font-weight="bold">NEVER SLEEPS</text>
  
  <!-- Financial Analytics -->
  <rect x="20" y="50" width="24" height="6" rx="2" fill="url(#analytics-gradient)" stroke="#059669" stroke-width="1"/>
  <text x="32" y="54" text-anchor="middle" fill="#ffffff" font-family="Arial, sans-serif" font-size="4" font-weight="bold">AI INSIGHTS</text>
  
  <!-- Connection Lines -->
  <path d="M16 20 L24 32 M40 32 L48 20 M16 44 L24 32 M40 32 L48 44" stroke="#10b981" stroke-width="1.5" opacity="0.6"/>
  
  <!-- Money Flow Particles -->
  <circle cx="18" cy="28" r="1" fill="#34d399" opacity="0.8"/>
  <circle cx="46" cy="36" r="1" fill="#fbbf24" opacity="0.8"/>
  <circle cx="22" cy="40" r="1" fill="#60a5fa" opacity="0.8"/>
  <circle cx="42" cy="24" r="1" fill="#c4b5fd" opacity="0.8"/>
  
  <!-- Gradient Definitions -->
  <defs>
    <linearGradient id="finance-ai-gradient" x1="0%" y1="0%" x2="100%" y2="100%">
      <stop offset="0%" style="stop-color:#34d399;stop-opacity:1" />
      <stop offset="50%" style="stop-color:#10b981;stop-opacity:1" />
      <stop offset="100%" style="stop-color:#059669;stop-opacity:1" />
    </linearGradient>
    <linearGradient id="ai-finance-gradient" x1="0%" y1="0%" x2="100%" y2="100%">
      <stop offset="0%" style="stop-color:#6ee7b7;stop-opacity:1" />
      <stop offset="100%" style="stop-color:#10b981;stop-opacity:1" />
    </linearGradient>
    <linearGradient id="receipt-gradient" x1="0%" y1="0%" x2="100%" y2="100%">
      <stop offset="0%" style="stop-color:#60a5fa;stop-opacity:1" />
      <stop offset="100%" style="stop-color:#3b82f6;stop-opacity:1" />
    </linearGradient>
    <linearGradient id="budget-gradient" x1="0%" y1="0%" x2="100%" y2="100%">
      <stop offset="0%" style="stop-color:#a78bfa;stop-opacity:1" />
      <stop offset="100%" style="stop-color:#7c3aed;stop-opacity:1" />
    </linearGradient>
    <linearGradient id="expense-gradient" x1="0%" y1="0%" x2="100%" y2="100%">
      <stop offset="0%" style="stop-color:#fbbf24;stop-opacity:1" />
      <stop offset="100%" style="stop-color:#f59e0b;stop-opacity:1" />
    </linearGradient>
    <linearGradient id="insights-gradient" x1="0%" y1="0%" x2="100%" y2="100%">
      <stop offset="0%" style="stop-color:#f87171;stop-opacity:1" />
      <stop offset="100%" style="stop-color:#ef4444;stop-opacity:1" />
    </linearGradient>
    <linearGradient id="assistant-gradient" x1="0%" y1="0%" x2="100%" y2="100%">
      <stop offset="0%" style="stop-color:#6ee7b7;stop-opacity:1" />
      <stop offset="100%" style="stop-color:#10b981;stop-opacity:1" />
    </linearGradient>
    <linearGradient id="analytics-gradient" x1="0%" y1="0%" x2="100%" y2="100%">
      <stop offset="0%" style="stop-color:#34d399;stop-opacity:1" />
      <stop offset="100%" style="stop-color:#059669;stop-opacity:1" />
    </linearGradient>
  </defs>
</svg>