<svg width="64" height="64" viewBox="0 0 64 64" fill="none" xmlns="http://www.w3.org/2000/svg">
  <!-- Background Circle -->
  <circle cx="32" cy="32" r="30" fill="url(#health-ai-gradient)" stroke="#991b1b" stroke-width="2"/>
  
  <!-- Medical Cross -->
  <path d="M28 16 L36 16 L36 24 L44 24 L44 32 L52 32 L52 40 L44 40 L44 48 L36 48 L36 40 L28 40 L28 32 L20 32 L20 24 L28 24 Z" fill="#ffffff" fill-opacity="0.95" stroke="#dc2626" stroke-width="1.5"/>
  
  <!-- AI Health Core -->
  <circle cx="32" cy="32" r="6" fill="url(#ai-core-gradient)" stroke="#ef4444" stroke-width="1.5"/>
  <text x="32" y="31" text-anchor="middle" fill="#ffffff" font-family="Arial, sans-serif" font-size="3" font-weight="bold">AI</text>
  <text x="32" y="35" text-anchor="middle" fill="#ffffff" font-family="Arial, sans-serif" font-size="3" font-weight="bold">♥</text>
  
  <!-- Symptom Tracking -->
  <circle cx="12" cy="16" r="4" fill="url(#symptom-gradient)" stroke="#3b82f6" stroke-width="1.5"/>
  <text x="12" y="17" text-anchor="middle" fill="#ffffff" font-family="Arial, sans-serif" font-size="3" font-weight="bold">SYM</text>
  
  <!-- Pattern Analysis -->
  <circle cx="52" cy="16" r="4" fill="url(#pattern-gradient)" stroke="#7c3aed" stroke-width="1.5"/>
  <path d="M50 14 L52 16 L54 14 M50 18 L54 18" stroke="#ffffff" stroke-width="1" stroke-linecap="round"/>
  
  <!-- Health Insights -->
  <circle cx="12" cy="48" r="4" fill="url(#insights-gradient)" stroke="#10b981" stroke-width="1.5"/>
  <path d="M10 46 L12 48 L14 46 M10 50 L14 50" stroke="#ffffff" stroke-width="1" stroke-linecap="round"/>
  
  <!-- Medication Tracking -->
  <circle cx="52" cy="48" r="4" fill="url(#medication-gradient)" stroke="#f59e0b" stroke-width="1.5"/>
  <rect x="50" y="46" width="4" height="4" rx="0.5" fill="#ffffff" opacity="0.9"/>
  <circle cx="52" cy="48" r="0.8" fill="#f59e0b"/>
  
  <!-- Health Analytics -->
  <rect x="20" y="8" width="24" height="6" rx="2" fill="url(#analytics-gradient)" stroke="#22c55e" stroke-width="1"/>
  <path d="M22 11 L26 9 L30 10 L34 8 L38 9 L42 7" stroke="#ffffff" stroke-width="1.5" stroke-linecap="round" fill="none"/>
  
  <!-- Autopilot Hours -->
  <rect x="20" y="50" width="24" height="6" rx="2" fill="url(#autopilot-gradient)" stroke="#7c3aed" stroke-width="1"/>
  <text x="32" y="54" text-anchor="middle" fill="#ffffff" font-family="Arial, sans-serif" font-size="4" font-weight="bold">AUTOPILOT</text>
  
  <!-- Vital Signs -->
  <circle cx="8" cy="32" r="3" fill="url(#vitals-gradient)" stroke="#ef4444" stroke-width="1"/>
  <path d="M6 32 L7 30 L8 34 L9 30 L10 32" stroke="#ffffff" stroke-width="1" stroke-linecap="round" fill="none"/>
  
  <!-- Wellness Score -->
  <circle cx="56" cy="32" r="3" fill="url(#wellness-gradient)" stroke="#22c55e" stroke-width="1"/>
  <text x="56" y="33" text-anchor="middle" fill="#ffffff" font-family="Arial, sans-serif" font-size="4" font-weight="bold">%</text>
  
  <!-- Connection Lines -->
  <path d="M16 16 L26 26 M38 26 L48 16 M16 48 L26 38 M38 38 L48 48" stroke="#dc2626" stroke-width="1.5" opacity="0.6"/>
  <path d="M11 32 L20 32 M44 32 L53 32" stroke="#ef4444" stroke-width="1.2" opacity="0.7"/>
  
  <!-- Health Data Points -->
  <circle cx="18" cy="24" r="1" fill="#60a5fa" opacity="0.8"/>
  <circle cx="46" cy="26" r="1" fill="#a78bfa" opacity="0.8"/>
  <circle cx="22" cy="40" r="1" fill="#34d399" opacity="0.8"/>
  <circle cx="42" cy="42" r="1" fill="#fbbf24" opacity="0.8"/>
  
  <!-- Gradient Definitions -->
  <defs>
    <linearGradient id="health-ai-gradient" x1="0%" y1="0%" x2="100%" y2="100%">
      <stop offset="0%" style="stop-color:#f87171;stop-opacity:1" />
      <stop offset="50%" style="stop-color:#ef4444;stop-opacity:1" />
      <stop offset="100%" style="stop-color:#dc2626;stop-opacity:1" />
    </linearGradient>
    <linearGradient id="ai-core-gradient" x1="0%" y1="0%" x2="100%" y2="100%">
      <stop offset="0%" style="stop-color:#fca5a5;stop-opacity:1" />
      <stop offset="100%" style="stop-color:#ef4444;stop-opacity:1" />
    </linearGradient>
    <linearGradient id="symptom-gradient" x1="0%" y1="0%" x2="100%" y2="100%">
      <stop offset="0%" style="stop-color:#60a5fa;stop-opacity:1" />
      <stop offset="100%" style="stop-color:#3b82f6;stop-opacity:1" />
    </linearGradient>
    <linearGradient id="pattern-gradient" x1="0%" y1="0%" x2="100%" y2="100%">
      <stop offset="0%" style="stop-color:#a78bfa;stop-opacity:1" />
      <stop offset="100%" style="stop-color:#7c3aed;stop-opacity:1" />
    </linearGradient>
    <linearGradient id="insights-gradient" x1="0%" y1="0%" x2="100%" y2="100%">
      <stop offset="0%" style="stop-color:#34d399;stop-opacity:1" />
      <stop offset="100%" style="stop-color:#10b981;stop-opacity:1" />
    </linearGradient>
    <linearGradient id="medication-gradient" x1="0%" y1="0%" x2="100%" y2="100%">
      <stop offset="0%" style="stop-color:#fbbf24;stop-opacity:1" />
      <stop offset="100%" style="stop-color:#f59e0b;stop-opacity:1" />
    </linearGradient>
    <linearGradient id="analytics-gradient" x1="0%" y1="0%" x2="100%" y2="100%">
      <stop offset="0%" style="stop-color:#4ade80;stop-opacity:1" />
      <stop offset="100%" style="stop-color:#22c55e;stop-opacity:1" />
    </linearGradient>
    <linearGradient id="autopilot-gradient" x1="0%" y1="0%" x2="100%" y2="100%">
      <stop offset="0%" style="stop-color:#c4b5fd;stop-opacity:1" />
      <stop offset="100%" style="stop-color:#7c3aed;stop-opacity:1" />
    </linearGradient>
    <linearGradient id="vitals-gradient" x1="0%" y1="0%" x2="100%" y2="100%">
      <stop offset="0%" style="stop-color:#fca5a5;stop-opacity:1" />
      <stop offset="100%" style="stop-color:#ef4444;stop-opacity:1" />
    </linearGradient>
    <linearGradient id="wellness-gradient" x1="0%" y1="0%" x2="100%" y2="100%">
      <stop offset="0%" style="stop-color:#4ade80;stop-opacity:1" />
      <stop offset="100%" style="stop-color:#22c55e;stop-opacity:1" />
    </linearGradient>
  </defs>
</svg>