<svg width="64" height="64" viewBox="0 0 64 64" fill="none" xmlns="http://www.w3.org/2000/svg">
  <!-- Background Circle -->
  <circle cx="32" cy="32" r="30" fill="url(#insight-gradient)" stroke="#be185d" stroke-width="2"/>
  
  <!-- Analytics Eye -->
  <ellipse cx="32" cy="32" rx="12" ry="8" fill="#ffffff" fill-opacity="0.95" stroke="#e11d48" stroke-width="2"/>
  <circle cx="32" cy="32" r="6" fill="url(#eye-gradient)" stroke="#db2777" stroke-width="1"/>
  <circle cx="32" cy="32" r="3" fill="#ffffff"/>
  <text x="32" y="34" text-anchor="middle" fill="#db2777" font-family="Arial, sans-serif" font-size="3" font-weight="bold">X</text>
  
  <!-- Data Streams -->
  <circle cx="12" cy="16" r="4" fill="url(#data1-gradient)" stroke="#3b82f6" stroke-width="1.5"/>
  <path d="M10 14 L12 16 L14 14" stroke="#ffffff" stroke-width="1.2" stroke-linecap="round" fill="none"/>
  
  <circle cx="52" cy="16" r="4" fill="url(#data2-gradient)" stroke="#10b981" stroke-width="1.5"/>
  <path d="M50 14 L52 16 L54 14" stroke="#ffffff" stroke-width="1.2" stroke-linecap="round" fill="none"/>
  
  <circle cx="12" cy="48" r="4" fill="url(#data3-gradient)" stroke="#f59e0b" stroke-width="1.5"/>
  <path d="M10 46 L12 48 L14 46" stroke="#ffffff" stroke-width="1.2" stroke-linecap="round" fill="none"/>
  
  <circle cx="52" cy="48" r="4" fill="url(#data4-gradient)" stroke="#7c3aed" stroke-width="1.5"/>
  <path d="M50 46 L52 48 L54 46" stroke="#ffffff" stroke-width="1.2" stroke-linecap="round" fill="none"/>
  
  <!-- Intelligence -->
  <rect x="20" y="8" width="24" height="6" rx="2" fill="url(#intel-gradient)" stroke="#e11d48" stroke-width="1"/>
  <text x="32" y="12" text-anchor="middle" fill="#ffffff" font-family="Arial, sans-serif" font-size="4" font-weight="bold">INSIGHTX</text>
  
  <!-- Deep Analytics -->
  <rect x="20" y="50" width="24" height="6" rx="2" fill="url(#analytics-gradient)" stroke="#059669" stroke-width="1"/>
  <text x="32" y="54" text-anchor="middle" fill="#ffffff" font-family="Arial, sans-serif" font-size="4" font-weight="bold">DEEP VISION</text>
  
  <!-- Vision Lines -->
  <path d="M16 16 L20 32 M44 32 L48 16 M16 48 L20 32 M44 32 L48 48" stroke="#e11d48" stroke-width="2" opacity="0.6"/>
  
  <!-- AI Processing -->
  <circle cx="8" cy="32" r="3" fill="url(#ai-gradient)" stroke="#22c55e" stroke-width="1"/>
  <text x="8" y="33" text-anchor="middle" fill="#ffffff" font-family="Arial, sans-serif" font-size="3" font-weight="bold">AI</text>
  
  <!-- Pattern Recognition -->
  <circle cx="56" cy="32" r="3" fill="url(#pattern-gradient)" stroke="#f59e0b" stroke-width="1"/>
  <text x="56" y="33" text-anchor="middle" fill="#ffffff" font-family="Arial, sans-serif" font-size="3" font-weight="bold">🔍</text>
  
  <!-- Gradient Definitions -->
  <defs>
    <linearGradient id="insight-gradient" x1="0%" y1="0%" x2="100%" y2="100%">
      <stop offset="0%" style="stop-color:#f472b6;stop-opacity:1" />
      <stop offset="50%" style="stop-color:#e11d48;stop-opacity:1" />
      <stop offset="100%" style="stop-color:#be185d;stop-opacity:1" />
    </linearGradient>
    <linearGradient id="eye-gradient" x1="0%" y1="0%" x2="100%" y2="100%">
      <stop offset="0%" style="stop-color:#fda4af;stop-opacity:1" />
      <stop offset="100%" style="stop-color:#e11d48;stop-opacity:1" />
    </linearGradient>
    <linearGradient id="data1-gradient" x1="0%" y1="0%" x2="100%" y2="100%">
      <stop offset="0%" style="stop-color:#60a5fa;stop-opacity:1" />
      <stop offset="100%" style="stop-color:#3b82f6;stop-opacity:1" />
    </linearGradient>
    <linearGradient id="data2-gradient" x1="0%" y1="0%" x2="100%" y2="100%">
      <stop offset="0%" style="stop-color:#34d399;stop-opacity:1" />
      <stop offset="100%" style="stop-color:#10b981;stop-opacity:1" />
    </linearGradient>
    <linearGradient id="data3-gradient" x1="0%" y1="0%" x2="100%" y2="100%">
      <stop offset="0%" style="stop-color:#fbbf24;stop-opacity:1" />
      <stop offset="100%" style="stop-color:#f59e0b;stop-opacity:1" />
    </linearGradient>
    <linearGradient id="data4-gradient" x1="0%" y1="0%" x2="100%" y2="100%">
      <stop offset="0%" style="stop-color:#a78bfa;stop-opacity:1" />
      <stop offset="100%" style="stop-color:#7c3aed;stop-opacity:1" />
    </linearGradient>
    <linearGradient id="intel-gradient" x1="0%" y1="0%" x2="100%" y2="100%">
      <stop offset="0%" style="stop-color:#fda4af;stop-opacity:1" />
      <stop offset="100%" style="stop-color:#e11d48;stop-opacity:1" />
    </linearGradient>
    <linearGradient id="analytics-gradient" x1="0%" y1="0%" x2="100%" y2="100%">
      <stop offset="0%" style="stop-color:#34d399;stop-opacity:1" />
      <stop offset="100%" style="stop-color:#059669;stop-opacity:1" />
    </linearGradient>
    <linearGradient id="ai-gradient" x1="0%" y1="0%" x2="100%" y2="100%">
      <stop offset="0%" style="stop-color:#4ade80;stop-opacity:1" />
      <stop offset="100%" style="stop-color:#22c55e;stop-opacity:1" />
    </linearGradient>
    <linearGradient id="pattern-gradient" x1="0%" y1="0%" x2="100%" y2="100%">
      <stop offset="0%" style="stop-color:#fbbf24;stop-opacity:1" />
      <stop offset="100%" style="stop-color:#f59e0b;stop-opacity:1" />
    </linearGradient>
  </defs>
</svg>