<svg width="64" height="64" viewBox="0 0 64 64" fill="none" xmlns="http://www.w3.org/2000/svg">
  <!-- Background Circle -->
  <circle cx="32" cy="32" r="30" fill="url(#inventory-gradient)" stroke="#1e40af" stroke-width="2"/>
  
  <!-- Warehouse Building -->
  <rect x="12" y="20" width="40" height="28" rx="2" fill="#ffffff" fill-opacity="0.95" stroke="#3b82f6" stroke-width="1.5"/>
  
  <!-- Warehouse Roof -->
  <path d="M12 20 L32 8 L52 20 Z" fill="url(#roof-gradient)" stroke="#1e40af" stroke-width="1.5"/>
  
  <!-- Storage Racks -->
  <rect x="16" y="24" width="6" height="20" rx="1" fill="url(#rack1-gradient)" stroke="#3b82f6" stroke-width="1"/>
  <rect x="24" y="24" width="6" height="20" rx="1" fill="url(#rack2-gradient)" stroke="#2563eb" stroke-width="1"/>
  <rect x="32" y="24" width="6" height="20" rx="1" fill="url(#rack3-gradient)" stroke="#1d4ed8" stroke-width="1"/>
  <rect x="40" y="24" width="6" height="20" rx="1" fill="url(#rack4-gradient)" stroke="#1e40af" stroke-width="1"/>
  
  <!-- Inventory Items -->
  <rect x="17" y="26" width="4" height="2" rx="0.5" fill="#ffffff" opacity="0.9"/>
  <rect x="17" y="29" width="4" height="2" rx="0.5" fill="#ffffff" opacity="0.9"/>
  <rect x="17" y="32" width="4" height="2" rx="0.5" fill="#ffffff" opacity="0.9"/>
  <rect x="17" y="35" width="4" height="2" rx="0.5" fill="#ffffff" opacity="0.9"/>
  <rect x="17" y="38" width="4" height="2" rx="0.5" fill="#ffffff" opacity="0.9"/>
  <rect x="17" y="41" width="4" height="2" rx="0.5" fill="#ffffff" opacity="0.9"/>
  
  <rect x="25" y="26" width="4" height="2" rx="0.5" fill="#ffffff" opacity="0.9"/>
  <rect x="25" y="29" width="4" height="2" rx="0.5" fill="#ffffff" opacity="0.9"/>
  <rect x="25" y="32" width="4" height="2" rx="0.5" fill="#ffffff" opacity="0.9"/>
  <rect x="25" y="35" width="4" height="2" rx="0.5" fill="#ffffff" opacity="0.9"/>
  
  <rect x="33" y="26" width="4" height="2" rx="0.5" fill="#ffffff" opacity="0.9"/>
  <rect x="33" y="29" width="4" height="2" rx="0.5" fill="#ffffff" opacity="0.9"/>
  <rect x="33" y="32" width="4" height="2" rx="0.5" fill="#ffffff" opacity="0.9"/>
  <rect x="33" y="35" width="4" height="2" rx="0.5" fill="#ffffff" opacity="0.9"/>
  <rect x="33" y="38" width="4" height="2" rx="0.5" fill="#ffffff" opacity="0.9"/>
  
  <rect x="41" y="26" width="4" height="2" rx="0.5" fill="#ffffff" opacity="0.9"/>
  <rect x="41" y="29" width="4" height="2" rx="0.5" fill="#ffffff" opacity="0.9"/>
  <rect x="41" y="32" width="4" height="2" rx="0.5" fill="#ffffff" opacity="0.9"/>
  
  <!-- Barcode Scanner -->
  <rect x="6" y="36" width="4" height="6" rx="1" fill="url(#scanner-gradient)" stroke="#3b82f6" stroke-width="1"/>
  <path d="M7 38 L9 38 M7 40 L9 40 M7 42 L9 42" stroke="#ffffff" stroke-width="0.8"/>
  <circle cx="8" cy="35" r="0.5" fill="#ef4444"/>
  
  <!-- Forklift -->
  <rect x="54" y="40" width="6" height="4" rx="1" fill="url(#forklift-gradient)" stroke="#f59e0b" stroke-width="1"/>
  <rect x="54" y="36" width="1" height="8" fill="#f59e0b"/>
  <circle cx="55" cy="45" r="1" fill="#374151"/>
  <circle cx="58" cy="45" r="1" fill="#374151"/>
  
  <!-- Stock Level Indicators -->
  <circle cx="48" y="16" r="3" fill="url(#high-stock-gradient)" stroke="#22c55e" stroke-width="1"/>
  <text x="48" y="18" text-anchor="middle" fill="#ffffff" font-family="Arial, sans-serif" font-size="5" font-weight="bold">H</text>
  
  <circle cx="56" cy="24" r="3" fill="url(#med-stock-gradient)" stroke="#f59e0b" stroke-width="1"/>
  <text x="56" y="26" text-anchor="middle" fill="#ffffff" font-family="Arial, sans-serif" font-size="5" font-weight="bold">M</text>
  
  <circle cx="52" cy="32" r="3" fill="url(#low-stock-gradient)" stroke="#ef4444" stroke-width="1"/>
  <text x="52" y="34" text-anchor="middle" fill="#ffffff" font-family="Arial, sans-serif" font-size="5" font-weight="bold">L</text>
  
  <!-- Tracking System -->
  <rect x="8" y="12" width="8" height="6" rx="1" fill="url(#tracking-gradient)" stroke="#3b82f6" stroke-width="1"/>
  <path d="M10 14 L14 14 M10 16 L14 16" stroke="#ffffff" stroke-width="0.8"/>
  <circle cx="12" cy="15" r="1" fill="#ffffff"/>
  
  <!-- Reorder Alert -->
  <path d="M6 24 L10 20 L6 16 Z" fill="url(#alert-gradient)" stroke="#ef4444" stroke-width="1"/>
  <text x="8" y="21" text-anchor="middle" fill="#ffffff" font-family="Arial, sans-serif" font-size="4" font-weight="bold">!</text>
  
  <!-- Multi-location Dots -->
  <circle cx="22" cy="52" r="2" fill="url(#location1-gradient)" stroke="#3b82f6" stroke-width="1"/>
  <circle cx="32" cy="52" r="2" fill="url(#location2-gradient)" stroke="#2563eb" stroke-width="1"/>
  <circle cx="42" cy="52" r="2" fill="url(#location3-gradient)" stroke="#1d4ed8" stroke-width="1"/>
  
  <!-- Connection Lines -->
  <path d="M24 52 L30 52 M34 52 L40 52" stroke="#3b82f6" stroke-width="1.5"/>
  
  <!-- Asset Tags -->
  <rect x="58" y="8" width="4" height="4" rx="0.5" fill="url(#tag-gradient)" stroke="#3b82f6" stroke-width="1"/>
  <circle cx="60" cy="10" r="0.5" fill="#ffffff"/>
  
  <!-- Gradient Definitions -->
  <defs>
    <linearGradient id="inventory-gradient" x1="0%" y1="0%" x2="100%" y2="100%">
      <stop offset="0%" style="stop-color:#3b82f6;stop-opacity:1" />
      <stop offset="50%" style="stop-color:#2563eb;stop-opacity:1" />
      <stop offset="100%" style="stop-color:#1d4ed8;stop-opacity:1" />
    </linearGradient>
    <linearGradient id="roof-gradient" x1="0%" y1="0%" x2="100%" y2="100%">
      <stop offset="0%" style="stop-color:#60a5fa;stop-opacity:1" />
      <stop offset="100%" style="stop-color:#3b82f6;stop-opacity:1" />
    </linearGradient>
    <linearGradient id="rack1-gradient" x1="0%" y1="0%" x2="100%" y2="100%">
      <stop offset="0%" style="stop-color:#93c5fd;stop-opacity:0.9" />
      <stop offset="100%" style="stop-color:#3b82f6;stop-opacity:0.9" />
    </linearGradient>
    <linearGradient id="rack2-gradient" x1="0%" y1="0%" x2="100%" y2="100%">
      <stop offset="0%" style="stop-color:#60a5fa;stop-opacity:0.9" />
      <stop offset="100%" style="stop-color:#2563eb;stop-opacity:0.9" />
    </linearGradient>
    <linearGradient id="rack3-gradient" x1="0%" y1="0%" x2="100%" y2="100%">
      <stop offset="0%" style="stop-color:#3b82f6;stop-opacity:0.9" />
      <stop offset="100%" style="stop-color:#1d4ed8;stop-opacity:0.9" />
    </linearGradient>
    <linearGradient id="rack4-gradient" x1="0%" y1="0%" x2="100%" y2="100%">
      <stop offset="0%" style="stop-color:#2563eb;stop-opacity:0.9" />
      <stop offset="100%" style="stop-color:#1e40af;stop-opacity:0.9" />
    </linearGradient>
    <linearGradient id="scanner-gradient" x1="0%" y1="0%" x2="100%" y2="100%">
      <stop offset="0%" style="stop-color:#60a5fa;stop-opacity:1" />
      <stop offset="100%" style="stop-color:#3b82f6;stop-opacity:1" />
    </linearGradient>
    <linearGradient id="forklift-gradient" x1="0%" y1="0%" x2="100%" y2="100%">
      <stop offset="0%" style="stop-color:#fbbf24;stop-opacity:1" />
      <stop offset="100%" style="stop-color:#f59e0b;stop-opacity:1" />
    </linearGradient>
    <linearGradient id="high-stock-gradient" x1="0%" y1="0%" x2="100%" y2="100%">
      <stop offset="0%" style="stop-color:#4ade80;stop-opacity:1" />
      <stop offset="100%" style="stop-color:#22c55e;stop-opacity:1" />
    </linearGradient>
    <linearGradient id="med-stock-gradient" x1="0%" y1="0%" x2="100%" y2="100%">
      <stop offset="0%" style="stop-color:#fbbf24;stop-opacity:1" />
      <stop offset="100%" style="stop-color:#f59e0b;stop-opacity:1" />
    </linearGradient>
    <linearGradient id="low-stock-gradient" x1="0%" y1="0%" x2="100%" y2="100%">
      <stop offset="0%" style="stop-color:#f87171;stop-opacity:1" />
      <stop offset="100%" style="stop-color:#ef4444;stop-opacity:1" />
    </linearGradient>
    <linearGradient id="tracking-gradient" x1="0%" y1="0%" x2="100%" y2="100%">
      <stop offset="0%" style="stop-color:#93c5fd;stop-opacity:1" />
      <stop offset="100%" style="stop-color:#3b82f6;stop-opacity:1" />
    </linearGradient>
    <linearGradient id="alert-gradient" x1="0%" y1="0%" x2="100%" y2="100%">
      <stop offset="0%" style="stop-color:#f87171;stop-opacity:1" />
      <stop offset="100%" style="stop-color:#ef4444;stop-opacity:1" />
    </linearGradient>
    <linearGradient id="location1-gradient" x1="0%" y1="0%" x2="100%" y2="100%">
      <stop offset="0%" style="stop-color:#93c5fd;stop-opacity:1" />
      <stop offset="100%" style="stop-color:#3b82f6;stop-opacity:1" />
    </linearGradient>
    <linearGradient id="location2-gradient" x1="0%" y1="0%" x2="100%" y2="100%">
      <stop offset="0%" style="stop-color:#60a5fa;stop-opacity:1" />
      <stop offset="100%" style="stop-color:#2563eb;stop-opacity:1" />
    </linearGradient>
    <linearGradient id="location3-gradient" x1="0%" y1="0%" x2="100%" y2="100%">
      <stop offset="0%" style="stop-color:#3b82f6;stop-opacity:1" />
      <stop offset="100%" style="stop-color:#1d4ed8;stop-opacity:1" />
    </linearGradient>
    <linearGradient id="tag-gradient" x1="0%" y1="0%" x2="100%" y2="100%">
      <stop offset="0%" style="stop-color:#93c5fd;stop-opacity:1" />
      <stop offset="100%" style="stop-color:#3b82f6;stop-opacity:1" />
    </linearGradient>
  </defs>
</svg>