<svg width="64" height="64" viewBox="0 0 64 64" fill="none" xmlns="http://www.w3.org/2000/svg">
  <!-- Background Circle -->
  <circle cx="32" cy="32" r="30" fill="url(#maintenance-gradient)" stroke="#1f2937" stroke-width="2"/>
  
  <!-- Main Equipment Unit -->
  <rect x="20" y="20" width="24" height="24" rx="4" fill="#ffffff" fill-opacity="0.95" stroke="#4b5563" stroke-width="1.5"/>
  
  <!-- Equipment Display Panel -->
  <rect x="24" y="24" width="16" height="8" rx="2" fill="url(#panel-gradient)" stroke="#6b7280" stroke-width="1"/>
  
  <!-- Status Lights -->
  <circle cx="26" cy="26" r="1" fill="#22c55e"/>
  <circle cx="29" cy="26" r="1" fill="#f59e0b"/>
  <circle cx="32" cy="26" r="1" fill="#ef4444"/>
  
  <!-- Display Screen -->
  <rect x="35" y="25" width="4" height="2" rx="0.5" fill="#1f2937"/>
  <path d="M36 25.5 L38 25.5 M36 26.5 L37.5 26.5" stroke="#22c55e" stroke-width="0.3"/>
  
  <!-- Maintenance Tools -->
  <rect x="8" y="28" width="8" height="2" rx="1" fill="url(#wrench-gradient)" stroke="#6b7280" stroke-width="1"/>
  <circle cx="8" cy="29" r="1.5" fill="url(#handle-gradient)"/>
  
  <rect x="6" y="36" width="10" height="1.5" rx="0.75" fill="url(#screwdriver-gradient)" stroke="#d97706" stroke-width="1"/>
  <rect x="5" y="35.5" width="2" height="2.5" rx="0.5" fill="url(#handle2-gradient)"/>
  
  <!-- Equipment Parts -->
  <circle cx="26" cy="36" r="3" fill="url(#gear1-gradient)" stroke="#6b7280" stroke-width="1"/>
  <circle cx="26" cy="36" r="1.5" fill="#ffffff" opacity="0.9"/>
  <path d="M24 34 L28 38 M28 34 L24 38" stroke="#6b7280" stroke-width="0.8"/>
  
  <circle cx="38" cy="36" r="2.5" fill="url(#gear2-gradient)" stroke="#4b5563" stroke-width="1"/>
  <circle cx="38" cy="36" r="1" fill="#ffffff" opacity="0.9"/>
  <path d="M36.5 34.5 L39.5 37.5 M39.5 34.5 L36.5 37.5" stroke="#4b5563" stroke-width="0.8"/>
  
  <!-- Maintenance Schedule -->
  <rect x="48" y="16" width="8" height="10" rx="1" fill="url(#schedule-gradient)" stroke="#4b5563" stroke-width="1"/>
  <path d="M50 18 L54 18 M50 20 L54 20 M50 22 L53 22 M50 24 L54 24" stroke="#ffffff" stroke-width="0.8"/>
  <circle cx="49" cy="18" r="0.3" fill="#22c55e"/>
  <circle cx="49" cy="20" r="0.3" fill="#f59e0b"/>
  <circle cx="49" cy="22" r="0.3" fill="#ef4444"/>
  <circle cx="49" cy="24" r="0.3" fill="#22c55e"/>
  
  <!-- Performance Meter -->
  <circle cx="52" cy="32" r="4" fill="url(#meter-gradient)" stroke="#4b5563" stroke-width="1.5"/>
  <path d="M52 28 A4 4 0 0 1 56 32" stroke="#22c55e" stroke-width="2" fill="none"/>
  <path d="M52 36 A4 4 0 0 1 48 32" stroke="#ef4444" stroke-width="1" fill="none"/>
  <circle cx="52" cy="32" r="1.5" fill="#ffffff"/>
  <path d="M52 32 L54 30" stroke="#4b5563" stroke-width="1.5" stroke-linecap="round"/>
  
  <!-- Asset Lifecycle Chart -->
  <rect x="8" y="48" width="16" height="8" rx="2" fill="url(#lifecycle-gradient)" stroke="#4b5563" stroke-width="1"/>
  <path d="M10 54 L12 50 L14 52 L16 48 L18 50 L20 46 L22 48" stroke="#ffffff" stroke-width="2" stroke-linecap="round" fill="none"/>
  <circle cx="10" cy="54" r="0.8" fill="#ffffff"/>
  <circle cx="12" cy="50" r="0.8" fill="#ffffff"/>
  <circle cx="14" cy="52" r="0.8" fill="#ffffff"/>
  <circle cx="16" cy="48" r="0.8" fill="#ffffff"/>
  <circle cx="18" cy="50" r="0.8" fill="#ffffff"/>
  <circle cx="20" cy="46" r="0.8" fill="#ffffff"/>
  <circle cx="22" cy="48" r="0.8" fill="#ffffff"/>
  
  <!-- Predictive Analytics -->
  <rect x="28" y="48" width="16" height="8" rx="2" fill="url(#analytics-gradient)" stroke="#7c3aed" stroke-width="1"/>
  <path d="M30 52 L34 54 L38 50 L42 52" stroke="#ffffff" stroke-width="2" stroke-linecap="round" fill="none"/>
  <path d="M34 54 L38 50 L42 52 L44 48" stroke="#c4b5fd" stroke-width="1.5" stroke-linecap="round" fill="none" stroke-dasharray="2,2"/>
  
  <!-- Work Order -->
  <rect x="48" y="40" width="8" height="8" rx="1" fill="url(#workorder-gradient)" stroke="#f59e0b" stroke-width="1"/>
  <path d="M50 42 L54 42 M50 44 L53 44 M50 46 L54 46" stroke="#ffffff" stroke-width="0.8"/>
  <circle cx="55" cy="43" r="1" fill="#ffffff"/>
  <path d="M54 42 L55 43 L54 44" stroke="#f59e0b" stroke-width="0.8" stroke-linecap="round" fill="none"/>
  
  <!-- Warning Indicators -->
  <path d="M46 24 L50 20 L46 16 Z" fill="url(#warning-gradient)" stroke="#ef4444" stroke-width="1"/>
  <text x="48" y="21" text-anchor="middle" fill="#ffffff" font-family="Arial, sans-serif" font-size="4" font-weight="bold">!</text>
  
  <!-- Temperature Sensor -->
  <circle cx="12" cy="16" r="3" fill="url(#temp-gradient)" stroke="#ef4444" stroke-width="1"/>
  <rect x="11" y="14" width="2" height="4" rx="1" fill="#ffffff"/>
  <circle cx="12" cy="17" r="1" fill="#ef4444"/>
  
  <!-- Maintenance Cost -->
  <circle cx="56" cy="52" r="4" fill="url(#cost-gradient)" stroke="#10b981" stroke-width="1"/>
  <text x="56" y="54" text-anchor="middle" fill="#ffffff" font-family="Arial, sans-serif" font-size="6" font-weight="bold">$</text>
  
  <!-- Equipment Connections -->
  <path d="M20 32 L48 32 M32 20 L32 48" stroke="#6b7280" stroke-width="1" opacity="0.5" stroke-dasharray="2,2"/>
  
  <!-- Gradient Definitions -->
  <defs>
    <linearGradient id="maintenance-gradient" x1="0%" y1="0%" x2="100%" y2="100%">
      <stop offset="0%" style="stop-color:#6b7280;stop-opacity:1" />
      <stop offset="50%" style="stop-color:#4b5563;stop-opacity:1" />
      <stop offset="100%" style="stop-color:#374151;stop-opacity:1" />
    </linearGradient>
    <linearGradient id="panel-gradient" x1="0%" y1="0%" x2="100%" y2="100%">
      <stop offset="0%" style="stop-color:#9ca3af;stop-opacity:0.9" />
      <stop offset="100%" style="stop-color:#6b7280;stop-opacity:0.9" />
    </linearGradient>
    <linearGradient id="wrench-gradient" x1="0%" y1="0%" x2="100%" y2="100%">
      <stop offset="0%" style="stop-color:#9ca3af;stop-opacity:1" />
      <stop offset="100%" style="stop-color:#6b7280;stop-opacity:1" />
    </linearGradient>
    <linearGradient id="handle-gradient" x1="0%" y1="0%" x2="100%" y2="100%">
      <stop offset="0%" style="stop-color:#fbbf24;stop-opacity:1" />
      <stop offset="100%" style="stop-color:#f59e0b;stop-opacity:1" />
    </linearGradient>
    <linearGradient id="screwdriver-gradient" x1="0%" y1="0%" x2="100%" y2="100%">
      <stop offset="0%" style="stop-color:#9ca3af;stop-opacity:1" />
      <stop offset="100%" style="stop-color:#6b7280;stop-opacity:1" />
    </linearGradient>
    <linearGradient id="handle2-gradient" x1="0%" y1="0%" x2="100%" y2="100%">
      <stop offset="0%" style="stop-color:#fdba74;stop-opacity:1" />
      <stop offset="100%" style="stop-color:#d97706;stop-opacity:1" />
    </linearGradient>
    <linearGradient id="gear1-gradient" x1="0%" y1="0%" x2="100%" y2="100%">
      <stop offset="0%" style="stop-color:#9ca3af;stop-opacity:1" />
      <stop offset="100%" style="stop-color:#6b7280;stop-opacity:1" />
    </linearGradient>
    <linearGradient id="gear2-gradient" x1="0%" y1="0%" x2="100%" y2="100%">
      <stop offset="0%" style="stop-color:#6b7280;stop-opacity:1" />
      <stop offset="100%" style="stop-color:#4b5563;stop-opacity:1" />
    </linearGradient>
    <linearGradient id="schedule-gradient" x1="0%" y1="0%" x2="100%" y2="100%">
      <stop offset="0%" style="stop-color:#9ca3af;stop-opacity:1" />
      <stop offset="100%" style="stop-color:#4b5563;stop-opacity:1" />
    </linearGradient>
    <linearGradient id="meter-gradient" x1="0%" y1="0%" x2="100%" y2="100%">
      <stop offset="0%" style="stop-color:#d1d5db;stop-opacity:1" />
      <stop offset="100%" style="stop-color:#9ca3af;stop-opacity:1" />
    </linearGradient>
    <linearGradient id="lifecycle-gradient" x1="0%" y1="0%" x2="100%" y2="100%">
      <stop offset="0%" style="stop-color:#9ca3af;stop-opacity:0.9" />
      <stop offset="100%" style="stop-color:#4b5563;stop-opacity:0.9" />
    </linearGradient>
    <linearGradient id="analytics-gradient" x1="0%" y1="0%" x2="100%" y2="100%">
      <stop offset="0%" style="stop-color:#a78bfa;stop-opacity:0.9" />
      <stop offset="100%" style="stop-color:#7c3aed;stop-opacity:0.9" />
    </linearGradient>
    <linearGradient id="workorder-gradient" x1="0%" y1="0%" x2="100%" y2="100%">
      <stop offset="0%" style="stop-color:#fbbf24;stop-opacity:1" />
      <stop offset="100%" style="stop-color:#f59e0b;stop-opacity:1" />
    </linearGradient>
    <linearGradient id="warning-gradient" x1="0%" y1="0%" x2="100%" y2="100%">
      <stop offset="0%" style="stop-color:#f87171;stop-opacity:1" />
      <stop offset="100%" style="stop-color:#ef4444;stop-opacity:1" />
    </linearGradient>
    <linearGradient id="temp-gradient" x1="0%" y1="0%" x2="100%" y2="100%">
      <stop offset="0%" style="stop-color:#fca5a5;stop-opacity:1" />
      <stop offset="100%" style="stop-color:#ef4444;stop-opacity:1" />
    </linearGradient>
    <linearGradient id="cost-gradient" x1="0%" y1="0%" x2="100%" y2="100%">
      <stop offset="0%" style="stop-color:#34d399;stop-opacity:1" />
      <stop offset="100%" style="stop-color:#10b981;stop-opacity:1" />
    </linearGradient>
  </defs>
</svg>