<svg width="64" height="64" viewBox="0 0 64 64" fill="none" xmlns="http://www.w3.org/2000/svg">
  <!-- Background Circle -->
  <circle cx="32" cy="32" r="30" fill="url(#manufacturing-gradient)" stroke="#713f12" stroke-width="2"/>
  
  <!-- Factory Building -->
  <rect x="16" y="24" width="32" height="24" rx="2" fill="#ffffff" fill-opacity="0.95" stroke="#d97706" stroke-width="1.5"/>
  
  <!-- Factory Chimney -->
  <rect x="44" y="12" width="6" height="16" rx="1" fill="url(#chimney-gradient)" stroke="#b45309" stroke-width="1.5"/>
  
  <!-- Smoke -->
  <circle cx="47" cy="8" r="1.5" fill="#d1d5db" opacity="0.7"/>
  <circle cx="45" cy="6" r="1" fill="#d1d5db" opacity="0.6"/>
  <circle cx="49" cy="5" r="1.2" fill="#d1d5db" opacity="0.5"/>
  
  <!-- Production Line -->
  <rect x="20" y="28" width="24" height="6" rx="1" fill="url(#line-gradient)" stroke="#d97706" stroke-width="1"/>
  
  <!-- Conveyor Belt -->
  <path d="M20 31 L44 31" stroke="#374151" stroke-width="2"/>
  <circle cx="22" cy="31" r="1" fill="#6b7280"/>
  <circle cx="26" cy="31" r="1" fill="#6b7280"/>
  <circle cx="30" cy="31" r="1" fill="#6b7280"/>
  <circle cx="34" cy="31" r="1" fill="#6b7280"/>
  <circle cx="38" cy="31" r="1" fill="#6b7280"/>
  <circle cx="42" cy="31" r="1" fill="#6b7280"/>
  
  <!-- Manufacturing Stations -->
  <rect x="18" y="36" width="6" height="8" rx="1" fill="url(#station1-gradient)" stroke="#d97706" stroke-width="1"/>
  <rect x="26" y="36" width="6" height="8" rx="1" fill="url(#station2-gradient)" stroke="#ea580c" stroke-width="1"/>
  <rect x="34" y="36" width="6" height="8" rx="1" fill="url(#station3-gradient)" stroke="#dc2626" stroke-width="1"/>
  <rect x="42" y="36" width="4" height="8" rx="1" fill="url(#station4-gradient)" stroke="#b91c1c" stroke-width="1"/>
  
  <!-- Station Indicators -->
  <circle cx="21" cy="38" r="1" fill="#ffffff"/>
  <circle cx="29" cy="38" r="1" fill="#ffffff"/>
  <circle cx="37" cy="38" r="1" fill="#ffffff"/>
  <circle cx="44" cy="38" r="0.8" fill="#ffffff"/>
  
  <!-- BOM/Work Orders -->
  <rect x="8" y="16" width="6" height="8" rx="1" fill="url(#bom-gradient)" stroke="#d97706" stroke-width="1"/>
  <path d="M9 18 L13 18 M9 20 L12 20 M9 22 L13 22" stroke="#ffffff" stroke-width="0.8"/>
  
  <!-- Quality Control -->
  <circle cx="12" cy="40" r="3" fill="url(#qc-gradient)" stroke="#22c55e" stroke-width="1.5"/>
  <path d="M10 40 L11.5 41.5 L14 39" stroke="#ffffff" stroke-width="1.5" stroke-linecap="round" fill="none"/>
  
  <!-- Production Metrics -->
  <rect x="50" y="36" width="8" height="12" rx="2" fill="url(#metrics-gradient)" stroke="#d97706" stroke-width="1"/>
  
  <!-- Efficiency Bars -->
  <rect x="52" y="38" width="4" height="1" fill="#22c55e"/>
  <rect x="52" y="40" width="3" height="1" fill="#f59e0b"/>
  <rect x="52" y="42" width="4" height="1" fill="#22c55e"/>
  <rect x="52" y="44" width="2" height="1" fill="#ef4444"/>
  <rect x="52" y="46" width="4" height="1" fill="#22c55e"/>
  
  <!-- Robotic Arm -->
  <rect x="6" y="32" width="8" height="2" rx="1" fill="url(#robot-gradient)" stroke="#374151" stroke-width="1"/>
  <circle cx="6" cy="33" r="1.5" fill="url(#robot-joint-gradient)"/>
  <circle cx="14" cy="33" r="1.5" fill="url(#robot-joint-gradient)"/>
  <rect x="13" y="31" width="3" height="4" rx="0.5" fill="url(#robot-claw-gradient)"/>
  
  <!-- Inventory Input -->
  <rect x="12" y="50" width="8" height="6" rx="1" fill="url(#inventory-gradient)" stroke="#d97706" stroke-width="1"/>
  <rect x="13" y="52" width="2" height="2" rx="0.3" fill="#ffffff" opacity="0.9"/>
  <rect x="16" y="52" width="2" height="2" rx="0.3" fill="#ffffff" opacity="0.9"/>
  <rect x="13" y="54" width="2" height="2" rx="0.3" fill="#ffffff" opacity="0.9"/>
  <rect x="16" y="54" width="2" height="2" rx="0.3" fill="#ffffff" opacity="0.9"/>
  
  <!-- Finished Products -->
  <rect x="44" y="50" width="8" height="6" rx="1" fill="url(#products-gradient)" stroke="#059669" stroke-width="1"/>
  <circle cx="46" cy="53" r="1" fill="#ffffff"/>
  <circle cx="48" cy="53" r="1" fill="#ffffff"/>
  <circle cx="50" cy="53" r="1" fill="#ffffff"/>
  
  <!-- Process Flow Arrows -->
  <path d="M20 53 L44 53" stroke="#d97706" stroke-width="2" marker-end="url(#arrowhead)"/>
  <path d="M32 34 L32 36" stroke="#d97706" stroke-width="1.5" marker-end="url(#arrowhead)"/>
  
  <!-- Schedule Board -->
  <rect x="54" y="16" width="6" height="8" rx="1" fill="url(#schedule-gradient)" stroke="#d97706" stroke-width="1"/>
  <path d="M55 18 L59 18 M55 20 L58 20 M55 22 L59 22" stroke="#ffffff" stroke-width="0.6"/>
  
  <!-- Temperature Gauge -->
  <circle cx="56" cy="28" r="3" fill="url(#temp-gradient)" stroke="#ef4444" stroke-width="1"/>
  <path d="M56 25 A3 3 0 0 1 59 28" stroke="#ffffff" stroke-width="1.5" fill="none"/>
  <circle cx="56" cy="28" r="1" fill="#ffffff"/>
  
  <!-- Gradient Definitions -->
  <defs>
    <linearGradient id="manufacturing-gradient" x1="0%" y1="0%" x2="100%" y2="100%">
      <stop offset="0%" style="stop-color:#f59e0b;stop-opacity:1" />
      <stop offset="50%" style="stop-color:#d97706;stop-opacity:1" />
      <stop offset="100%" style="stop-color:#b45309;stop-opacity:1" />
    </linearGradient>
    <linearGradient id="chimney-gradient" x1="0%" y1="0%" x2="100%" y2="100%">
      <stop offset="0%" style="stop-color:#f59e0b;stop-opacity:1" />
      <stop offset="100%" style="stop-color:#b45309;stop-opacity:1" />
    </linearGradient>
    <linearGradient id="line-gradient" x1="0%" y1="0%" x2="100%" y2="100%">
      <stop offset="0%" style="stop-color:#fbbf24;stop-opacity:0.9" />
      <stop offset="100%" style="stop-color:#d97706;stop-opacity:0.9" />
    </linearGradient>
    <linearGradient id="station1-gradient" x1="0%" y1="0%" x2="100%" y2="100%">
      <stop offset="0%" style="stop-color:#fed7aa;stop-opacity:1" />
      <stop offset="100%" style="stop-color:#d97706;stop-opacity:1" />
    </linearGradient>
    <linearGradient id="station2-gradient" x1="0%" y1="0%" x2="100%" y2="100%">
      <stop offset="0%" style="stop-color:#fdba74;stop-opacity:1" />
      <stop offset="100%" style="stop-color:#ea580c;stop-opacity:1" />
    </linearGradient>
    <linearGradient id="station3-gradient" x1="0%" y1="0%" x2="100%" y2="100%">
      <stop offset="0%" style="stop-color:#fca5a5;stop-opacity:1" />
      <stop offset="100%" style="stop-color:#dc2626;stop-opacity:1" />
    </linearGradient>
    <linearGradient id="station4-gradient" x1="0%" y1="0%" x2="100%" y2="100%">
      <stop offset="0%" style="stop-color:#f87171;stop-opacity:1" />
      <stop offset="100%" style="stop-color:#b91c1c;stop-opacity:1" />
    </linearGradient>
    <linearGradient id="bom-gradient" x1="0%" y1="0%" x2="100%" y2="100%">
      <stop offset="0%" style="stop-color:#fbbf24;stop-opacity:1" />
      <stop offset="100%" style="stop-color:#d97706;stop-opacity:1" />
    </linearGradient>
    <linearGradient id="qc-gradient" x1="0%" y1="0%" x2="100%" y2="100%">
      <stop offset="0%" style="stop-color:#4ade80;stop-opacity:1" />
      <stop offset="100%" style="stop-color:#22c55e;stop-opacity:1" />
    </linearGradient>
    <linearGradient id="metrics-gradient" x1="0%" y1="0%" x2="100%" y2="100%">
      <stop offset="0%" style="stop-color:#fed7aa;stop-opacity:1" />
      <stop offset="100%" style="stop-color:#d97706;stop-opacity:1" />
    </linearGradient>
    <linearGradient id="robot-gradient" x1="0%" y1="0%" x2="100%" y2="100%">
      <stop offset="0%" style="stop-color:#9ca3af;stop-opacity:1" />
      <stop offset="100%" style="stop-color:#6b7280;stop-opacity:1" />
    </linearGradient>
    <linearGradient id="robot-joint-gradient" x1="0%" y1="0%" x2="100%" y2="100%">
      <stop offset="0%" style="stop-color:#6b7280;stop-opacity:1" />
      <stop offset="100%" style="stop-color:#4b5563;stop-opacity:1" />
    </linearGradient>
    <linearGradient id="robot-claw-gradient" x1="0%" y1="0%" x2="100%" y2="100%">
      <stop offset="0%" style="stop-color:#9ca3af;stop-opacity:1" />
      <stop offset="100%" style="stop-color:#6b7280;stop-opacity:1" />
    </linearGradient>
    <linearGradient id="inventory-gradient" x1="0%" y1="0%" x2="100%" y2="100%">
      <stop offset="0%" style="stop-color:#fbbf24;stop-opacity:1" />
      <stop offset="100%" style="stop-color:#d97706;stop-opacity:1" />
    </linearGradient>
    <linearGradient id="products-gradient" x1="0%" y1="0%" x2="100%" y2="100%">
      <stop offset="0%" style="stop-color:#34d399;stop-opacity:1" />
      <stop offset="100%" style="stop-color:#059669;stop-opacity:1" />
    </linearGradient>
    <linearGradient id="schedule-gradient" x1="0%" y1="0%" x2="100%" y2="100%">
      <stop offset="0%" style="stop-color:#fed7aa;stop-opacity:1" />
      <stop offset="100%" style="stop-color:#d97706;stop-opacity:1" />
    </linearGradient>
    <linearGradient id="temp-gradient" x1="0%" y1="0%" x2="100%" y2="100%">
      <stop offset="0%" style="stop-color:#fca5a5;stop-opacity:1" />
      <stop offset="100%" style="stop-color:#ef4444;stop-opacity:1" />
    </linearGradient>
    <marker id="arrowhead" markerWidth="10" markerHeight="7" refX="9" refY="3.5" orient="auto">
      <polygon points="0 0, 10 3.5, 0 7" fill="#d97706"/>
    </marker>
  </defs>
</svg>