<svg width="64" height="64" viewBox="0 0 64 64" fill="none" xmlns="http://www.w3.org/2000/svg">
  <!-- Background Circle -->
  <circle cx="32" cy="32" r="30" fill="url(#marketing-gradient)" stroke="#be185d" stroke-width="2"/>
  
  <!-- Central Marketing Hub -->
  <circle cx="32" cy="32" r="8" fill="#ffffff" fill-opacity="0.95" stroke="#e11d48" stroke-width="2"/>
  <circle cx="32" cy="32" r="5" fill="url(#hub-gradient)" stroke="#db2777" stroke-width="1"/>
  <circle cx="32" cy="32" r="2" fill="#ffffff"/>
  <text x="32" y="33" text-anchor="middle" fill="#db2777" font-family="Arial, sans-serif" font-size="5" font-weight="bold">M</text>
  
  <!-- Email Campaign -->
  <rect x="8" y="16" width="10" height="8" rx="2" fill="url(#email-gradient)" stroke="#3b82f6" stroke-width="1"/>
  <path d="M10 18 L16 18 M10 20 L14 20 M10 22 L16 22" stroke="#ffffff" stroke-width="0.8"/>
  <circle cx="17" cy="19" r="1" fill="#ffffff"/>
  <text x="17" y="19.5" text-anchor="middle" fill="#3b82f6" font-family="Arial, sans-serif" font-size="3" font-weight="bold">@</text>
  
  <!-- Social Media Management -->
  <rect x="46" y="16" width="10" height="8" rx="2" fill="url(#social-gradient)" stroke="#7c3aed" stroke-width="1"/>
  <circle cx="48" cy="18" r="0.8" fill="#ffffff"/>
  <circle cx="50" cy="18" r="0.8" fill="#ffffff"/>
  <circle cx="52" cy="18" r="0.8" fill="#ffffff"/>
  <circle cx="54" cy="18" r="0.8" fill="#ffffff"/>
  <path d="M47 21 L48 22 L50 21 L52 22 L54 21 L55 22" stroke="#ffffff" stroke-width="1" stroke-linecap="round" fill="none"/>
  
  <!-- Lead Nurturing -->
  <rect x="8" y="40" width="10" height="8" rx="2" fill="url(#lead-gradient)" stroke="#22c55e" stroke-width="1"/>
  <path d="M10 42 L12 44 L14 42 L16 44 L18 42" stroke="#ffffff" stroke-width="1.5" stroke-linecap="round" fill="none"/>
  <circle cx="10" cy="42" r="0.6" fill="#ffffff"/>
  <circle cx="12" cy="44" r="0.6" fill="#ffffff"/>
  <circle cx="14" cy="42" r="0.6" fill="#ffffff"/>
  <circle cx="16" cy="44" r="0.6" fill="#ffffff"/>
  <circle cx="18" cy="42" r="0.6" fill="#ffffff"/>
  
  <!-- Analytics Dashboard -->
  <rect x="46" y="40" width="10" height="8" rx="2" fill="url(#analytics-gradient)" stroke="#f59e0b" stroke-width="1"/>
  <path d="M48 44 L50 42 L52 43 L54 41" stroke="#ffffff" stroke-width="1.5" stroke-linecap="round" fill="none"/>
  <circle cx="48" cy="44" r="0.5" fill="#ffffff"/>
  <circle cx="50" cy="42" r="0.5" fill="#ffffff"/>
  <circle cx="52" cy="43" r="0.5" fill="#ffffff"/>
  <circle cx="54" cy="41" r="0.5" fill="#ffffff"/>
  <text x="52" y="47" text-anchor="middle" fill="#ffffff" font-family="Arial, sans-serif" font-size="4" font-weight="bold">%</text>
  
  <!-- Customer Journey Map -->
  <path d="M20 32 L44 32" stroke="#e11d48" stroke-width="3" stroke-linecap="round"/>
  <circle cx="22" cy="32" r="2" fill="url(#journey1-gradient)" stroke="#e11d48" stroke-width="1"/>
  <circle cx="28" cy="32" r="2" fill="url(#journey2-gradient)" stroke="#db2777" stroke-width="1"/>
  <circle cx="36" cy="32" r="2" fill="url(#journey3-gradient)" stroke="#be185d" stroke-width="1"/>
  <circle cx="42" cy="32" r="2" fill="url(#journey4-gradient)" stroke="#9d174d" stroke-width="1"/>
  
  <!-- Journey Stage Labels -->
  <circle cx="22" cy="32" r="1" fill="#ffffff"/>
  <circle cx="28" cy="32" r="1" fill="#ffffff"/>
  <circle cx="36" cy="32" r="1" fill="#ffffff"/>
  <circle cx="42" cy="32" r="1" fill="#ffffff"/>
  
  <!-- Content Creation -->
  <circle cx="16" cy="8" r="4" fill="url(#content-gradient)" stroke="#7c3aed" stroke-width="1.5"/>
  <rect x="14" y="6" width="4" height="4" rx="0.5" fill="#ffffff" opacity="0.9"/>
  <path d="M15 7 L17 7 M15 9 L17 9" stroke="#7c3aed" stroke-width="0.8"/>
  <circle cx="16.5" cy="8" r="0.3" fill="#7c3aed"/>
  
  <!-- Campaign Automation -->
  <circle cx="48" cy="8" r="4" fill="url(#automation-gradient)" stroke="#22c55e" stroke-width="1.5"/>
  <path d="M46 6 L50 10 M50 6 L46 10" stroke="#ffffff" stroke-width="1.5"/>
  <circle cx="48" cy="8" r="1" fill="#ffffff"/>
  <text x="48" y="8.5" text-anchor="middle" fill="#22c55e" font-family="Arial, sans-serif" font-size="3" font-weight="bold">A</text>
  
  <!-- Market Segmentation -->
  <circle cx="16" cy="56" r="4" fill="url(#segment-gradient)" stroke="#3b82f6" stroke-width="1.5"/>
  <path d="M16 52 L16 60 M12 56 L20 56" stroke="#ffffff" stroke-width="1.5"/>
  <circle cx="14" cy="54" r="0.8" fill="#ffffff"/>
  <circle cx="18" cy="54" r="0.8" fill="#ffffff"/>
  <circle cx="14" cy="58" r="0.8" fill="#ffffff"/>
  <circle cx="18" cy="58" r="0.8" fill="#ffffff"/>
  
  <!-- ROI Tracking -->
  <circle cx="48" cy="56" r="4" fill="url(#roi-gradient)" stroke="#059669" stroke-width="1.5"/>
  <text x="48" y="57" text-anchor="middle" fill="#ffffff" font-family="Arial, sans-serif" font-size="4" font-weight="bold">ROI</text>
  <path d="M46 54 L50 58" stroke="#ffffff" stroke-width="1.5" stroke-linecap="round"/>
  <path d="M48 53 L50 55 L50 58" stroke="#ffffff" stroke-width="1" stroke-linecap="round" fill="none"/>
  
  <!-- Brand Management -->
  <rect x="24" y="8" width="16" height="6" rx="2" fill="url(#brand-gradient)" stroke="#e11d48" stroke-width="1"/>
  <circle cx="28" cy="10" r="1" fill="#ffffff"/>
  <circle cx="32" cy="10" r="1" fill="#ffffff"/>
  <circle cx="36" cy="10" r="1" fill="#ffffff"/>
  <path d="M26 12 L38 12" stroke="#ffffff" stroke-width="1.2"/>
  
  <!-- Customer Experience -->
  <rect x="24" y="50" width="16" height="6" rx="2" fill="url(#experience-gradient)" stroke="#db2777" stroke-width="1"/>
  <circle cx="26" cy="52" r="0.8" fill="#ffffff"/>
  <circle cx="28" cy="52" r="0.8" fill="#ffffff"/>
  <circle cx="30" cy="52" r="0.8" fill="#ffffff"/>
  <circle cx="32" cy="52" r="0.8" fill="#ffffff"/>
  <circle cx="34" cy="52" r="0.8" fill="#ffffff"/>
  <circle cx="36" cy="52" r="0.8" fill="#ffffff"/>
  <circle cx="38" cy="52" r="0.8" fill="#ffffff"/>
  <path d="M25 54 L27 53 L29 54 L31 53 L33 54 L35 53 L37 54 L39 53" stroke="#ffffff" stroke-width="1.2" stroke-linecap="round" fill="none"/>
  
  <!-- Marketing Funnel -->
  <path d="M54 26 L58 30 L54 34 Z" fill="url(#funnel1-gradient)" stroke="#e11d48" stroke-width="1"/>
  <path d="M55 30 L57 32 L55 34 Z" fill="url(#funnel2-gradient)" stroke="#db2777" stroke-width="1"/>
  <path d="M55.5 32 L56.5 33 L55.5 34 Z" fill="url(#funnel3-gradient)" stroke="#be185d" stroke-width="1"/>
  
  <!-- A/B Testing -->
  <rect x="4" y="26" width="6" height="12" rx="1" fill="url(#testing-gradient)" stroke="#7c3aed" stroke-width="1"/>
  <text x="7" y="30" text-anchor="middle" fill="#ffffff" font-family="Arial, sans-serif" font-size="5" font-weight="bold">A</text>
  <text x="7" y="35" text-anchor="middle" fill="#ffffff" font-family="Arial, sans-serif" font-size="5" font-weight="bold">B</text>
  <path d="M5 32 L9 32" stroke="#ffffff" stroke-width="1"/>
  
  <!-- Connection Lines -->
  <path d="M24 20 L24 32 M40 20 L40 32 M24 32 L24 50 M40 32 L40 50" stroke="#e11d48" stroke-width="1.5" opacity="0.6"/>
  <path d="M18 24 L46 24 M18 40 L46 40" stroke="#db2777" stroke-width="1" opacity="0.5" stroke-dasharray="2,2"/>
  
  <!-- Gradient Definitions -->
  <defs>
    <linearGradient id="marketing-gradient" x1="0%" y1="0%" x2="100%" y2="100%">
      <stop offset="0%" style="stop-color:#f472b6;stop-opacity:1" />
      <stop offset="50%" style="stop-color:#e11d48;stop-opacity:1" />
      <stop offset="100%" style="stop-color:#be185d;stop-opacity:1" />
    </linearGradient>
    <linearGradient id="hub-gradient" x1="0%" y1="0%" x2="100%" y2="100%">
      <stop offset="0%" style="stop-color:#fda4af;stop-opacity:1" />
      <stop offset="100%" style="stop-color:#e11d48;stop-opacity:1" />
    </linearGradient>
    <linearGradient id="email-gradient" x1="0%" y1="0%" x2="100%" y2="100%">
      <stop offset="0%" style="stop-color:#60a5fa;stop-opacity:1" />
      <stop offset="100%" style="stop-color:#3b82f6;stop-opacity:1" />
    </linearGradient>
    <linearGradient id="social-gradient" x1="0%" y1="0%" x2="100%" y2="100%">
      <stop offset="0%" style="stop-color:#a78bfa;stop-opacity:1" />
      <stop offset="100%" style="stop-color:#7c3aed;stop-opacity:1" />
    </linearGradient>
    <linearGradient id="lead-gradient" x1="0%" y1="0%" x2="100%" y2="100%">
      <stop offset="0%" style="stop-color:#4ade80;stop-opacity:1" />
      <stop offset="100%" style="stop-color:#22c55e;stop-opacity:1" />
    </linearGradient>
    <linearGradient id="analytics-gradient" x1="0%" y1="0%" x2="100%" y2="100%">
      <stop offset="0%" style="stop-color:#fbbf24;stop-opacity:1" />
      <stop offset="100%" style="stop-color:#f59e0b;stop-opacity:1" />
    </linearGradient>
    <linearGradient id="journey1-gradient" x1="0%" y1="0%" x2="100%" y2="100%">
      <stop offset="0%" style="stop-color:#fda4af;stop-opacity:1" />
      <stop offset="100%" style="stop-color:#e11d48;stop-opacity:1" />
    </linearGradient>
    <linearGradient id="journey2-gradient" x1="0%" y1="0%" x2="100%" y2="100%">
      <stop offset="0%" style="stop-color:#f472b6;stop-opacity:1" />
      <stop offset="100%" style="stop-color:#db2777;stop-opacity:1" />
    </linearGradient>
    <linearGradient id="journey3-gradient" x1="0%" y1="0%" x2="100%" y2="100%">
      <stop offset="0%" style="stop-color:#ec4899;stop-opacity:1" />
      <stop offset="100%" style="stop-color:#be185d;stop-opacity:1" />
    </linearGradient>
    <linearGradient id="journey4-gradient" x1="0%" y1="0%" x2="100%" y2="100%">
      <stop offset="0%" style="stop-color:#db2777;stop-opacity:1" />
      <stop offset="100%" style="stop-color:#9d174d;stop-opacity:1" />
    </linearGradient>
    <linearGradient id="content-gradient" x1="0%" y1="0%" x2="100%" y2="100%">
      <stop offset="0%" style="stop-color:#c4b5fd;stop-opacity:1" />
      <stop offset="100%" style="stop-color:#7c3aed;stop-opacity:1" />
    </linearGradient>
    <linearGradient id="automation-gradient" x1="0%" y1="0%" x2="100%" y2="100%">
      <stop offset="0%" style="stop-color:#4ade80;stop-opacity:1" />
      <stop offset="100%" style="stop-color:#22c55e;stop-opacity:1" />
    </linearGradient>
    <linearGradient id="segment-gradient" x1="0%" y1="0%" x2="100%" y2="100%">
      <stop offset="0%" style="stop-color:#93c5fd;stop-opacity:1" />
      <stop offset="100%" style="stop-color:#3b82f6;stop-opacity:1" />
    </linearGradient>
    <linearGradient id="roi-gradient" x1="0%" y1="0%" x2="100%" y2="100%">
      <stop offset="0%" style="stop-color:#34d399;stop-opacity:1" />
      <stop offset="100%" style="stop-color:#059669;stop-opacity:1" />
    </linearGradient>
    <linearGradient id="brand-gradient" x1="0%" y1="0%" x2="100%" y2="100%">
      <stop offset="0%" style="stop-color:#fda4af;stop-opacity:1" />
      <stop offset="100%" style="stop-color:#e11d48;stop-opacity:1" />
    </linearGradient>
    <linearGradient id="experience-gradient" x1="0%" y1="0%" x2="100%" y2="100%">
      <stop offset="0%" style="stop-color:#f472b6;stop-opacity:1" />
      <stop offset="100%" style="stop-color:#db2777;stop-opacity:1" />
    </linearGradient>
    <linearGradient id="funnel1-gradient" x1="0%" y1="0%" x2="100%" y2="100%">
      <stop offset="0%" style="stop-color:#fda4af;stop-opacity:1" />
      <stop offset="100%" style="stop-color:#e11d48;stop-opacity:1" />
    </linearGradient>
    <linearGradient id="funnel2-gradient" x1="0%" y1="0%" x2="100%" y2="100%">
      <stop offset="0%" style="stop-color:#f472b6;stop-opacity:1" />
      <stop offset="100%" style="stop-color:#db2777;stop-opacity:1" />
    </linearGradient>
    <linearGradient id="funnel3-gradient" x1="0%" y1="0%" x2="100%" y2="100%">
      <stop offset="0%" style="stop-color:#ec4899;stop-opacity:1" />
      <stop offset="100%" style="stop-color:#be185d;stop-opacity:1" />
    </linearGradient>
    <linearGradient id="testing-gradient" x1="0%" y1="0%" x2="100%" y2="100%">
      <stop offset="0%" style="stop-color:#c4b5fd;stop-opacity:1" />
      <stop offset="100%" style="stop-color:#7c3aed;stop-opacity:1" />
    </linearGradient>
  </defs>
</svg>