<svg width="64" height="64" viewBox="0 0 64 64" fill="none" xmlns="http://www.w3.org/2000/svg">
  <!-- Background Circle -->
  <circle cx="32" cy="32" r="30" fill="url(#neuroflow-gradient)" stroke="#1e40af" stroke-width="2"/>
  
  <!-- Neural Network Nodes -->
  <circle cx="20" cy="16" r="3" fill="#ffffff" opacity="0.9"/>
  <circle cx="32" cy="12" r="3" fill="#ffffff" opacity="0.9"/>
  <circle cx="44" cy="16" r="3" fill="#ffffff" opacity="0.9"/>
  
  <circle cx="16" cy="32" r="3" fill="#ffffff" opacity="0.9"/>
  <circle cx="32" cy="32" r="4" fill="#ffffff"/>
  <circle cx="48" cy="32" r="3" fill="#ffffff" opacity="0.9"/>
  
  <circle cx="20" cy="48" r="3" fill="#ffffff" opacity="0.9"/>
  <circle cx="32" cy="52" r="3" fill="#ffffff" opacity="0.9"/>
  <circle cx="44" cy="48" r="3" fill="#ffffff" opacity="0.9"/>
  
  <!-- Connection Lines -->
  <path d="M20 16 L32 12 M32 12 L44 16 M20 16 L16 32 M44 16 L48 32 M16 32 L32 32 M32 32 L48 32 M16 32 L20 48 M48 32 L44 48 M20 48 L32 52 M32 52 L44 48 M32 32 L32 12 M32 32 L32 52" 
        stroke="#ffffff" stroke-width="1.5" opacity="0.6"/>
  
  <!-- Central Flow Indicator -->
  <path d="M28 28 L36 28 M32 24 L32 40" stroke="#ffffff" stroke-width="2" stroke-linecap="round"/>
  <path d="M30 26 L32 24 L34 26 M30 38 L32 40 L34 38" stroke="#ffffff" stroke-width="2" stroke-linecap="round" fill="none"/>
  
  <!-- Gradient Definition -->
  <defs>
    <linearGradient id="neuroflow-gradient" x1="0%" y1="0%" x2="100%" y2="100%">
      <stop offset="0%" style="stop-color:#3b82f6;stop-opacity:1" />
      <stop offset="50%" style="stop-color:#1e40af;stop-opacity:1" />
      <stop offset="100%" style="stop-color:#1e3a8a;stop-opacity:1" />
    </linearGradient>
  </defs>
</svg>
