<svg width="64" height="64" viewBox="0 0 64 64" fill="none" xmlns="http://www.w3.org/2000/svg">
  <!-- Background Circle -->
  <circle cx="32" cy="32" r="30" fill="url(#payroll-gradient)" stroke="#065f46" stroke-width="2"/>
  
  <!-- Main Payroll System -->
  <rect x="16" y="16" width="32" height="32" rx="4" fill="#ffffff" fill-opacity="0.95" stroke="#10b981" stroke-width="1.5"/>
  
  <!-- System Header -->
  <rect x="16" y="16" width="32" height="6" rx="4" fill="url(#header-gradient)"/>
  <rect x="16" y="18" width="32" height="4" fill="#047857"/>
  
  <!-- Employee Payslips -->
  <rect x="20" y="26" width="6" height="8" rx="1" fill="url(#payslip1-gradient)" stroke="#10b981" stroke-width="1"/>
  <rect x="29" y="26" width="6" height="8" rx="1" fill="url(#payslip2-gradient)" stroke="#22c55e" stroke-width="1"/>
  <rect x="38" y="26" width="6" height="8" rx="1" fill="url(#payslip3-gradient)" stroke="#34d399" stroke-width="1"/>
  
  <!-- Payslip Details -->
  <path d="M21 28 L25 28 M21 30 L24 30 M21 32 L25 32" stroke="#ffffff" stroke-width="0.8"/>
  <path d="M30 28 L34 28 M30 30 L33 30 M30 32 L34 32" stroke="#ffffff" stroke-width="0.8"/>
  <path d="M39 28 L43 28 M39 30 L42 30 M39 32 L43 32" stroke="#ffffff" stroke-width="0.8"/>
  
  <!-- Salary amounts -->
  <text x="23" y="31" text-anchor="middle" fill="#ffffff" font-family="Arial, sans-serif" font-size="4" font-weight="bold">$K</text>
  <text x="32" y="31" text-anchor="middle" fill="#ffffff" font-family="Arial, sans-serif" font-size="4" font-weight="bold">$K</text>
  <text x="41" y="31" text-anchor="middle" fill="#ffffff" font-family="Arial, sans-serif" font-size="4" font-weight="bold">$K</text>
  
  <!-- Tax Calculation Engine -->
  <rect x="20" y="38" width="24" height="6" rx="2" fill="url(#tax-gradient)" stroke="#f59e0b" stroke-width="1"/>
  <text x="32" y="41.5" text-anchor="middle" fill="#ffffff" font-family="Arial, sans-serif" font-size="6" font-weight="bold">TAX</text>
  <circle cx="22" cy="41" r="0.8" fill="#ffffff"/>
  <circle cx="42" cy="41" r="0.8" fill="#ffffff"/>
  <text x="22" y="41.5" text-anchor="middle" fill="#f59e0b" font-family="Arial, sans-serif" font-size="3" font-weight="bold">%</text>
  <text x="42" y="41.5" text-anchor="middle" fill="#f59e0b" font-family="Arial, sans-serif" font-size="3" font-weight="bold">$</text>
  
  <!-- Benefits Administration -->
  <rect x="8" y="32" width="8" height="8" rx="2" fill="url(#benefits-gradient)" stroke="#3b82f6" stroke-width="1"/>
  <circle cx="10" cy="34" r="0.8" fill="#ffffff"/>
  <circle cx="12" cy="34" r="0.8" fill="#ffffff"/>
  <circle cx="14" cy="34" r="0.8" fill="#ffffff"/>
  <path d="M9 37 L15 37" stroke="#ffffff" stroke-width="1"/>
  <text x="12" y="38" text-anchor="middle" fill="#ffffff" font-family="Arial, sans-serif" font-size="3" font-weight="bold">401k</text>
  
  <!-- Direct Deposit -->
  <rect x="48" y="32" width="8" height="8" rx="2" fill="url(#deposit-gradient)" stroke="#059669" stroke-width="1"/>
  <rect x="50" y="34" width="4" height="2" rx="0.5" fill="#ffffff" opacity="0.9"/>
  <path d="M50 37 L54 37" stroke="#ffffff" stroke-width="1"/>
  <circle cx="53" cy="38" r="0.8" fill="#ffffff"/>
  <path d="M52 37 L53 38 L52 39" stroke="#059669" stroke-width="0.8" stroke-linecap="round" fill="none"/>
  
  <!-- Time & Attendance Integration -->
  <circle cx="8" cy="20" r="4" fill="url(#time-gradient)" stroke="#22c55e" stroke-width="1.5"/>
  <circle cx="8" cy="20" r="2" fill="#ffffff" opacity="0.9"/>
  <path d="M8 18 L8 20 L10 20" stroke="#22c55e" stroke-width="1.5" stroke-linecap="round"/>
  
  <!-- Compliance Reporting -->
  <circle cx="56" cy="20" r="4" fill="url(#compliance-gradient)" stroke="#7c3aed" stroke-width="1.5"/>
  <rect x="54" y="18" width="4" height="4" rx="0.5" fill="#ffffff" opacity="0.9"/>
  <path d="M55 19 L57 19 M55 21 L57 21" stroke="#7c3aed" stroke-width="0.8"/>
  <circle cx="54.5" cy="19" r="0.2" fill="#22c55e"/>
  <circle cx="54.5" cy="21" r="0.2" fill="#22c55e"/>
  
  <!-- Employee Self-Service Portal -->
  <rect x="8" y="48" width="12" height="6" rx="2" fill="url(#portal-gradient)" stroke="#3b82f6" stroke-width="1"/>
  <circle cx="10" cy="50" r="0.8" fill="#ffffff"/>
  <circle cx="12" cy="50" r="0.8" fill="#ffffff"/>
  <circle cx="14" cy="50" r="0.8" fill="#ffffff"/>
  <circle cx="16" cy="50" r="0.8" fill="#ffffff"/>
  <circle cx="18" cy="50" r="0.8" fill="#ffffff"/>
  <path d="M9 52 L19 52" stroke="#ffffff" stroke-width="1"/>
  
  <!-- Payroll Processing Status -->
  <rect x="24" y="48" width="16" height="6" rx="2" fill="url(#status-gradient)" stroke="#22c55e" stroke-width="1"/>
  <path d="M26 50 L30 50 L30 52 L38 52" stroke="#ffffff" stroke-width="1.5" stroke-linecap="round" fill="none"/>
  <circle cx="26" cy="50" r="0.8" fill="#ffffff"/>
  <circle cx="38" cy="52" r="0.8" fill="#ffffff"/>
  <path d="M36 51 L38 52 L36 53" stroke="#ffffff" stroke-width="1" stroke-linecap="round" fill="none"/>
  
  <!-- Year-End Reporting -->
  <rect x="44" y="48" width="8" height="6" rx="2" fill="url(#yearend-gradient)" stroke="#6b7280" stroke-width="1"/>
  <text x="48" y="51" text-anchor="middle" fill="#ffffff" font-family="Arial, sans-serif" font-size="5" font-weight="bold">W2</text>
  <circle cx="47" cy="52" r="0.5" fill="#ffffff"/>
  <circle cx="49" cy="52" r="0.5" fill="#ffffff"/>
  
  <!-- Automated Processing -->
  <circle cx="32" cy="8" r="4" fill="url(#auto-gradient)" stroke="#22c55e" stroke-width="1.5"/>
  <path d="M30 6 L34 10 M34 6 L30 10" stroke="#ffffff" stroke-width="1.5"/>
  <circle cx="32" cy="8" r="1" fill="#ffffff"/>
  <text x="32" y="8.5" text-anchor="middle" fill="#22c55e" font-family="Arial, sans-serif" font-size="3" font-weight="bold">A</text>
  
  <!-- Audit Trail -->
  <circle cx="8" cy="8" r="3" fill="url(#audit-gradient)" stroke="#6b7280" stroke-width="1"/>
  <path d="M6 6 L8 8 L10 6 M6 10 L10 10" stroke="#ffffff" stroke-width="1" stroke-linecap="round"/>
  
  <!-- Bank Integration -->
  <circle cx="56" cy="8" r="3" fill="url(#bank-gradient)" stroke="#059669" stroke-width="1"/>
  <rect x="54" y="6" width="4" height="4" rx="0.5" fill="#ffffff" opacity="0.9"/>
  <text x="56" y="8.5" text-anchor="middle" fill="#059669" font-family="Arial, sans-serif" font-size="4" font-weight="bold">B</text>
  
  <!-- Multi-currency Support -->
  <circle cx="56" cy="56" r="4" fill="url(#currency-gradient)" stroke="#f59e0b" stroke-width="1.5"/>
  <text x="56" y="57" text-anchor="middle" fill="#ffffff" font-family="Arial, sans-serif" font-size="5" font-weight="bold">€$</text>
  
  <!-- Security Lock -->
  <circle cx="8" cy="56" r="4" fill="url(#security-gradient)" stroke="#ef4444" stroke-width="1.5"/>
  <rect x="6.5" y="55" width="3" height="2" rx="0.5" fill="#ffffff"/>
  <path d="M7.5 55 L7.5 54 C7.5 53.5 8 53 8.5 53 C9 53 9.5 53.5 9.5 54 L9.5 55" stroke="#ef4444" stroke-width="1" fill="none"/>
  
  <!-- Data Flow Connections -->
  <path d="M16 32 L48 32 M32 22 L32 38" stroke="#10b981" stroke-width="1" opacity="0.5" stroke-dasharray="2,2"/>
  <path d="M23 34 L23 38 M32 34 L32 38 M41 34 L41 38" stroke="#10b981" stroke-width="1" opacity="0.6"/>
  
  <!-- Gradient Definitions -->
  <defs>
    <linearGradient id="payroll-gradient" x1="0%" y1="0%" x2="100%" y2="100%">
      <stop offset="0%" style="stop-color:#22c55e;stop-opacity:1" />
      <stop offset="50%" style="stop-color:#10b981;stop-opacity:1" />
      <stop offset="100%" style="stop-color:#059669;stop-opacity:1" />
    </linearGradient>
    <linearGradient id="header-gradient" x1="0%" y1="0%" x2="100%" y2="0%">
      <stop offset="0%" style="stop-color:#047857;stop-opacity:1" />
      <stop offset="100%" style="stop-color:#10b981;stop-opacity:1" />
    </linearGradient>
    <linearGradient id="payslip1-gradient" x1="0%" y1="0%" x2="100%" y2="100%">
      <stop offset="0%" style="stop-color:#6ee7b7;stop-opacity:1" />
      <stop offset="100%" style="stop-color:#10b981;stop-opacity:1" />
    </linearGradient>
    <linearGradient id="payslip2-gradient" x1="0%" y1="0%" x2="100%" y2="100%">
      <stop offset="0%" style="stop-color:#4ade80;stop-opacity:1" />
      <stop offset="100%" style="stop-color:#22c55e;stop-opacity:1" />
    </linearGradient>
    <linearGradient id="payslip3-gradient" x1="0%" y1="0%" x2="100%" y2="100%">
      <stop offset="0%" style="stop-color:#a7f3d0;stop-opacity:1" />
      <stop offset="100%" style="stop-color:#34d399;stop-opacity:1" />
    </linearGradient>
    <linearGradient id="tax-gradient" x1="0%" y1="0%" x2="100%" y2="100%">
      <stop offset="0%" style="stop-color:#fbbf24;stop-opacity:1" />
      <stop offset="100%" style="stop-color:#f59e0b;stop-opacity:1" />
    </linearGradient>
    <linearGradient id="benefits-gradient" x1="0%" y1="0%" x2="100%" y2="100%">
      <stop offset="0%" style="stop-color:#60a5fa;stop-opacity:1" />
      <stop offset="100%" style="stop-color:#3b82f6;stop-opacity:1" />
    </linearGradient>
    <linearGradient id="deposit-gradient" x1="0%" y1="0%" x2="100%" y2="100%">
      <stop offset="0%" style="stop-color:#34d399;stop-opacity:1" />
      <stop offset="100%" style="stop-color:#059669;stop-opacity:1" />
    </linearGradient>
    <linearGradient id="time-gradient" x1="0%" y1="0%" x2="100%" y2="100%">
      <stop offset="0%" style="stop-color:#4ade80;stop-opacity:1" />
      <stop offset="100%" style="stop-color:#22c55e;stop-opacity:1" />
    </linearGradient>
    <linearGradient id="compliance-gradient" x1="0%" y1="0%" x2="100%" y2="100%">
      <stop offset="0%" style="stop-color:#a78bfa;stop-opacity:1" />
      <stop offset="100%" style="stop-color:#7c3aed;stop-opacity:1" />
    </linearGradient>
    <linearGradient id="portal-gradient" x1="0%" y1="0%" x2="100%" y2="100%">
      <stop offset="0%" style="stop-color:#93c5fd;stop-opacity:1" />
      <stop offset="100%" style="stop-color:#3b82f6;stop-opacity:1" />
    </linearGradient>
    <linearGradient id="status-gradient" x1="0%" y1="0%" x2="100%" y2="100%">
      <stop offset="0%" style="stop-color:#4ade80;stop-opacity:1" />
      <stop offset="100%" style="stop-color:#22c55e;stop-opacity:1" />
    </linearGradient>
    <linearGradient id="yearend-gradient" x1="0%" y1="0%" x2="100%" y2="100%">
      <stop offset="0%" style="stop-color:#9ca3af;stop-opacity:1" />
      <stop offset="100%" style="stop-color:#6b7280;stop-opacity:1" />
    </linearGradient>
    <linearGradient id="auto-gradient" x1="0%" y1="0%" x2="100%" y2="100%">
      <stop offset="0%" style="stop-color:#4ade80;stop-opacity:1" />
      <stop offset="100%" style="stop-color:#22c55e;stop-opacity:1" />
    </linearGradient>
    <linearGradient id="audit-gradient" x1="0%" y1="0%" x2="100%" y2="100%">
      <stop offset="0%" style="stop-color:#d1d5db;stop-opacity:1" />
      <stop offset="100%" style="stop-color:#6b7280;stop-opacity:1" />
    </linearGradient>
    <linearGradient id="bank-gradient" x1="0%" y1="0%" x2="100%" y2="100%">
      <stop offset="0%" style="stop-color:#34d399;stop-opacity:1" />
      <stop offset="100%" style="stop-color:#059669;stop-opacity:1" />
    </linearGradient>
    <linearGradient id="currency-gradient" x1="0%" y1="0%" x2="100%" y2="100%">
      <stop offset="0%" style="stop-color:#fbbf24;stop-opacity:1" />
      <stop offset="100%" style="stop-color:#f59e0b;stop-opacity:1" />
    </linearGradient>
    <linearGradient id="security-gradient" x1="0%" y1="0%" x2="100%" y2="100%">
      <stop offset="0%" style="stop-color:#f87171;stop-opacity:1" />
      <stop offset="100%" style="stop-color:#ef4444;stop-opacity:1" />
    </linearGradient>
  </defs>
</svg>