<svg width="64" height="64" viewBox="0 0 64 64" fill="none" xmlns="http://www.w3.org/2000/svg">
  <!-- Background Circle -->
  <circle cx="32" cy="32" r="30" fill="url(#project-gradient)" stroke="#7c2d12" stroke-width="2"/>
  
  <!-- Main Project Board -->
  <rect x="12" y="16" width="40" height="32" rx="4" fill="#ffffff" fill-opacity="0.95" stroke="#ea580c" stroke-width="1.5"/>
  
  <!-- Board Header -->
  <rect x="12" y="16" width="40" height="6" rx="4" fill="url(#board-header-gradient)"/>
  <rect x="12" y="18" width="40" height="4" fill="#c2410c"/>
  
  <!-- Kanban Columns -->
  <rect x="16" y="26" width="8" height="18" rx="2" fill="url(#todo-gradient)" stroke="#f97316" stroke-width="1"/>
  <rect x="26" y="26" width="8" height="18" rx="2" fill="url(#progress-gradient)" stroke="#3b82f6" stroke-width="1"/>
  <rect x="36" y="26" width="8" height="18" rx="2" fill="url(#done-gradient)" stroke="#22c55e" stroke-width="1"/>
  
  <!-- Column Headers -->
  <circle cx="20" cy="23" r="1" fill="#f97316"/>
  <circle cx="30" cy="23" r="1" fill="#3b82f6"/>
  <circle cx="40" cy="23" r="1" fill="#22c55e"/>
  
  <!-- Task Cards -->
  <rect x="17" y="28" width="6" height="3" rx="1" fill="#ffffff" opacity="0.9"/>
  <rect x="17" y="32" width="6" height="3" rx="1" fill="#ffffff" opacity="0.9"/>
  <rect x="17" y="36" width="6" height="3" rx="1" fill="#ffffff" opacity="0.9"/>
  
  <rect x="27" y="28" width="6" height="3" rx="1" fill="#ffffff" opacity="0.9"/>
  <rect x="27" y="32" width="6" height="3" rx="1" fill="#ffffff" opacity="0.9"/>
  
  <rect x="37" y="28" width="6" height="3" rx="1" fill="#ffffff" opacity="0.9"/>
  <rect x="37" y="32" width="6" height="3" rx="1" fill="#ffffff" opacity="0.9"/>
  <rect x="37" y="36" width="6" height="3" rx="1" fill="#ffffff" opacity="0.9"/>
  <rect x="37" y="40" width="6" height="3" rx="1" fill="#ffffff" opacity="0.9"/>
  
  <!-- Task Priorities -->
  <circle cx="18" cy="29.5" r="0.5" fill="#ef4444"/>
  <circle cx="18" cy="33.5" r="0.5" fill="#f59e0b"/>
  <circle cx="18" cy="37.5" r="0.5" fill="#22c55e"/>
  
  <circle cx="28" cy="29.5" r="0.5" fill="#3b82f6"/>
  <circle cx="28" cy="33.5" r="0.5" fill="#f59e0b"/>
  
  <circle cx="38" cy="29.5" r="0.5" fill="#22c55e"/>
  <circle cx="38" cy="33.5" r="0.5" fill="#22c55e"/>
  <circle cx="38" cy="37.5" r="0.5" fill="#22c55e"/>
  <circle cx="38" cy="41.5" r="0.5" fill="#22c55e"/>
  
  <!-- Team Members -->
  <circle cx="46" cy="20" r="3" fill="url(#member1-gradient)" stroke="#ea580c" stroke-width="1"/>
  <circle cx="52" cy="28" r="2.5" fill="url(#member2-gradient)" stroke="#f97316" stroke-width="1"/>
  <circle cx="48" cy="36" r="2.5" fill="url(#member3-gradient)" stroke="#fb923c" stroke-width="1"/>
  
  <!-- Member Avatars -->
  <circle cx="46" cy="20" r="1.5" fill="#ffffff"/>
  <circle cx="52" cy="28" r="1" fill="#ffffff"/>
  <circle cx="48" cy="36" r="1" fill="#ffffff"/>
  
  <!-- Progress Timeline -->
  <path d="M16 50 L48 50" stroke="#ea580c" stroke-width="2" stroke-linecap="round"/>
  <circle cx="20" cy="50" r="2" fill="url(#timeline1-gradient)" stroke="#ea580c" stroke-width="1"/>
  <circle cx="32" cy="50" r="2" fill="url(#timeline2-gradient)" stroke="#3b82f6" stroke-width="1"/>
  <circle cx="44" cy="50" r="2" fill="url(#timeline3-gradient)" stroke="#22c55e" stroke-width="1"/>
  
  <!-- Milestone Flags -->
  <path d="M20 48 L20 52 M32 48 L32 52 M44 48 L44 52" stroke="#ea580c" stroke-width="1"/>
  <path d="M20 48 L24 50 L20 52 Z" fill="#ef4444" opacity="0.8"/>
  <path d="M32 48 L36 50 L32 52 Z" fill="#3b82f6" opacity="0.8"/>
  <path d="M44 48 L48 50 L44 52 Z" fill="#22c55e" opacity="0.8"/>
  
  <!-- Collaboration Lines -->
  <path d="M46 23 L30 26 M52 30 L34 32 M48 38 L40 36" stroke="#ea580c" stroke-width="1" opacity="0.5" stroke-dasharray="1,1"/>
  
  <!-- Calendar Icon -->
  <rect x="8" y="40" width="6" height="6" rx="1" fill="url(#calendar-gradient)" stroke="#ea580c" stroke-width="1"/>
  <path d="M9 42 L13 42 M9 44 L11 44 M12 44 L13 44" stroke="#ffffff" stroke-width="0.5"/>
  <circle cx="9.5" cy="41" r="0.3" fill="#ffffff"/>
  <circle cx="12.5" cy="41" r="0.3" fill="#ffffff"/>
  
  <!-- Gradient Definitions -->
  <defs>
    <linearGradient id="project-gradient" x1="0%" y1="0%" x2="100%" y2="100%">
      <stop offset="0%" style="stop-color:#f97316;stop-opacity:1" />
      <stop offset="50%" style="stop-color:#ea580c;stop-opacity:1" />
      <stop offset="100%" style="stop-color:#c2410c;stop-opacity:1" />
    </linearGradient>
    <linearGradient id="board-header-gradient" x1="0%" y1="0%" x2="100%" y2="0%">
      <stop offset="0%" style="stop-color:#c2410c;stop-opacity:1" />
      <stop offset="100%" style="stop-color:#ea580c;stop-opacity:1" />
    </linearGradient>
    <linearGradient id="todo-gradient" x1="0%" y1="0%" x2="100%" y2="100%">
      <stop offset="0%" style="stop-color:#fed7aa;stop-opacity:0.9" />
      <stop offset="100%" style="stop-color:#f97316;stop-opacity:0.9" />
    </linearGradient>
    <linearGradient id="progress-gradient" x1="0%" y1="0%" x2="100%" y2="100%">
      <stop offset="0%" style="stop-color:#dbeafe;stop-opacity:0.9" />
      <stop offset="100%" style="stop-color:#3b82f6;stop-opacity:0.9" />
    </linearGradient>
    <linearGradient id="done-gradient" x1="0%" y1="0%" x2="100%" y2="100%">
      <stop offset="0%" style="stop-color:#dcfce7;stop-opacity:0.9" />
      <stop offset="100%" style="stop-color:#22c55e;stop-opacity:0.9" />
    </linearGradient>
    <linearGradient id="member1-gradient" x1="0%" y1="0%" x2="100%" y2="100%">
      <stop offset="0%" style="stop-color:#fb923c;stop-opacity:1" />
      <stop offset="100%" style="stop-color:#ea580c;stop-opacity:1" />
    </linearGradient>
    <linearGradient id="member2-gradient" x1="0%" y1="0%" x2="100%" y2="100%">
      <stop offset="0%" style="stop-color:#fdba74;stop-opacity:1" />
      <stop offset="100%" style="stop-color:#f97316;stop-opacity:1" />
    </linearGradient>
    <linearGradient id="member3-gradient" x1="0%" y1="0%" x2="100%" y2="100%">
      <stop offset="0%" style="stop-color:#fed7aa;stop-opacity:1" />
      <stop offset="100%" style="stop-color:#fb923c;stop-opacity:1" />
    </linearGradient>
    <linearGradient id="timeline1-gradient" x1="0%" y1="0%" x2="100%" y2="100%">
      <stop offset="0%" style="stop-color:#fb923c;stop-opacity:1" />
      <stop offset="100%" style="stop-color:#ea580c;stop-opacity:1" />
    </linearGradient>
    <linearGradient id="timeline2-gradient" x1="0%" y1="0%" x2="100%" y2="100%">
      <stop offset="0%" style="stop-color:#60a5fa;stop-opacity:1" />
      <stop offset="100%" style="stop-color:#3b82f6;stop-opacity:1" />
    </linearGradient>
    <linearGradient id="timeline3-gradient" x1="0%" y1="0%" x2="100%" y2="100%">
      <stop offset="0%" style="stop-color:#4ade80;stop-opacity:1" />
      <stop offset="100%" style="stop-color:#22c55e;stop-opacity:1" />
    </linearGradient>
    <linearGradient id="calendar-gradient" x1="0%" y1="0%" x2="100%" y2="100%">
      <stop offset="0%" style="stop-color:#fb923c;stop-opacity:1" />
      <stop offset="100%" style="stop-color:#ea580c;stop-opacity:1" />
    </linearGradient>
  </defs>
</svg>