<svg width="64" height="64" viewBox="0 0 64 64" fill="none" xmlns="http://www.w3.org/2000/svg">
  <!-- Background Circle -->
  <circle cx="32" cy="32" r="30" fill="url(#workspace-gradient)" stroke="#1e40af" stroke-width="2"/>
  
  <!-- Cloud Workspace -->
  <path d="M20 36 C20 30 24 26 30 26 C32 22 36 20 40 22 C44 20 48 24 48 28 C50 28 52 30 52 32 C52 34 50 36 48 36 L20 36 Z" fill="#ffffff" fill-opacity="0.95" stroke="#3b82f6" stroke-width="1.5"/>
  
  <!-- Remote Users -->
  <circle cx="12" cy="16" r="4" fill="url(#user1-gradient)" stroke="#10b981" stroke-width="1.5"/>
  <circle cx="10" cy="14" r="1" fill="#ffffff"/>
  <path d="M8 18 L14 18" stroke="#ffffff" stroke-width="1.2"/>
  
  <circle cx="52" cy="16" r="4" fill="url(#user2-gradient)" stroke="#f59e0b" stroke-width="1.5"/>
  <circle cx="50" cy="14" r="1" fill="#ffffff"/>
  <path d="M48 18 L54 18" stroke="#ffffff" stroke-width="1.2"/>
  
  <circle cx="12" cy="48" r="4" fill="url(#user3-gradient)" stroke="#7c3aed" stroke-width="1.5"/>
  <circle cx="10" cy="46" r="1" fill="#ffffff"/>
  <path d="M8 50 L14 50" stroke="#ffffff" stroke-width="1.2"/>
  
  <circle cx="52" cy="48" r="4" fill="url(#user4-gradient)" stroke="#ef4444" stroke-width="1.5"/>
  <circle cx="50" cy="46" r="1" fill="#ffffff"/>
  <path d="M48 50 L54 50" stroke="#ffffff" stroke-width="1.2"/>
  
  <!-- Development Environment -->
  <rect x="28" y="28" width="8" height="8" rx="2" fill="url(#dev-gradient)" stroke="#2563eb" stroke-width="1"/>
  <text x="32" y="33" text-anchor="middle" fill="#ffffff" font-family="Arial, sans-serif" font-size="3" font-weight="bold">DEV</text>
  
  <!-- Remote Access -->
  <rect x="20" y="8" width="24" height="6" rx="2" fill="url(#remote-gradient)" stroke="#3b82f6" stroke-width="1"/>
  <text x="32" y="12" text-anchor="middle" fill="#ffffff" font-family="Arial, sans-serif" font-size="4" font-weight="bold">REMOTE</text>
  
  <!-- Collaboration -->
  <rect x="20" y="50" width="24" height="6" rx="2" fill="url(#collab-gradient)" stroke="#059669" stroke-width="1"/>
  <text x="32" y="54" text-anchor="middle" fill="#ffffff" font-family="Arial, sans-serif" font-size="4" font-weight="bold">COLLAB</text>
  
  <!-- Connection Lines -->
  <path d="M16 16 L24 32 M40 32 L48 16 M16 48 L24 32 M40 32 L48 48" stroke="#3b82f6" stroke-width="1.5" opacity="0.6"/>
  
  <!-- Security -->
  <circle cx="8" cy="32" r="3" fill="url(#security-gradient)" stroke="#22c55e" stroke-width="1"/>
  <text x="8" y="33" text-anchor="middle" fill="#ffffff" font-family="Arial, sans-serif" font-size="3" font-weight="bold">🔒</text>
  
  <!-- Performance -->
  <circle cx="56" cy="32" r="3" fill="url(#perf-gradient)" stroke="#f59e0b" stroke-width="1"/>
  <text x="56" y="33" text-anchor="middle" fill="#ffffff" font-family="Arial, sans-serif" font-size="3" font-weight="bold">⚡</text>
  
  <!-- Gradient Definitions -->
  <defs>
    <linearGradient id="workspace-gradient" x1="0%" y1="0%" x2="100%" y2="100%">
      <stop offset="0%" style="stop-color:#60a5fa;stop-opacity:1" />
      <stop offset="50%" style="stop-color:#3b82f6;stop-opacity:1" />
      <stop offset="100%" style="stop-color:#2563eb;stop-opacity:1" />
    </linearGradient>
    <linearGradient id="user1-gradient" x1="0%" y1="0%" x2="100%" y2="100%">
      <stop offset="0%" style="stop-color:#34d399;stop-opacity:1" />
      <stop offset="100%" style="stop-color:#10b981;stop-opacity:1" />
    </linearGradient>
    <linearGradient id="user2-gradient" x1="0%" y1="0%" x2="100%" y2="100%">
      <stop offset="0%" style="stop-color:#fbbf24;stop-opacity:1" />
      <stop offset="100%" style="stop-color:#f59e0b;stop-opacity:1" />
    </linearGradient>
    <linearGradient id="user3-gradient" x1="0%" y1="0%" x2="100%" y2="100%">
      <stop offset="0%" style="stop-color:#a78bfa;stop-opacity:1" />
      <stop offset="100%" style="stop-color:#7c3aed;stop-opacity:1" />
    </linearGradient>
    <linearGradient id="user4-gradient" x1="0%" y1="0%" x2="100%" y2="100%">
      <stop offset="0%" style="stop-color:#f87171;stop-opacity:1" />
      <stop offset="100%" style="stop-color:#ef4444;stop-opacity:1" />
    </linearGradient>
    <linearGradient id="dev-gradient" x1="0%" y1="0%" x2="100%" y2="100%">
      <stop offset="0%" style="stop-color:#93c5fd;stop-opacity:1" />
      <stop offset="100%" style="stop-color:#2563eb;stop-opacity:1" />
    </linearGradient>
    <linearGradient id="remote-gradient" x1="0%" y1="0%" x2="100%" y2="100%">
      <stop offset="0%" style="stop-color:#93c5fd;stop-opacity:1" />
      <stop offset="100%" style="stop-color:#3b82f6;stop-opacity:1" />
    </linearGradient>
    <linearGradient id="collab-gradient" x1="0%" y1="0%" x2="100%" y2="100%">
      <stop offset="0%" style="stop-color:#34d399;stop-opacity:1" />
      <stop offset="100%" style="stop-color:#059669;stop-opacity:1" />
    </linearGradient>
    <linearGradient id="security-gradient" x1="0%" y1="0%" x2="100%" y2="100%">
      <stop offset="0%" style="stop-color:#4ade80;stop-opacity:1" />
      <stop offset="100%" style="stop-color:#22c55e;stop-opacity:1" />
    </linearGradient>
    <linearGradient id="perf-gradient" x1="0%" y1="0%" x2="100%" y2="100%">
      <stop offset="0%" style="stop-color:#fbbf24;stop-opacity:1" />
      <stop offset="100%" style="stop-color:#f59e0b;stop-opacity:1" />
    </linearGradient>
  </defs>
</svg>