<svg width="64" height="64" viewBox="0 0 64 64" fill="none" xmlns="http://www.w3.org/2000/svg">
  <!-- Background Circle -->
  <circle cx="32" cy="32" r="30" fill="url(#scheduling-gradient)" stroke="#059669" stroke-width="2"/>
  
  <!-- Main Calendar -->
  <rect x="16" y="16" width="32" height="32" rx="4" fill="#ffffff" fill-opacity="0.95" stroke="#10b981" stroke-width="1.5"/>
  
  <!-- Calendar Header -->
  <rect x="16" y="16" width="32" height="6" rx="4" fill="url(#header-gradient)"/>
  
  <!-- Calendar Grid -->
  <path d="M18 26 L46 26 M18 30 L46 30 M18 34 L46 34 M18 38 L46 38 M18 42 L46 42" stroke="#d1d5db" stroke-width="0.8"/>
  <path d="M20 24 L20 44 M24 24 L24 44 M28 24 L28 44 M32 24 L32 44 M36 24 L36 44 M40 24 L40 44 M44 24 L44 44" stroke="#d1d5db" stroke-width="0.8"/>
  
  <!-- Scheduled Events -->
  <rect x="20" y="26" width="6" height="3" rx="0.5" fill="url(#event1-gradient)"/>
  <rect x="28" y="26" width="4" height="3" rx="0.5" fill="url(#event2-gradient)"/>
  <rect x="36" y="26" width="8" height="3" rx="0.5" fill="url(#event3-gradient)"/>
  <rect x="20" y="30" width="3" height="3" rx="0.5" fill="url(#event4-gradient)"/>
  <rect x="32" y="30" width="6" height="3" rx="0.5" fill="url(#event5-gradient)"/>
  <rect x="24" y="34" width="8" height="3" rx="0.5" fill="url(#event6-gradient)"/>
  
  <!-- Time Management -->
  <circle cx="8" cy="20" r="4" fill="url(#time-gradient)" stroke="#3b82f6" stroke-width="1.5"/>
  <circle cx="8" cy="20" r="2" fill="#ffffff" opacity="0.9"/>
  <path d="M8 18 L8 20 L10 20" stroke="#3b82f6" stroke-width="1.5" stroke-linecap="round"/>
  
  <!-- Team Coordination -->
  <circle cx="56" cy="20" r="4" fill="url(#team-gradient)" stroke="#f59e0b" stroke-width="1.5"/>
  <text x="56" y="21" text-anchor="middle" fill="#ffffff" font-family="Arial, sans-serif" font-size="4" font-weight="bold">TM</text>
  
  <!-- Automated Booking -->
  <circle cx="8" cy="44" r="4" fill="url(#booking-gradient)" stroke="#22c55e" stroke-width="1.5"/>
  <text x="8" y="45" text-anchor="middle" fill="#ffffff" font-family="Arial, sans-serif" font-size="4" font-weight="bold">AI</text>
  
  <!-- Analytics -->
  <circle cx="56" cy="44" r="4" fill="url(#analytics-gradient)" stroke="#7c3aed" stroke-width="1.5"/>
  <text x="56" y="45" text-anchor="middle" fill="#ffffff" font-family="Arial, sans-serif" font-size="4" font-weight="bold">%</text>
  
  <!-- Connection Lines -->
  <path d="M12 20 L16 32 M48 32 L52 20 M12 44 L16 32 M48 32 L52 44" stroke="#10b981" stroke-width="1.5" opacity="0.6"/>
  
  <!-- Gradient Definitions -->
  <defs>
    <linearGradient id="scheduling-gradient" x1="0%" y1="0%" x2="100%" y2="100%">
      <stop offset="0%" style="stop-color:#34d399;stop-opacity:1" />
      <stop offset="50%" style="stop-color:#10b981;stop-opacity:1" />
      <stop offset="100%" style="stop-color:#059669;stop-opacity:1" />
    </linearGradient>
    <linearGradient id="header-gradient" x1="0%" y1="0%" x2="100%" y2="0%">
      <stop offset="0%" style="stop-color:#047857;stop-opacity:1" />
      <stop offset="100%" style="stop-color:#10b981;stop-opacity:1" />
    </linearGradient>
    <linearGradient id="event1-gradient" x1="0%" y1="0%" x2="100%" y2="100%">
      <stop offset="0%" style="stop-color:#60a5fa;stop-opacity:1" />
      <stop offset="100%" style="stop-color:#3b82f6;stop-opacity:1" />
    </linearGradient>
    <linearGradient id="event2-gradient" x1="0%" y1="0%" x2="100%" y2="100%">
      <stop offset="0%" style="stop-color:#34d399;stop-opacity:1" />
      <stop offset="100%" style="stop-color:#10b981;stop-opacity:1" />
    </linearGradient>
    <linearGradient id="event3-gradient" x1="0%" y1="0%" x2="100%" y2="100%">
      <stop offset="0%" style="stop-color:#fbbf24;stop-opacity:1" />
      <stop offset="100%" style="stop-color:#f59e0b;stop-opacity:1" />
    </linearGradient>
    <linearGradient id="event4-gradient" x1="0%" y1="0%" x2="100%" y2="100%">
      <stop offset="0%" style="stop-color:#f87171;stop-opacity:1" />
      <stop offset="100%" style="stop-color:#ef4444;stop-opacity:1" />
    </linearGradient>
    <linearGradient id="event5-gradient" x1="0%" y1="0%" x2="100%" y2="100%">
      <stop offset="0%" style="stop-color:#a78bfa;stop-opacity:1" />
      <stop offset="100%" style="stop-color:#7c3aed;stop-opacity:1" />
    </linearGradient>
    <linearGradient id="event6-gradient" x1="0%" y1="0%" x2="100%" y2="100%">
      <stop offset="0%" style="stop-color:#fb7185;stop-opacity:1" />
      <stop offset="100%" style="stop-color:#e11d48;stop-opacity:1" />
    </linearGradient>
    <linearGradient id="time-gradient" x1="0%" y1="0%" x2="100%" y2="100%">
      <stop offset="0%" style="stop-color:#93c5fd;stop-opacity:1" />
      <stop offset="100%" style="stop-color:#3b82f6;stop-opacity:1" />
    </linearGradient>
    <linearGradient id="team-gradient" x1="0%" y1="0%" x2="100%" y2="100%">
      <stop offset="0%" style="stop-color:#fbbf24;stop-opacity:1" />
      <stop offset="100%" style="stop-color:#f59e0b;stop-opacity:1" />
    </linearGradient>
    <linearGradient id="booking-gradient" x1="0%" y1="0%" x2="100%" y2="100%">
      <stop offset="0%" style="stop-color:#4ade80;stop-opacity:1" />
      <stop offset="100%" style="stop-color:#22c55e;stop-opacity:1" />
    </linearGradient>
    <linearGradient id="analytics-gradient" x1="0%" y1="0%" x2="100%" y2="100%">
      <stop offset="0%" style="stop-color:#c4b5fd;stop-opacity:1" />
      <stop offset="100%" style="stop-color:#7c3aed;stop-opacity:1" />
    </linearGradient>
  </defs>
</svg>