<svg width="64" height="64" viewBox="0 0 64 64" fill="none" xmlns="http://www.w3.org/2000/svg">
  <!-- Background Circle -->
  <circle cx="32" cy="32" r="30" fill="url(#service-gradient)" stroke="#1e40af" stroke-width="2"/>
  
  <!-- Customer Service Hub -->
  <circle cx="32" cy="32" r="8" fill="#ffffff" fill-opacity="0.95" stroke="#3b82f6" stroke-width="2"/>
  <circle cx="32" cy="32" r="5" fill="url(#hub-gradient)" stroke="#2563eb" stroke-width="1"/>
  <circle cx="32" cy="32" r="2" fill="#ffffff"/>
  <text x="32" y="33" text-anchor="middle" fill="#2563eb" font-family="Arial, sans-serif" font-size="5" font-weight="bold">S</text>
  
  <!-- Ticketing System -->
  <rect x="8" y="16" width="12" height="8" rx="2" fill="url(#ticket-gradient)" stroke="#ef4444" stroke-width="1"/>
  <path d="M10 18 L18 18 M10 20 L16 20 M10 22 L18 22" stroke="#ffffff" stroke-width="0.8"/>
  <circle cx="17" cy="19" r="1" fill="#ffffff"/>
  <text x="17" y="19.5" text-anchor="middle" fill="#ef4444" font-family="Arial, sans-serif" font-size="3" font-weight="bold">#</text>
  
  <!-- Live Chat -->
  <rect x="44" y="16" width="12" height="8" rx="2" fill="url(#chat-gradient)" stroke="#22c55e" stroke-width="1"/>
  <circle cx="46" cy="18" r="0.8" fill="#ffffff"/>
  <circle cx="48" cy="18" r="0.8" fill="#ffffff"/>
  <circle cx="50" cy="18" r="0.8" fill="#ffffff"/>
  <path d="M45 21 L51 21 L49 23 L47 21" stroke="#ffffff" stroke-width="1.2" stroke-linejoin="round" fill="none"/>
  <circle cx="53" cy="19" r="1" fill="#22c55e"/>
  <circle cx="54" cy="20" r="0.5" fill="#ffffff"/>
  
  <!-- Knowledge Base -->
  <rect x="8" y="40" width="12" height="8" rx="2" fill="url(#kb-gradient)" stroke="#7c3aed" stroke-width="1"/>
  <rect x="10" y="42" width="8" height="4" rx="0.5" fill="#ffffff" opacity="0.9"/>
  <path d="M11 43 L17 43 M11 45 L15 45" stroke="#7c3aed" stroke-width="0.8"/>
  <circle cx="16" cy="44" r="0.5" fill="#7c3aed"/>
  <text x="14" y="47" text-anchor="middle" fill="#ffffff" font-family="Arial, sans-serif" font-size="3" font-weight="bold">FAQ</text>
  
  <!-- Analytics Dashboard -->
  <rect x="44" y="40" width="12" height="8" rx="2" fill="url(#analytics-gradient)" stroke="#f59e0b" stroke-width="1"/>
  <path d="M46 44 L48 42 L50 43 L52 41 L54 42" stroke="#ffffff" stroke-width="1.5" stroke-linecap="round" fill="none"/>
  <circle cx="46" cy="44" r="0.5" fill="#ffffff"/>
  <circle cx="48" cy="42" r="0.5" fill="#ffffff"/>
  <circle cx="50" cy="43" r="0.5" fill="#ffffff"/>
  <circle cx="52" cy="41" r="0.5" fill="#ffffff"/>
  <circle cx="54" cy="42" r="0.5" fill="#ffffff"/>
  <text x="50" y="47" text-anchor="middle" fill="#ffffff" font-family="Arial, sans-serif" font-size="4" font-weight="bold">%</text>
  
  <!-- Customer Satisfaction -->
  <circle cx="12" cy="8" r="4" fill="url(#satisfaction-gradient)" stroke="#22c55e" stroke-width="1.5"/>
  <circle cx="10" cy="6" r="0.6" fill="#ffffff"/>
  <circle cx="14" cy="6" r="0.6" fill="#ffffff"/>
  <path d="M9 10 L11 9 L13 10 L15 9" stroke="#ffffff" stroke-width="1.2" stroke-linecap="round" fill="none"/>
  
  <!-- Support Agents -->
  <circle cx="52" cy="8" r="4" fill="url(#agent-gradient)" stroke="#3b82f6" stroke-width="1.5"/>
  <circle cx="50" cy="6" r="0.8" fill="#ffffff"/>
  <circle cx="52" cy="6" r="0.8" fill="#ffffff"/>
  <circle cx="54" cy="6" r="0.8" fill="#ffffff"/>
  <rect x="49" y="8" width="6" height="2" rx="1" fill="#ffffff"/>
  <circle cx="52" cy="9" r="0.3" fill="#3b82f6"/>
  
  <!-- Automation Engine -->
  <circle cx="12" cy="56" r="4" fill="url(#automation-gradient)" stroke="#10b981" stroke-width="1.5"/>
  <path d="M10 54 L14 58 M14 54 L10 58" stroke="#ffffff" stroke-width="1.5"/>
  <circle cx="12" cy="56" r="1" fill="#ffffff"/>
  <text x="12" y="56.5" text-anchor="middle" fill="#10b981" font-family="Arial, sans-serif" font-size="3" font-weight="bold">A</text>
  
  <!-- Customer Feedback -->
  <circle cx="52" cy="56" r="4" fill="url(#feedback-gradient)" stroke="#f472b6" stroke-width="1.5"/>
  <path d="M50 54 L54 54 L54 58 L50 58 Z" stroke="#ffffff" stroke-width="1.2" fill="none"/>
  <circle cx="52" cy="55" r="0.6" fill="#ffffff"/>
  <circle cx="52" cy="57" r="0.6" fill="#ffffff"/>
  
  <!-- Escalation Management -->
  <rect x="24" y="8" width="16" height="6" rx="2" fill="url(#escalation-gradient)" stroke="#ef4444" stroke-width="1"/>
  <path d="M26 10 L30 10 L30 12 L38 12" stroke="#ffffff" stroke-width="1.5" stroke-linecap="round" fill="none"/>
  <circle cx="26" cy="10" r="0.8" fill="#ffffff"/>
  <circle cx="38" cy="12" r="0.8" fill="#ffffff"/>
  <path d="M36 11 L38 12 L36 13" stroke="#ffffff" stroke-width="1" stroke-linecap="round" fill="none"/>
  
  <!-- SLA Monitoring -->
  <rect x="24" y="50" width="16" height="6" rx="2" fill="url(#sla-gradient)" stroke="#3b82f6" stroke-width="1"/>
  <circle cx="32" cy="52" r="2" fill="#ffffff" opacity="0.9"/>
  <path d="M32 50 A2 2 0 0 1 34 52" stroke="#3b82f6" stroke-width="1.5" fill="none"/>
  <circle cx="32" cy="52" r="1" fill="#3b82f6"/>
  <path d="M32 52 L33 51" stroke="#ffffff" stroke-width="1" stroke-linecap="round"/>
  <text x="32" y="55" text-anchor="middle" fill="#ffffff" font-family="Arial, sans-serif" font-size="3" font-weight="bold">SLA</text>
  
  <!-- Multi-channel Support -->
  <circle cx="8" cy="28" r="3" fill="url(#email-support)" stroke="#3b82f6" stroke-width="1"/>
  <text x="8" y="29" text-anchor="middle" fill="#ffffff" font-family="Arial, sans-serif" font-size="4" font-weight="bold">@</text>
  
  <circle cx="8" cy="36" r="3" fill="url(#phone-support)" stroke="#22c55e" stroke-width="1"/>
  <circle cx="8" cy="36" r="1.5" fill="#ffffff" opacity="0.9"/>
  <path d="M6.5 35 L7.5 36 L9.5 34" stroke="#22c55e" stroke-width="1" stroke-linecap="round" fill="none"/>
  
  <circle cx="56" cy="28" r="3" fill="url(#social-support)" stroke="#a855f7" stroke-width="1"/>
  <circle cx="54" cy="26" r="0.6" fill="#ffffff"/>
  <circle cx="56" cy="26" r="0.6" fill="#ffffff"/>
  <circle cx="58" cy="26" r="0.6" fill="#ffffff"/>
  <path d="M54 29 L58 29" stroke="#ffffff" stroke-width="1"/>
  
  <circle cx="56" cy="36" r="3" fill="url(#chat-support)" stroke="#f59e0b" stroke-width="1"/>
  <rect x="54" y="34" width="4" height="4" rx="1" fill="#ffffff" opacity="0.9"/>
  <path d="M55 35 L57 35 M55 37 L57 37" stroke="#f59e0b" stroke-width="0.6"/>
  
  <!-- Response Time Indicator -->
  <circle cx="32" cy="8" r="3" fill="url(#response-gradient)" stroke="#22c55e" stroke-width="1"/>
  <circle cx="32" cy="8" r="1.5" fill="#ffffff"/>
  <path d="M32 6.5 L32 8 L33.5 8" stroke="#22c55e" stroke-width="1" stroke-linecap="round"/>
  
  <!-- Quality Assurance -->
  <circle cx="32" cy="56" r="3" fill="url(#qa-gradient)" stroke="#7c3aed" stroke-width="1"/>
  <path d="M30 54 L31.5 55.5 L34 54" stroke="#ffffff" stroke-width="1.2" stroke-linecap="round" fill="none"/>
  <circle cx="32" cy="57" r="0.5" fill="#ffffff"/>
  
  <!-- Connection Lines -->
  <path d="M24 32 L44 32 M32 24 L32 42" stroke="#3b82f6" stroke-width="2" opacity="0.6"/>
  <path d="M20 20 L44 20 M20 44 L44 44" stroke="#2563eb" stroke-width="1" opacity="0.4" stroke-dasharray="2,2"/>
  
  <!-- Gradient Definitions -->
  <defs>
    <linearGradient id="service-gradient" x1="0%" y1="0%" x2="100%" y2="100%">
      <stop offset="0%" style="stop-color:#60a5fa;stop-opacity:1" />
      <stop offset="50%" style="stop-color:#3b82f6;stop-opacity:1" />
      <stop offset="100%" style="stop-color:#2563eb;stop-opacity:1" />
    </linearGradient>
    <linearGradient id="hub-gradient" x1="0%" y1="0%" x2="100%" y2="100%">
      <stop offset="0%" style="stop-color:#93c5fd;stop-opacity:1" />
      <stop offset="100%" style="stop-color:#3b82f6;stop-opacity:1" />
    </linearGradient>
    <linearGradient id="ticket-gradient" x1="0%" y1="0%" x2="100%" y2="100%">
      <stop offset="0%" style="stop-color:#f87171;stop-opacity:1" />
      <stop offset="100%" style="stop-color:#ef4444;stop-opacity:1" />
    </linearGradient>
    <linearGradient id="chat-gradient" x1="0%" y1="0%" x2="100%" y2="100%">
      <stop offset="0%" style="stop-color:#4ade80;stop-opacity:1" />
      <stop offset="100%" style="stop-color:#22c55e;stop-opacity:1" />
    </linearGradient>
    <linearGradient id="kb-gradient" x1="0%" y1="0%" x2="100%" y2="100%">
      <stop offset="0%" style="stop-color:#a78bfa;stop-opacity:1" />
      <stop offset="100%" style="stop-color:#7c3aed;stop-opacity:1" />
    </linearGradient>
    <linearGradient id="analytics-gradient" x1="0%" y1="0%" x2="100%" y2="100%">
      <stop offset="0%" style="stop-color:#fbbf24;stop-opacity:1" />
      <stop offset="100%" style="stop-color:#f59e0b;stop-opacity:1" />
    </linearGradient>
    <linearGradient id="satisfaction-gradient" x1="0%" y1="0%" x2="100%" y2="100%">
      <stop offset="0%" style="stop-color:#4ade80;stop-opacity:1" />
      <stop offset="100%" style="stop-color:#22c55e;stop-opacity:1" />
    </linearGradient>
    <linearGradient id="agent-gradient" x1="0%" y1="0%" x2="100%" y2="100%">
      <stop offset="0%" style="stop-color:#93c5fd;stop-opacity:1" />
      <stop offset="100%" style="stop-color:#3b82f6;stop-opacity:1" />
    </linearGradient>
    <linearGradient id="automation-gradient" x1="0%" y1="0%" x2="100%" y2="100%">
      <stop offset="0%" style="stop-color:#34d399;stop-opacity:1" />
      <stop offset="100%" style="stop-color:#10b981;stop-opacity:1" />
    </linearGradient>
    <linearGradient id="feedback-gradient" x1="0%" y1="0%" x2="100%" y2="100%">
      <stop offset="0%" style="stop-color:#fda4af;stop-opacity:1" />
      <stop offset="100%" style="stop-color:#f472b6;stop-opacity:1" />
    </linearGradient>
    <linearGradient id="escalation-gradient" x1="0%" y1="0%" x2="100%" y2="100%">
      <stop offset="0%" style="stop-color:#fca5a5;stop-opacity:1" />
      <stop offset="100%" style="stop-color:#ef4444;stop-opacity:1" />
    </linearGradient>
    <linearGradient id="sla-gradient" x1="0%" y1="0%" x2="100%" y2="100%">
      <stop offset="0%" style="stop-color:#93c5fd;stop-opacity:1" />
      <stop offset="100%" style="stop-color:#3b82f6;stop-opacity:1" />
    </linearGradient>
    <linearGradient id="email-support" x1="0%" y1="0%" x2="100%" y2="100%">
      <stop offset="0%" style="stop-color:#93c5fd;stop-opacity:1" />
      <stop offset="100%" style="stop-color:#3b82f6;stop-opacity:1" />
    </linearGradient>
    <linearGradient id="phone-support" x1="0%" y1="0%" x2="100%" y2="100%">
      <stop offset="0%" style="stop-color:#4ade80;stop-opacity:1" />
      <stop offset="100%" style="stop-color:#22c55e;stop-opacity:1" />
    </linearGradient>
    <linearGradient id="social-support" x1="0%" y1="0%" x2="100%" y2="100%">
      <stop offset="0%" style="stop-color:#c4b5fd;stop-opacity:1" />
      <stop offset="100%" style="stop-color:#a855f7;stop-opacity:1" />
    </linearGradient>
    <linearGradient id="chat-support" x1="0%" y1="0%" x2="100%" y2="100%">
      <stop offset="0%" style="stop-color:#fbbf24;stop-opacity:1" />
      <stop offset="100%" style="stop-color:#f59e0b;stop-opacity:1" />
    </linearGradient>
    <linearGradient id="response-gradient" x1="0%" y1="0%" x2="100%" y2="100%">
      <stop offset="0%" style="stop-color:#4ade80;stop-opacity:1" />
      <stop offset="100%" style="stop-color:#22c55e;stop-opacity:1" />
    </linearGradient>
    <linearGradient id="qa-gradient" x1="0%" y1="0%" x2="100%" y2="100%">
      <stop offset="0%" style="stop-color:#c4b5fd;stop-opacity:1" />
      <stop offset="100%" style="stop-color:#7c3aed;stop-opacity:1" />
    </linearGradient>
  </defs>
</svg>