<svg width="64" height="64" viewBox="0 0 64 64" fill="none" xmlns="http://www.w3.org/2000/svg">
  <!-- Background Circle -->
  <circle cx="32" cy="32" r="30" fill="url(#synapse-gradient)" stroke="#7c3aed" stroke-width="2"/>
  
  <!-- SDK Components - Hexagonal Pattern -->
  <polygon points="32,8 40,13 40,23 32,28 24,23 24,13" fill="#ffffff" opacity="0.9" stroke="#a855f7" stroke-width="1"/>
  <polygon points="48,20 56,25 56,35 48,40 40,35 40,25" fill="#ffffff" opacity="0.8" stroke="#a855f7" stroke-width="1"/>
  <polygon points="16,20 24,25 24,35 16,40 8,35 8,25" fill="#ffffff" opacity="0.8" stroke="#a855f7" stroke-width="1"/>
  <polygon points="32,36 40,41 40,51 32,56 24,51 24,41" fill="#ffffff" opacity="0.9" stroke="#a855f7" stroke-width="1"/>
  
  <!-- Central Hub -->
  <circle cx="32" cy="32" r="6" fill="#ffffff" stroke="#7c3aed" stroke-width="2"/>
  
  <!-- Connection Lines -->
  <path d="M32 14 L32 26 M38 18 L38 26 M26 18 L26 26" stroke="#a855f7" stroke-width="1.5" opacity="0.7"/>
  <path d="M42 25 L26 25 M42 35 L26 35" stroke="#a855f7" stroke-width="1.5" opacity="0.7"/>
  <path d="M32 38 L32 50 M38 38 L38 46 M26 38 L26 46" stroke="#a855f7" stroke-width="1.5" opacity="0.7"/>
  
  <!-- API Symbols -->
  <text x="32" y="18" text-anchor="middle" fill="#7c3aed" font-family="monospace" font-size="6" font-weight="bold">API</text>
  <text x="48" y="32" text-anchor="middle" fill="#7c3aed" font-family="monospace" font-size="5" font-weight="bold">SDK</text>
  <text x="16" y="32" text-anchor="middle" fill="#7c3aed" font-family="monospace" font-size="5" font-weight="bold">AI</text>
  <text x="32" y="48" text-anchor="middle" fill="#7c3aed" font-family="monospace" font-size="5" font-weight="bold">APP</text>
  
  <!-- Central Icon -->
  <path d="M29 29 L35 29 M29 32 L35 32 M29 35 L35 35" stroke="#7c3aed" stroke-width="1.5" stroke-linecap="round"/>
  <circle cx="27" cy="32" r="1" fill="#7c3aed"/>
  <circle cx="37" cy="32" r="1" fill="#7c3aed"/>
  
  <!-- Data Flow Indicators -->
  <path d="M20 15 L28 20 M44 20 L36 15" stroke="#a855f7" stroke-width="1" opacity="0.5" marker-end="url(#arrowhead)"/>
  <path d="M20 49 L28 44 M44 44 L36 49" stroke="#a855f7" stroke-width="1" opacity="0.5" marker-end="url(#arrowhead)"/>
  
  <!-- Gradient Definition -->
  <defs>
    <linearGradient id="synapse-gradient" x1="0%" y1="0%" x2="100%" y2="100%">
      <stop offset="0%" style="stop-color:#8b5cf6;stop-opacity:1" />
      <stop offset="50%" style="stop-color:#7c3aed;stop-opacity:1" />
      <stop offset="100%" style="stop-color:#6d28d9;stop-opacity:1" />
    </linearGradient>
    <marker id="arrowhead" markerWidth="10" markerHeight="7" refX="9" refY="3.5" orient="auto">
      <polygon points="0 0, 10 3.5, 0 7" fill="#a855f7" opacity="0.5"/>
    </marker>
  </defs>
</svg>
