<svg width="64" height="64" viewBox="0 0 64 64" fill="none" xmlns="http://www.w3.org/2000/svg">
  <!-- Background Circle -->
  <circle cx="32" cy="32" r="30" fill="url(#talent-gradient)" stroke="#6d28d9" stroke-width="2"/>
  
  <!-- Central Talent Hub -->
  <circle cx="32" cy="32" r="10" fill="#ffffff" fill-opacity="0.95" stroke="#8b5cf6" stroke-width="2"/>
  <circle cx="32" cy="32" r="6" fill="url(#hub-gradient)" stroke="#7c3aed" stroke-width="1"/>
  <circle cx="32" cy="32" r="3" fill="#ffffff"/>
  <text x="32" y="33" text-anchor="middle" fill="#7c3aed" font-family="Arial, sans-serif" font-size="5" font-weight="bold">T</text>
  
  <!-- Talent Pipeline -->
  <circle cx="12" cy="20" r="4" fill="url(#candidate1-gradient)" stroke="#10b981" stroke-width="1.5"/>
  <circle cx="20" cy="12" r="4" fill="url(#candidate2-gradient)" stroke="#3b82f6" stroke-width="1.5"/>
  <circle cx="44" cy="12" r="4" fill="url(#candidate3-gradient)" stroke="#f59e0b" stroke-width="1.5"/>
  <circle cx="52" cy="20" r="4" fill="url(#candidate4-gradient)" stroke="#ef4444" stroke-width="1.5"/>
  
  <!-- Candidate Indicators -->
  <circle cx="12" cy="20" r="2" fill="#ffffff"/>
  <circle cx="20" cy="12" r="2" fill="#ffffff"/>
  <circle cx="44" cy="12" r="2" fill="#ffffff"/>
  <circle cx="52" cy="20" r="2" fill="#ffffff"/>
  
  <!-- Recruitment Process -->
  <rect x="8" y="32" width="12" height="6" rx="2" fill="url(#recruitment-gradient)" stroke="#10b981" stroke-width="1"/>
  <path d="M10 34 L18 34 M10 36 L16 36" stroke="#ffffff" stroke-width="0.8"/>
  <circle cx="17" cy="35" r="1" fill="#ffffff"/>
  <text x="17" y="35.5" text-anchor="middle" fill="#10b981" font-family="Arial, sans-serif" font-size="3" font-weight="bold">+</text>
  
  <!-- Performance Management -->
  <rect x="44" y="32" width="12" height="6" rx="2" fill="url(#performance-gradient)" stroke="#3b82f6" stroke-width="1"/>
  <path d="M46 35 L48 33 L50 34 L52 32 L54 33" stroke="#ffffff" stroke-width="1.5" stroke-linecap="round" fill="none"/>
  <circle cx="46" cy="35" r="0.5" fill="#ffffff"/>
  <circle cx="48" cy="33" r="0.5" fill="#ffffff"/>
  <circle cx="50" cy="34" r="0.5" fill="#ffffff"/>
  <circle cx="52" cy="32" r="0.5" fill="#ffffff"/>
  <circle cx="54" cy="33" r="0.5" fill="#ffffff"/>
  
  <!-- Learning & Development -->
  <rect x="20" y="44" width="12" height="6" rx="2" fill="url(#learning-gradient)" stroke="#f59e0b" stroke-width="1"/>
  <circle cx="24" cy="46" r="1" fill="#ffffff"/>
  <circle cx="28" cy="46" r="1" fill="#ffffff"/>
  <path d="M22 48 L30 48" stroke="#ffffff" stroke-width="1"/>
  <circle cx="26" cy="47" r="0.5" fill="#ffffff"/>
  
  <!-- Succession Planning -->
  <rect x="32" y="44" width="12" height="6" rx="2" fill="url(#succession-gradient)" stroke="#ef4444" stroke-width="1"/>
  <path d="M34 46 L38 46 L38 48 L42 48" stroke="#ffffff" stroke-width="1.5" stroke-linecap="round" fill="none"/>
  <circle cx="34" cy="46" r="0.8" fill="#ffffff"/>
  <circle cx="42" cy="48" r="0.8" fill="#ffffff"/>
  <path d="M40 47 L42 48 L40 49" stroke="#ffffff" stroke-width="1" stroke-linecap="round" fill="none"/>
  
  <!-- Skills Assessment -->
  <circle cx="12" cy="44" r="4" fill="url(#skills-gradient)" stroke="#8b5cf6" stroke-width="1.5"/>
  <path d="M10 42 L14 46 M14 42 L10 46" stroke="#ffffff" stroke-width="1.5"/>
  <circle cx="12" cy="44" r="1" fill="#ffffff"/>
  
  <!-- Career Development -->
  <circle cx="52" cy="44" r="4" fill="url(#career-gradient)" stroke="#22c55e" stroke-width="1.5"/>
  <path d="M50 46 L52 44 L54 46 M50 44 L54 44" stroke="#ffffff" stroke-width="1.5" stroke-linecap="round" fill="none"/>
  
  <!-- Talent Analytics -->
  <rect x="8" y="8" width="8" height="8" rx="2" fill="url(#analytics-gradient)" stroke="#7c3aed" stroke-width="1"/>
  <path d="M10 12 L12 10 L14 11 L16 9" stroke="#ffffff" stroke-width="1.5" stroke-linecap="round" fill="none"/>
  <circle cx="10" cy="12" r="0.5" fill="#ffffff"/>
  <circle cx="12" cy="10" r="0.5" fill="#ffffff"/>
  <circle cx="14" cy="11" r="0.5" fill="#ffffff"/>
  <circle cx="16" cy="9" r="0.5" fill="#ffffff"/>
  
  <!-- Employee Engagement -->
  <rect x="48" y="8" width="8" height="8" rx="2" fill="url(#engagement-gradient)" stroke="#22c55e" stroke-width="1"/>
  <circle cx="50" cy="10" r="0.8" fill="#ffffff"/>
  <circle cx="52" cy="10" r="0.8" fill="#ffffff"/>
  <circle cx="54" cy="10" r="0.8" fill="#ffffff"/>
  <path d="M49 13 L51 11 L53 12 L55 11 L57 13" stroke="#ffffff" stroke-width="1.2" stroke-linecap="round" fill="none"/>
  
  <!-- Competency Matrix -->
  <rect x="28" y="8" width="8" height="8" rx="2" fill="url(#competency-gradient)" stroke="#f59e0b" stroke-width="1"/>
  <path d="M30 10 L34 10 M30 12 L34 12 M30 14 L34 14" stroke="#ffffff" stroke-width="0.8"/>
  <circle cx="31" cy="10" r="0.3" fill="#22c55e"/>
  <circle cx="33" cy="10" r="0.3" fill="#f59e0b"/>
  <circle cx="31" cy="12" r="0.3" fill="#ef4444"/>
  <circle cx="33" cy="12" r="0.3" fill="#22c55e"/>
  <circle cx="31" cy="14" r="0.3" fill="#22c55e"/>
  <circle cx="33" cy="14" r="0.3" fill="#22c55e"/>
  
  <!-- Connection Lines -->
  <path d="M16 20 L22 32 M24 12 L28 22 M40 12 L36 22 M48 20 L42 32" stroke="#8b5cf6" stroke-width="2" opacity="0.6"/>
  <path d="M20 38 L44 38" stroke="#7c3aed" stroke-width="1.5" opacity="0.5"/>
  
  <!-- Talent Pool Indicator -->
  <circle cx="8" cy="56" r="4" fill="url(#pool-gradient)" stroke="#3b82f6" stroke-width="1.5"/>
  <circle cx="8" cy="56" r="2" fill="#ffffff" opacity="0.8"/>
  <path d="M6 54 L10 58 M10 54 L6 58" stroke="#3b82f6" stroke-width="1" opacity="0.7"/>
  
  <!-- Retention Rate -->
  <circle cx="56" cy="56" r="4" fill="url(#retention-gradient)" stroke="#22c55e" stroke-width="1.5"/>
  <path d="M56 52 A4 4 0 1 1 55.9 52" stroke="#ffffff" stroke-width="2" fill="none"/>
  <circle cx="56" cy="56" r="1.5" fill="#ffffff"/>
  <text x="56" y="57" text-anchor="middle" fill="#22c55e" font-family="Arial, sans-serif" font-size="4" font-weight="bold">%</text>
  
  <!-- Talent Development Pathway -->
  <path d="M32 22 L32 8 M32 42 L32 56" stroke="#8b5cf6" stroke-width="2" opacity="0.4" stroke-dasharray="3,3"/>
  
  <!-- Gradient Definitions -->
  <defs>
    <linearGradient id="talent-gradient" x1="0%" y1="0%" x2="100%" y2="100%">
      <stop offset="0%" style="stop-color:#a78bfa;stop-opacity:1" />
      <stop offset="50%" style="stop-color:#8b5cf6;stop-opacity:1" />
      <stop offset="100%" style="stop-color:#7c3aed;stop-opacity:1" />
    </linearGradient>
    <linearGradient id="hub-gradient" x1="0%" y1="0%" x2="100%" y2="100%">
      <stop offset="0%" style="stop-color:#c4b5fd;stop-opacity:1" />
      <stop offset="100%" style="stop-color:#8b5cf6;stop-opacity:1" />
    </linearGradient>
    <linearGradient id="candidate1-gradient" x1="0%" y1="0%" x2="100%" y2="100%">
      <stop offset="0%" style="stop-color:#34d399;stop-opacity:1" />
      <stop offset="100%" style="stop-color:#10b981;stop-opacity:1" />
    </linearGradient>
    <linearGradient id="candidate2-gradient" x1="0%" y1="0%" x2="100%" y2="100%">
      <stop offset="0%" style="stop-color:#60a5fa;stop-opacity:1" />
      <stop offset="100%" style="stop-color:#3b82f6;stop-opacity:1" />
    </linearGradient>
    <linearGradient id="candidate3-gradient" x1="0%" y1="0%" x2="100%" y2="100%">
      <stop offset="0%" style="stop-color:#fbbf24;stop-opacity:1" />
      <stop offset="100%" style="stop-color:#f59e0b;stop-opacity:1" />
    </linearGradient>
    <linearGradient id="candidate4-gradient" x1="0%" y1="0%" x2="100%" y2="100%">
      <stop offset="0%" style="stop-color:#f87171;stop-opacity:1" />
      <stop offset="100%" style="stop-color:#ef4444;stop-opacity:1" />
    </linearGradient>
    <linearGradient id="recruitment-gradient" x1="0%" y1="0%" x2="100%" y2="100%">
      <stop offset="0%" style="stop-color:#6ee7b7;stop-opacity:1" />
      <stop offset="100%" style="stop-color:#10b981;stop-opacity:1" />
    </linearGradient>
    <linearGradient id="performance-gradient" x1="0%" y1="0%" x2="100%" y2="100%">
      <stop offset="0%" style="stop-color:#93c5fd;stop-opacity:1" />
      <stop offset="100%" style="stop-color:#3b82f6;stop-opacity:1" />
    </linearGradient>
    <linearGradient id="learning-gradient" x1="0%" y1="0%" x2="100%" y2="100%">
      <stop offset="0%" style="stop-color:#fed7aa;stop-opacity:1" />
      <stop offset="100%" style="stop-color:#f59e0b;stop-opacity:1" />
    </linearGradient>
    <linearGradient id="succession-gradient" x1="0%" y1="0%" x2="100%" y2="100%">
      <stop offset="0%" style="stop-color:#fca5a5;stop-opacity:1" />
      <stop offset="100%" style="stop-color:#ef4444;stop-opacity:1" />
    </linearGradient>
    <linearGradient id="skills-gradient" x1="0%" y1="0%" x2="100%" y2="100%">
      <stop offset="0%" style="stop-color:#ddd6fe;stop-opacity:1" />
      <stop offset="100%" style="stop-color:#8b5cf6;stop-opacity:1" />
    </linearGradient>
    <linearGradient id="career-gradient" x1="0%" y1="0%" x2="100%" y2="100%">
      <stop offset="0%" style="stop-color:#4ade80;stop-opacity:1" />
      <stop offset="100%" style="stop-color:#22c55e;stop-opacity:1" />
    </linearGradient>
    <linearGradient id="analytics-gradient" x1="0%" y1="0%" x2="100%" y2="100%">
      <stop offset="0%" style="stop-color:#c4b5fd;stop-opacity:1" />
      <stop offset="100%" style="stop-color:#7c3aed;stop-opacity:1" />
    </linearGradient>
    <linearGradient id="engagement-gradient" x1="0%" y1="0%" x2="100%" y2="100%">
      <stop offset="0%" style="stop-color:#6ee7b7;stop-opacity:1" />
      <stop offset="100%" style="stop-color:#22c55e;stop-opacity:1" />
    </linearGradient>
    <linearGradient id="competency-gradient" x1="0%" y1="0%" x2="100%" y2="100%">
      <stop offset="0%" style="stop-color:#fed7aa;stop-opacity:1" />
      <stop offset="100%" style="stop-color:#f59e0b;stop-opacity:1" />
    </linearGradient>
    <linearGradient id="pool-gradient" x1="0%" y1="0%" x2="100%" y2="100%">
      <stop offset="0%" style="stop-color:#93c5fd;stop-opacity:1" />
      <stop offset="100%" style="stop-color:#3b82f6;stop-opacity:1" />
    </linearGradient>
    <linearGradient id="retention-gradient" x1="0%" y1="0%" x2="100%" y2="100%">
      <stop offset="0%" style="stop-color:#4ade80;stop-opacity:1" />
      <stop offset="100%" style="stop-color:#22c55e;stop-opacity:1" />
    </linearGradient>
  </defs>
</svg>