<svg width="64" height="64" viewBox="0 0 64 64" fill="none" xmlns="http://www.w3.org/2000/svg">
  <!-- Background Circle -->
  <circle cx="32" cy="32" r="30" fill="url(#workforce-gradient)" stroke="#065f46" stroke-width="2"/>
  
  <!-- Workforce Dashboard -->
  <rect x="16" y="16" width="32" height="32" rx="4" fill="#ffffff" fill-opacity="0.95" stroke="#059669" stroke-width="1.5"/>
  
  <!-- Dashboard Header -->
  <rect x="16" y="16" width="32" height="6" rx="4" fill="url(#header-gradient)"/>
  <rect x="16" y="18" width="32" height="4" fill="#047857"/>
  
  <!-- Scheduling Grid -->
  <rect x="20" y="26" width="24" height="14" rx="2" fill="url(#schedule-gradient)" stroke="#10b981" stroke-width="1"/>
  
  <!-- Time Slots -->
  <path d="M22 28 L42 28 M22 31 L42 31 M22 34 L42 34 M22 37 L42 37" stroke="#ffffff" stroke-width="0.8" opacity="0.8"/>
  <path d="M24 26 L24 40 M28 26 L28 40 M32 26 L32 40 M36 26 L36 40 M40 26 L40 40" stroke="#ffffff" stroke-width="0.8" opacity="0.8"/>
  
  <!-- Scheduled Shifts -->
  <rect x="24" y="28" width="3" height="2" rx="0.5" fill="#22c55e"/>
  <rect x="28" y="28" width="3" height="2" rx="0.5" fill="#3b82f6"/>
  <rect x="32" y="28" width="3" height="2" rx="0.5" fill="#f59e0b"/>
  <rect x="36" y="28" width="3" height="2" rx="0.5" fill="#ef4444"/>
  
  <rect x="24" y="31" width="2" height="2" rx="0.5" fill="#f59e0b"/>
  <rect x="28" y="31" width="4" height="2" rx="0.5" fill="#22c55e"/>
  <rect x="34" y="31" width="3" height="2" rx="0.5" fill="#3b82f6"/>
  
  <rect x="24" y="34" width="4" height="2" rx="0.5" fill="#3b82f6"/>
  <rect x="30" y="34" width="2" height="2" rx="0.5" fill="#ef4444"/>
  <rect x="34" y="34" width="4" height="2" rx="0.5" fill="#22c55e"/>
  
  <rect x="24" y="37" width="2" height="2" rx="0.5" fill="#22c55e"/>
  <rect x="28" y="37" width="3" height="2" rx="0.5" fill="#f59e0b"/>
  <rect x="32" y="37" width="2" height="2" rx="0.5" fill="#3b82f6"/>
  <rect x="36" y="37" width="4" height="2" rx="0.5" fill="#ef4444"/>
  
  <!-- Employee Profiles -->
  <circle cx="8" cy="24" r="3" fill="url(#employee1-gradient)" stroke="#059669" stroke-width="1"/>
  <circle cx="8" cy="32" r="3" fill="url(#employee2-gradient)" stroke="#10b981" stroke-width="1"/>
  <circle cx="8" cy="40" r="3" fill="url(#employee3-gradient)" stroke="#34d399" stroke-width="1"/>
  <circle cx="8" cy="48" r="3" fill="url(#employee4-gradient)" stroke="#6ee7b7" stroke-width="1"/>
  
  <!-- Employee Avatars -->
  <circle cx="8" cy="24" r="1.5" fill="#ffffff"/>
  <circle cx="8" cy="32" r="1.5" fill="#ffffff"/>
  <circle cx="8" cy="40" r="1.5" fill="#ffffff"/>
  <circle cx="8" cy="48" r="1.5" fill="#ffffff"/>
  
  <!-- Time Tracking -->
  <rect x="20" y="44" width="24" height="4" rx="1" fill="url(#timetrack-gradient)" stroke="#059669" stroke-width="1"/>
  <path d="M22 46 L26 46 M28 46 L32 46 M34 46 L38 46 M40 46 L42 46" stroke="#ffffff" stroke-width="1"/>
  <circle cx="32" cy="46" r="1" fill="#ffffff"/>
  <path d="M31 45 L32 46 L33 45" stroke="#059669" stroke-width="1" stroke-linecap="round" fill="none"/>
  
  <!-- Attendance Monitor -->
  <circle cx="52" cy="24" r="4" fill="url(#attendance-gradient)" stroke="#22c55e" stroke-width="1.5"/>
  <path d="M50 22 L51.5 23.5 L54 21" stroke="#ffffff" stroke-width="1.5" stroke-linecap="round" fill="none"/>
  <circle cx="52" cy="26" r="0.5" fill="#22c55e"/>
  
  <!-- Labor Cost Analytics -->
  <rect x="50" y="32" width="8" height="8" rx="2" fill="url(#cost-gradient)" stroke="#f59e0b" stroke-width="1"/>
  <path d="M52 36 L54 34 L56 35 L58 33" stroke="#ffffff" stroke-width="1.5" stroke-linecap="round" fill="none"/>
  <circle cx="52" cy="36" r="0.5" fill="#ffffff"/>
  <circle cx="54" cy="34" r="0.5" fill="#ffffff"/>
  <circle cx="56" cy="35" r="0.5" fill="#ffffff"/>
  <circle cx="58" cy="33" r="0.5" fill="#ffffff"/>
  <text x="54" y="38" text-anchor="middle" fill="#ffffff" font-family="Arial, sans-serif" font-size="4" font-weight="bold">$</text>
  
  <!-- Compliance Monitor -->
  <circle cx="52" cy="48" r="4" fill="url(#compliance-gradient)" stroke="#3b82f6" stroke-width="1.5"/>
  <rect x="50" y="46" width="4" height="4" rx="0.5" fill="#ffffff" opacity="0.9"/>
  <path d="M51 47 L53 47 M51 49 L53 49" stroke="#3b82f6" stroke-width="0.8"/>
  <circle cx="50.5" cy="47" r="0.2" fill="#22c55e"/>
  <circle cx="50.5" cy="49" r="0.2" fill="#ef4444"/>
  
  <!-- Shift Planning -->
  <rect x="8" y="8" width="8" height="8" rx="2" fill="url(#planning-gradient)" stroke="#059669" stroke-width="1"/>
  <circle cx="10" cy="10" r="0.8" fill="#ffffff"/>
  <circle cx="12" cy="10" r="0.8" fill="#ffffff"/>
  <circle cx="14" cy="10" r="0.8" fill="#ffffff"/>
  <path d="M9 13 L11 13 L11 15 L15 15" stroke="#ffffff" stroke-width="1" stroke-linecap="round" fill="none"/>
  <circle cx="9" cy="13" r="0.5" fill="#ffffff"/>
  <circle cx="15" cy="15" r="0.5" fill="#ffffff"/>
  
  <!-- Performance Metrics -->
  <rect x="48" y="8" width="8" height="8" rx="2" fill="url(#metrics-gradient)" stroke="#10b981" stroke-width="1"/>
  <path d="M50 12 L52 10 L54 11 L56 9" stroke="#ffffff" stroke-width="1.5" stroke-linecap="round" fill="none"/>
  <circle cx="50" cy="12" r="0.5" fill="#ffffff"/>
  <circle cx="52" cy="10" r="0.5" fill="#ffffff"/>
  <circle cx="54" cy="11" r="0.5" fill="#ffffff"/>
  <circle cx="56" cy="9" r="0.5" fill="#ffffff"/>
  
  <!-- Productivity Gauge -->
  <circle cx="32" cy="8" r="4" fill="url(#productivity-gradient)" stroke="#22c55e" stroke-width="1.5"/>
  <path d="M32 4 A4 4 0 0 1 36 8" stroke="#ffffff" stroke-width="2" fill="none"/>
  <circle cx="32" cy="8" r="1.5" fill="#ffffff"/>
  <path d="M32 8 L34 6" stroke="#22c55e" stroke-width="1.5" stroke-linecap="round"/>
  
  <!-- Break Schedule -->
  <rect x="20" y="52" width="8" height="6" rx="1" fill="url(#break-gradient)" stroke="#6b7280" stroke-width="1"/>
  <circle cx="22" cy="54" r="0.8" fill="#ffffff"/>
  <circle cx="24" cy="54" r="0.8" fill="#ffffff"/>
  <circle cx="26" cy="54" r="0.8" fill="#ffffff"/>
  <path d="M21 56 L27 56" stroke="#ffffff" stroke-width="1"/>
  
  <!-- Overtime Alert -->
  <path d="M36 52 L40 48 L36 44 Z" fill="url(#overtime-gradient)" stroke="#ef4444" stroke-width="1"/>
  <text x="38" y="49" text-anchor="middle" fill="#ffffff" font-family="Arial, sans-serif" font-size="4" font-weight="bold">!</text>
  
  <!-- Team Communication -->
  <circle cx="8" cy="56" r="4" fill="url(#comm-gradient)" stroke="#3b82f6" stroke-width="1.5"/>
  <circle cx="6" cy="54" r="0.8" fill="#ffffff"/>
  <circle cx="8" cy="54" r="0.8" fill="#ffffff"/>
  <circle cx="10" cy="54" r="0.8" fill="#ffffff"/>
  <path d="M5 58 L11 58" stroke="#ffffff" stroke-width="1.2"/>
  
  <!-- Workflow Connections -->
  <path d="M16 32 L50 32 M32 22 L32 44" stroke="#059669" stroke-width="1" opacity="0.5" stroke-dasharray="2,2"/>
  
  <!-- Gradient Definitions -->
  <defs>
    <linearGradient id="workforce-gradient" x1="0%" y1="0%" x2="100%" y2="100%">
      <stop offset="0%" style="stop-color:#34d399;stop-opacity:1" />
      <stop offset="50%" style="stop-color:#10b981;stop-opacity:1" />
      <stop offset="100%" style="stop-color:#059669;stop-opacity:1" />
    </linearGradient>
    <linearGradient id="header-gradient" x1="0%" y1="0%" x2="100%" y2="0%">
      <stop offset="0%" style="stop-color:#047857;stop-opacity:1" />
      <stop offset="100%" style="stop-color:#059669;stop-opacity:1" />
    </linearGradient>
    <linearGradient id="schedule-gradient" x1="0%" y1="0%" x2="100%" y2="100%">
      <stop offset="0%" style="stop-color:#6ee7b7;stop-opacity:0.9" />
      <stop offset="100%" style="stop-color:#10b981;stop-opacity:0.9" />
    </linearGradient>
    <linearGradient id="employee1-gradient" x1="0%" y1="0%" x2="100%" y2="100%">
      <stop offset="0%" style="stop-color:#34d399;stop-opacity:1" />
      <stop offset="100%" style="stop-color:#059669;stop-opacity:1" />
    </linearGradient>
    <linearGradient id="employee2-gradient" x1="0%" y1="0%" x2="100%" y2="100%">
      <stop offset="0%" style="stop-color:#6ee7b7;stop-opacity:1" />
      <stop offset="100%" style="stop-color:#10b981;stop-opacity:1" />
    </linearGradient>
    <linearGradient id="employee3-gradient" x1="0%" y1="0%" x2="100%" y2="100%">
      <stop offset="0%" style="stop-color:#a7f3d0;stop-opacity:1" />
      <stop offset="100%" style="stop-color:#34d399;stop-opacity:1" />
    </linearGradient>
    <linearGradient id="employee4-gradient" x1="0%" y1="0%" x2="100%" y2="100%">
      <stop offset="0%" style="stop-color:#d1fae5;stop-opacity:1" />
      <stop offset="100%" style="stop-color:#6ee7b7;stop-opacity:1" />
    </linearGradient>
    <linearGradient id="timetrack-gradient" x1="0%" y1="0%" x2="100%" y2="100%">
      <stop offset="0%" style="stop-color:#34d399;stop-opacity:1" />
      <stop offset="100%" style="stop-color:#059669;stop-opacity:1" />
    </linearGradient>
    <linearGradient id="attendance-gradient" x1="0%" y1="0%" x2="100%" y2="100%">
      <stop offset="0%" style="stop-color:#4ade80;stop-opacity:1" />
      <stop offset="100%" style="stop-color:#22c55e;stop-opacity:1" />
    </linearGradient>
    <linearGradient id="cost-gradient" x1="0%" y1="0%" x2="100%" y2="100%">
      <stop offset="0%" style="stop-color:#fbbf24;stop-opacity:1" />
      <stop offset="100%" style="stop-color:#f59e0b;stop-opacity:1" />
    </linearGradient>
    <linearGradient id="compliance-gradient" x1="0%" y1="0%" x2="100%" y2="100%">
      <stop offset="0%" style="stop-color:#60a5fa;stop-opacity:1" />
      <stop offset="100%" style="stop-color:#3b82f6;stop-opacity:1" />
    </linearGradient>
    <linearGradient id="planning-gradient" x1="0%" y1="0%" x2="100%" y2="100%">
      <stop offset="0%" style="stop-color:#6ee7b7;stop-opacity:1" />
      <stop offset="100%" style="stop-color:#059669;stop-opacity:1" />
    </linearGradient>
    <linearGradient id="metrics-gradient" x1="0%" y1="0%" x2="100%" y2="100%">
      <stop offset="0%" style="stop-color:#a7f3d0;stop-opacity:1" />
      <stop offset="100%" style="stop-color:#10b981;stop-opacity:1" />
    </linearGradient>
    <linearGradient id="productivity-gradient" x1="0%" y1="0%" x2="100%" y2="100%">
      <stop offset="0%" style="stop-color:#4ade80;stop-opacity:1" />
      <stop offset="100%" style="stop-color:#22c55e;stop-opacity:1" />
    </linearGradient>
    <linearGradient id="break-gradient" x1="0%" y1="0%" x2="100%" y2="100%">
      <stop offset="0%" style="stop-color:#9ca3af;stop-opacity:1" />
      <stop offset="100%" style="stop-color:#6b7280;stop-opacity:1" />
    </linearGradient>
    <linearGradient id="overtime-gradient" x1="0%" y1="0%" x2="100%" y2="100%">
      <stop offset="0%" style="stop-color:#f87171;stop-opacity:1" />
      <stop offset="100%" style="stop-color:#ef4444;stop-opacity:1" />
    </linearGradient>
    <linearGradient id="comm-gradient" x1="0%" y1="0%" x2="100%" y2="100%">
      <stop offset="0%" style="stop-color:#93c5fd;stop-opacity:1" />
      <stop offset="100%" style="stop-color:#3b82f6;stop-opacity:1" />
    </linearGradient>
  </defs>
</svg>